<?xml version="1.0" standalone="no"?>
<!DOCTYPE svg PUBLIC "-//W3C//DTD SVG 1.1//EN" "http://www.w3.org/Graphics/SVG/1.1/DTD/svg11.dtd">
<svg xmlns="http://www.w3.org/2000/svg" id="CURE_SYNGAP1" data-name="CURE SYNGAP1" viewBox="0 0 3000 2500" width="3000" height="2500">
  <defs>
    <style>
      .cls-1 {
        fill: #6f3592;
      }

      .cls-2 {
        fill: #19ae69;
      }

      .cls-3 {
        fill: #3e6cb5;
      }

      .cls-4 {
        fill: #6f3490;
      }
    </style>
  </defs>
  <g>
    <path class="cls-2" d="M2862.4,1377.71c5-37.43,7.81-75.9,8.36-114.32.31-21.95-.21-44.53-1.55-67.11-1.35-22.78-3.1-41.72-5.5-59.6-.48-3.58-.93-7.2-1.37-10.7-.62-5-1.26-10.17-2-15.19-1.13-7.73-2.46-15.86-4.19-25.59-1.17-6.59-2.48-13.31-3.74-19.81-.43-2.23-.87-4.47-1.3-6.71-.25-1.31-.54-2.56-.85-3.72-1.31-4.87-2.36-9.75-3.37-14.47-1.33-6.19-2.58-12.03-4.36-17.71-.53-1.68-.79-3.25-1-4.51-.1-.59-.19-1.14-.28-1.56l-.24-1.05c-.43-1.89-.83-3.67-1.32-5.29-3.82-12.46-7.76-25.19-11.57-37.5l-3.72-12.04-3.69-11.17c-4.24-12.81-8.62-26.06-12.97-39.15-.54-1.61-1.2-3.31-1.96-5.03-2.5-5.62-4.76-11.34-6.95-16.87-2.39-6.03-4.64-11.72-7.19-17.35-.51-1.12-.89-2.17-1.23-3.1-.26-.71-.5-1.38-.73-1.86-3.33-7.15-6.72-14.3-10-21.21-1.29-2.73-2.57-5.46-3.85-8.2-2.98-6.38-6.06-12.98-9.28-19.28-.35-.68-.7-1.35-1.05-2.02-.19-.36-.38-.73-.58-1.09-5.17-9.23-10.36-18.47-15.6-27.79l-5.66-10.08-5.51-9.36c-5.5-9.36-11.05-18.8-16.62-28.26-2.6-4.09-4.95-7.74-7.19-11.17-11.95-18.33-24.96-36.76-38.65-54.78l-.09-.12-.11-.14v-.02s-.03-.02-.03-.02c-4.45-5.84-9.02-11.72-13.58-17.45-7.28-9.14-15.02-18.46-23.01-27.7l-1.51-1.75-.48-.56c-8.02-9.22-16.39-18.47-24.87-27.48-6.98-7.43-14.38-14.81-21.53-21.94-1.95-1.95-3.9-3.9-5.85-5.85-2.79,3.03-5.58,6.11-8.3,9.1l-.6.67-9.82,10.82c-10.51,11.59-21.37,23.56-32.04,35.38,14.53,14.28,27.03,27.5,38.09,40.28,1.04,1.21,2.09,2.41,3.14,3.61l.61.7c1.29,1.47,2.6,2.96,3.9,4.46,4.45,5.08,9.53,10.87,14.35,16.67,3.82,4.59,7.51,9.32,11.07,13.9,2.47,3.17,5.02,6.44,7.56,9.59,4.14,5.14,7.89,10.34,11.69,15.66,2.78,3.89,5.68,7.84,8.49,11.65,2.28,3.1,4.64,6.31,6.94,9.5,1.19,1.65,2.19,3.32,3.08,4.8.37.62.74,1.24,1.13,1.86.24.38.47.77.7,1.16.19.28.38.56.57.83.33.49.67.98,1,1.47.19.29.38.58.58.87l.23.35c5.07,6.36,9.08,13.15,12.97,19.73.76,1.28,1.52,2.57,2.28,3.85l.14.23.12.2c2.17,3.49,4.33,7.03,6.42,10.54,1.6,2.56,2.86,4.53,4.07,6.38,3.62,5.5,6.76,11.23,9.79,16.76.49.9.98,1.79,1.48,2.69,1.37,2.48,2.62,4.97,3.84,7.38,1.63,3.23,3.17,6.28,4.88,9.15,4.72,7.92,8.65,16.15,12.44,24.12,2.51,5.27,5.1,10.71,7.84,15.85.53.99.89,1.91,1.16,2.58.08.2.16.4.24.6l3.54,8.15c2.18,5.03,4.37,10.05,6.55,15.08.8,1.85,1.65,3.75,2.47,5.58,2.01,4.5,4.09,9.16,5.89,13.98l2.2,5.85c4.83,12.85,9.83,26.14,14.35,39.44,9.43,27.77,17.75,57.37,24.72,87.98,8.54,37.46,14.6,76.68,18.03,116.58,3.36,39.2,4.08,78.88,2.14,117.95-2.59,52.05-9.8,104.13-21.44,154.79-8.87,38.58-20.46,76.86-34.46,113.76-27.75,73.15-64.86,142-110.31,204.65-22,30.33-46.53,59.86-72.9,87.78-17.35,18.36-35.91,36.29-55.19,53.28-13.93,12.28-25.56,21.94-36.6,30.41-2.11,1.62-4.26,3.34-6.35,5-4.75,3.8-9.67,7.72-15.04,11.25-.23.15-.62.47-1.01.77-.43.34-.91.73-1.46,1.13-3.17,2.32-6.34,4.64-9.52,6.94-1.38,1-2.86,2.06-4.52,3.23-.9.64-1.81,1.28-2.71,1.91-2.76,1.95-5.62,3.97-8.49,5.94-1.12.77-2.23,1.44-3.22,2.03-.2.12-.4.24-.6.36-.87.59-1.73,1.18-2.6,1.76-5.63,4.54-11.62,8.15-17.41,11.64l-1.51.91c-.52.31-1.03.62-1.55.93-.12.07-.24.14-.36.21,12.6,21.92,25.19,43.84,37.8,65.76,2.51-1.51,5.02-3.02,7.53-4.54,13.49-8.65,27.01-17.81,40.19-27.23,22.92-16.38,45.84-34.44,68.13-53.68,25.17-21.72,49.27-44.84,71.63-68.74,21.04-22.49,41.5-46.62,60.79-71.7,28.43-36.97,54.37-76.48,77.09-117.45,29.11-52.47,53.2-107.32,71.62-163.02,18.93-57.25,32.49-115.91,40.29-174.37Z"/>
    <path class="cls-3" d="M2323.94,2029.06c-6.18,3.62-12.57,6.57-18.74,9.43-5.4,2.5-10.5,4.86-15.39,7.6-.89.5-1.7.83-2.24,1.04-.1.04-.2.08-.3.12-2.43,1.05-4.88,2.08-7.26,3.08-5.43,2.28-10.55,4.43-15.62,6.84-8.05,3.82-16.31,7.02-24.3,10.12-2.4.93-4.8,1.86-7.19,2.8-8.05,3.18-16.29,5.98-24.25,8.69-3.06,1.04-6.22,2.12-9.31,3.19-26.4,9.19-54.87,17.2-87.05,24.5-62.12,14.08-126.46,21.21-191.25,21.21h-.95c-53.75-.06-107.9-5.16-160.96-15.18-48.66-9.19-96.39-22.36-141.85-39.14-84.98-31.38-164.1-75.26-235.15-130.42-31.4-24.38-61.66-51.43-89.95-80.41-12.28-12.58-24.72-26.23-36.97-40.57-7.98-9.34-16.46-19.39-24.44-29.65-.53-.68-1.06-1.36-1.59-2.04h-94.2c.67.96,1.33,1.92,2,2.88l2.79,4.02c.41.59.81,1.18,1.21,1.78.77,1.13,1.49,2.19,2.22,3.18,3.28,4.44,6.58,8.86,9.88,13.29,1.56,2.09,3.12,4.19,4.68,6.28,1.32,1.77,2.63,3.56,3.93,5.34,2.83,3.87,5.51,7.52,8.34,11.1,3.12,3.94,6.41,7.93,9.59,11.78,2.85,3.45,5.8,7.03,8.67,10.61,7.58,9.49,16.02,19.26,27.37,31.67,19.61,21.45,39.8,41.74,60,60.31,52.63,48.38,111.23,91.06,174.18,126.85,47.64,27.09,98.29,50.27,150.56,68.92,50.4,17.98,102.51,31.79,154.87,41.05,54.74,9.68,110.56,14.59,165.91,14.59,5.58,0,11.25-.05,16.84-.15,53.86-.95,107.7-6.48,160.05-16.43,36.51-6.94,72.37-15.96,106.58-26.79,10.99-3.48,22.65-7.41,35.63-12,14.46-5.12,27.79-10.26,40.74-15.71,3.86-1.63,7.79-3.24,11.58-4.8,3.1-1.27,6.21-2.55,9.3-3.84,1.25-.52,2.56-1.15,3.94-1.82.45-.22.91-.44,1.36-.65.58-.28,1.21-.6,1.87-.94,1.62-.84,3.45-1.78,5.57-2.54,4.67-1.66,9.2-3.99,13.39-6.26l.24-.13c1.92-1.04,4.1-2.22,6.56-3.17,6.63-2.55,12.9-6.05,19.55-9.75,2.6-1.45,5.27-2.94,7.99-4.38-12.29-21.46-25.01-43.59-37.83-65.83-.21.11-.41.23-.61.35Z"/>
    <path class="cls-4" d="M2254.04,441.14c66.69,27.82,129.9,63.88,187.89,107.17,12.39,9.25,24.94,19.16,38.33,30.26,15.36-16.92,32.04-35.3,51.96-57.27-.14-.12-.28-.24-.42-.36-46.8-39.44-97.59-74.48-150.96-104.15-46.33-25.75-94.72-47.7-143.83-65.25-49.22-17.59-100.56-31.24-152.58-40.59-54.84-9.86-110.96-14.85-166.81-14.85-13.2,0-26.61.28-39.86.83-41.1,1.71-84.15,6.46-127.94,14.13-6.34,1.11-12.63,2.41-17.4,3.42-3.2.68-6.48,1.42-9.65,2.13-4.96,1.12-10.09,2.28-15.25,3.27-11.79,2.26-23.34,5.35-36.15,8.85-25.78,7.05-53.21,15.79-86.34,27.49-.41.14-.82.28-1.23.43-1.13.39-2.2.76-3.02,1.14-6.42,2.97-12.98,5.49-19.33,7.92-5,1.92-9.72,3.73-14.41,5.75-13.15,5.68-25,10.83-36.84,16.42-14.27,6.74-29.14,14.29-45.45,23.08-30.49,16.44-60.23,34.66-88.38,54.17-50.35,34.89-97.23,74.48-139.31,117.65-37.9,38.88-72.89,81.67-104.17,127.38h95.73c43.25-55.6,93.59-106.14,149.69-150.28,33.13-26.07,68.55-49.89,105.29-70.79,12.16-6.92,25.01-13.86,39.29-21.22,8.89-4.58,17.94-8.84,26.39-12.75,3.31-1.54,6.66-2.95,9.9-4.33,3.99-1.69,7.76-3.29,11.44-5.08,8.35-4.05,16.94-7.38,25.25-10.6,1.56-.6,3.11-1.21,4.66-1.81,11.8-4.61,23.91-8.87,35.63-12.98,4.91-1.73,9.99-3.51,14.98-5.3l.32-.12.33-.09c2.93-.82,5.88-1.63,8.84-2.44,6.43-1.77,13.08-3.59,19.56-5.52,16.58-4.94,34.36-9.38,55.97-13.99,13.3-2.83,27.38-5.47,43.05-8.06,21.43-3.54,43.67-6.25,67.99-8.28,23.45-1.96,47.28-2.95,70.81-2.95,37.2,0,75.03,2.48,112.43,7.37,76.62,10.02,151.85,30.27,223.61,60.21Z"/>
  </g>
  <g>
    <path class="cls-3" d="M299.91,1722.74c-28.96,0-55.02-5.06-78.21-15.19-23.19-10.16-41.43-24.55-54.7-43.17-13.23-18.65-19.85-40.4-19.85-65.22h75.81c1.64,18.65,8.96,34,21.99,46,13.06,11.97,31.38,17.96,54.95,17.96s43.5-5.89,57.16-17.71c13.64-11.8,20.48-27,20.48-45.63,0-14.49-4.25-26.28-12.73-35.35-8.49-9.11-19.06-16.15-31.7-21.11-12.6-4.99-30.09-10.4-52.43-16.2-28.15-7.44-51.03-14.97-68.63-22.62-17.61-7.69-32.63-19.6-45.06-35.73-12.4-16.13-18.59-37.65-18.59-64.59,0-24.83,6.19-46.54,18.59-65.16,12.43-18.65,29.82-32.93,52.18-42.85,22.34-9.96,48.23-14.94,77.64-14.94,41.8,0,76.03,10.46,102.72,31.38,26.72,20.92,41.53,49.6,44.43,86.02h-78.21c-1.26-15.75-8.73-29.21-22.37-40.4-13.66-11.17-31.67-16.76-54.01-16.76-20.29,0-36.87,5.2-49.72,15.57-12.82,10.34-19.22,25.24-19.22,44.68,0,13.23,4.03,24.1,12.1,32.58,8.07,8.49,18.31,15.23,30.75,20.23,12.43,4.96,30.69,10.34,52.21,16.13,28.56,7.86,50.54,15.72,68.54,23.57,18.02,7.86,33.34,19.98,45.94,36.36,12.64,16.35,18.97,38.17,18.97,65.48,0,21.93-5.91,42.63-17.71,62.07-11.82,19.46-28.99,35.09-51.55,46.89-22.56,11.82-49.15,17.71-79.78,17.71Z"/>
    <path class="cls-3" d="M804.47,1286.84l-142.8,275.08v156.48h-70.77v-156.48l-143.43-275.08h78.84l101.24,211.74,98.72-211.74h78.21Z"/>
    <path class="cls-3" d="M1189.15,1718.39h-70.77l-213-322.28v322.28h-70.77v-432.18h70.77l213,321.65v-321.65h70.77v432.18Z"/>
    <path class="cls-3" d="M1567.29,1411.05c-11.19-21.55-26.7-37.81-46.57-48.78-19.88-10.97-42.85-16.45-68.94-16.45-28.53,0-53.99,6.43-76.38,19.28-22.36,12.82-39.86,31.04-52.49,54.64-12.6,23.57-18.91,50.89-18.91,81.92s6.3,58.48,18.91,82.3c12.64,23.79,30.14,42.1,52.49,54.95,22.39,12.82,47.85,19.22,76.38,19.22,38.52,0,69.78-10.74,93.77-32.27,24.03-21.51,38.73-50.68,44.11-87.53h-162.08v-56.53h237.83v55.27c-4.58,33.53-16.5,64.37-35.73,92.51-19.25,28.15-44.29,50.6-75.12,67.37-30.85,16.76-65.1,25.14-102.78,25.14-40.55,0-77.58-9.41-111.1-28.23-33.53-18.86-60.12-45.06-79.78-78.58-19.66-33.53-28.2-71.4-28.2-113.62s8.54-80.1,28.2-113.62c19.66-33.53,46.35-59.69,80.1-78.52,33.73-18.86,70.66-28.3,110.79-28.3,45.96,0,86.84,11.28,122.63,33.84,35.83,22.56,61.82,54.56,77.95,95.98h-85.08Z"/>
    <path class="cls-3" d="M1956.44,1629.6h-180.68l-31.01,88.16h-73.92l154.59-432.18h81.99l154.59,432.18h-74.49l-31.07-88.16ZM1936.59,1571.87l-70.14-200.59-70.83,200.59h140.97Z"/>
    <path class="cls-3" d="M2402.55,1414.77c0,21.93-5.2,42.63-15.57,62.07-10.34,19.46-26.89,35.29-49.66,47.52-22.78,12.19-51.96,18.28-87.53,18.28h-78.27v175.13h-70.77v-431.55h149.04c33.1,0,61.14,5.7,84.13,17.08,22.97,11.39,40.16,26.81,51.55,46.26,11.37,19.46,17.08,41.2,17.08,65.22ZM2249.79,1484.91c26.88,0,46.95-6.08,60.18-18.28,13.27-12.23,19.91-29.51,19.91-51.86,0-47.22-26.7-70.83-80.1-70.83h-78.27v140.97h78.27Z"/>
    <path class="cls-3" d="M2426.93,1350.88v-64.59h129.19v430.76h-71.4v-366.17h-57.79Z"/>
  </g>
  <g>
    <path class="cls-1" d="M147.16,994.61c0-41.75,9.72-79.19,29.18-112.33,19.45-33.17,45.84-59.06,79.18-77.69,33.36-18.65,69.9-27.98,109.6-27.98,45.45,0,85.89,11.17,121.28,33.5,35.41,22.3,61.1,53.92,77.04,94.84h-84.1c-11.03-22.49-26.38-39.27-46.03-50.3-19.66-11.06-42.39-16.6-68.19-16.6-28.23,0-53.41,6.35-75.5,19.04-22.11,12.7-39.4,30.92-51.89,54.67-12.5,23.73-18.74,51.34-18.74,82.86s6.24,59.15,18.74,82.91c12.49,23.73,29.79,42.04,51.89,54.92,22.09,12.9,47.27,19.33,75.5,19.33,25.81,0,48.54-5.52,68.19-16.55,19.65-11.06,34.99-27.85,46.03-50.35h84.1c-15.94,40.93-41.63,72.44-77.04,94.54-35.39,22.11-75.82,33.15-121.28,33.15-40.1,0-76.73-9.31-109.9-27.93-33.14-18.61-59.43-44.5-78.88-77.64-19.46-33.17-29.18-70.63-29.18-112.38Z"/>
    <path class="cls-1" d="M680.34,782.17v271.98c0,32.34,8.5,56.7,25.5,73.07,17,16.38,40.63,24.55,70.93,24.55s54.53-8.18,71.52-24.55c17-16.37,25.5-40.72,25.5-73.07v-271.98h69.98v270.74c0,34.79-7.58,64.27-22.71,88.42-15.15,24.16-35.41,42.17-60.79,54.03-25.39,11.87-53.43,17.79-84.15,17.79s-58.63-5.93-83.8-17.79c-25.15-11.85-45.11-29.87-59.84-54.03-14.75-24.16-22.12-53.63-22.12-88.42v-270.74h69.98Z"/>
    <path class="cls-1" d="M1223.82,1208.88l-98.27-170.68h-53.38v170.68h-70.03v-426.71h147.37c32.73,0,60.47,5.74,83.2,17.2,22.73,11.43,39.71,26.78,50.95,46.03,11.26,19.26,16.9,40.74,16.9,64.47,0,27.83-8.09,53.12-24.26,75.85-16.18,22.7-41.04,38.15-74.61,46.32l105.62,176.85h-83.5ZM1072.17,982.33h77.34c26.21,0,45.95-6.54,59.25-19.63,13.32-13.12,19.98-30.73,19.98-52.84s-6.56-39.39-19.68-51.89c-13.1-12.49-32.94-18.74-59.55-18.74h-77.34v143.1Z"/>
    <path class="cls-1" d="M1431.08,838.63v125.25h147.32v57.11h-147.32v130.77h165.76v57.11h-235.8v-427.36h235.8v57.11h-165.76Z"/>
  </g>
</svg>