<?xml version="1.0" encoding="UTF-8" standalone="no"?><!DOCTYPE svg PUBLIC "-//W3C//DTD SVG 1.1//EN" "http://www.w3.org/Graphics/SVG/1.1/DTD/svg11.dtd"><svg width="100%" height="100%" viewBox="0 0 2761 1644" version="1.1" xmlns="http://www.w3.org/2000/svg" xmlns:xlink="http://www.w3.org/1999/xlink" xml:space="preserve" xmlns:serif="http://www.serif.com/" style="fill-rule:evenodd;clip-rule:evenodd;stroke-linejoin:round;stroke-miterlimit:2;"><rect id="Artboard1" x="0" y="0" width="2760.1" height="1643.69" style="fill:none;"/><clipPath id="_clip1"><rect x="0" y="0" width="2760.1" height="1643.69"/></clipPath><g clip-path="url(#_clip1)"><g><g><g><path d="M2206.55,676.625C2209.61,653.717 2211.33,630.173 2211.67,606.662C2211.86,593.228 2211.54,579.409 2210.72,565.59C2209.89,551.648 2208.82,540.057 2207.35,529.114C2207.06,526.923 2206.78,524.708 2206.51,522.566C2206.13,519.506 2205.74,516.342 2205.29,513.269C2204.6,508.539 2203.78,503.563 2202.72,497.608C2202.01,493.575 2201.21,489.462 2200.44,485.484C2200.17,484.119 2199.9,482.749 2199.64,481.378C2199.49,480.576 2199.31,479.811 2199.12,479.101C2198.32,476.12 2197.68,473.134 2197.06,470.245C2196.24,466.457 2195.48,462.883 2194.39,459.407C2194.07,458.378 2193.91,457.418 2193.78,456.646C2193.72,456.285 2193.66,455.949 2193.61,455.692L2193.46,455.049C2193.2,453.892 2192.95,452.803 2192.65,451.812C2190.31,444.186 2187.9,436.395 2185.57,428.861L2183.29,421.493L2181.04,414.657C2178.44,406.817 2175.76,398.708 2173.1,390.696C2172.77,389.711 2172.36,388.671 2171.9,387.618C2170.37,384.178 2168.99,380.678 2167.64,377.293C2166.18,373.603 2164.8,370.121 2163.24,366.675C2162.93,365.99 2162.7,365.347 2162.49,364.778C2162.33,364.343 2162.19,363.933 2162.05,363.639C2160.01,359.264 2157.93,354.888 2155.93,350.659C2155.14,348.988 2154.35,347.317 2153.57,345.64C2151.74,341.736 2149.86,337.696 2147.89,333.841C2147.68,333.425 2147.46,333.015 2147.25,332.605C2147.13,332.384 2147.01,332.158 2146.89,331.937C2143.73,326.289 2140.55,320.634 2137.34,314.93L2133.88,308.761L2130.51,303.032C2127.14,297.304 2123.75,291.527 2120.34,285.737C2118.74,283.234 2117.31,281 2115.94,278.901C2108.62,267.683 2100.66,256.403 2092.28,245.375L2092.23,245.302L2092.16,245.216L2092.16,245.204L2092.14,245.191C2089.42,241.617 2086.62,238.019 2083.83,234.512C2079.38,228.918 2074.64,223.214 2069.75,217.559L2068.82,216.488L2068.53,216.145C2063.62,210.503 2058.5,204.842 2053.31,199.327C2049.04,194.78 2044.51,190.264 2040.13,185.9C2038.94,184.707 2037.75,183.513 2036.55,182.32C2034.85,184.174 2033.14,186.059 2031.47,187.889L2031.11,188.299L2025.1,194.921C2018.66,202.014 2012.02,209.34 2005.49,216.574C2014.38,225.313 2022.03,233.404 2028.8,241.226C2029.43,241.966 2030.08,242.701 2030.72,243.435L2031.09,243.863C2031.88,244.763 2032.68,245.675 2033.48,246.593C2036.2,249.702 2039.31,253.245 2042.26,256.795C2044.6,259.604 2046.86,262.499 2049.04,265.302C2050.55,267.242 2052.11,269.243 2053.66,271.171C2056.2,274.317 2058.49,277.499 2060.82,280.755C2062.52,283.136 2064.3,285.553 2066.01,287.885C2067.41,289.782 2068.86,291.747 2070.26,293.699C2070.99,294.709 2071.6,295.731 2072.15,296.637C2072.37,297.016 2072.6,297.396 2072.84,297.775C2072.99,298.008 2073.13,298.246 2073.27,298.485C2073.38,298.656 2073.5,298.828 2073.62,298.993C2073.82,299.293 2074.03,299.593 2074.23,299.893C2074.34,300.07 2074.46,300.248 2074.58,300.425L2074.72,300.639C2077.83,304.532 2080.28,308.687 2082.66,312.714C2083.13,313.498 2083.59,314.287 2084.06,315.071L2084.14,315.211L2084.22,315.334C2085.54,317.47 2086.87,319.636 2088.14,321.784C2089.12,323.351 2089.89,324.557 2090.64,325.689C2092.85,329.055 2094.77,332.562 2096.63,335.946C2096.93,336.497 2097.23,337.042 2097.53,337.592C2098.37,339.11 2099.14,340.634 2099.88,342.109C2100.88,344.086 2101.82,345.952 2102.87,347.709C2105.76,352.556 2108.16,357.593 2110.48,362.471C2112.02,365.696 2113.61,369.025 2115.28,372.171C2115.61,372.777 2115.83,373.34 2115.99,373.75C2116.04,373.872 2116.09,373.995 2116.14,374.117L2118.3,379.105C2119.64,382.183 2120.98,385.256 2122.31,388.334C2122.8,389.466 2123.32,390.629 2123.82,391.749C2125.05,394.503 2126.33,397.355 2127.43,400.305L2128.78,403.885C2131.73,411.749 2134.79,419.883 2137.56,428.023C2143.33,445.018 2148.42,463.134 2152.69,481.867C2157.91,504.793 2161.62,528.796 2163.72,553.215C2165.78,577.206 2166.22,601.49 2165.03,625.4C2163.45,657.255 2159.03,689.128 2151.91,720.133C2146.48,743.744 2139.39,767.171 2130.82,789.755C2113.84,834.523 2091.13,876.66 2063.31,915.002C2049.85,933.564 2034.83,951.637 2018.69,968.724C2008.08,979.961 1996.72,990.934 1984.92,1001.33C1976.39,1008.85 1969.28,1014.76 1962.52,1019.94C1961.23,1020.94 1959.91,1021.99 1958.63,1023C1955.73,1025.33 1952.71,1027.73 1949.43,1029.89C1949.29,1029.98 1949.05,1030.18 1948.81,1030.36C1948.55,1030.57 1948.25,1030.81 1947.92,1031.05C1945.98,1032.47 1944.04,1033.89 1942.09,1035.3C1941.25,1035.91 1940.34,1036.56 1939.32,1037.28C1938.77,1037.67 1938.22,1038.06 1937.66,1038.44C1935.98,1039.64 1934.23,1040.87 1932.47,1042.08C1931.78,1042.55 1931.1,1042.96 1930.5,1043.32C1930.38,1043.39 1930.25,1043.47 1930.13,1043.54C1929.6,1043.9 1929.07,1044.26 1928.54,1044.62C1925.09,1047.4 1921.43,1049.61 1917.88,1051.74L1916.96,1052.3C1916.64,1052.49 1916.33,1052.68 1916.01,1052.87C1915.94,1052.91 1915.87,1052.95 1915.79,1053C1923.5,1066.41 1931.21,1079.83 1938.92,1093.24C1940.46,1092.32 1942,1091.39 1943.53,1090.46C1951.79,1085.17 1960.06,1079.57 1968.13,1073.8C1982.16,1063.78 1996.18,1052.72 2009.83,1040.95C2025.23,1027.65 2039.98,1013.5 2053.66,998.878C2066.54,985.114 2079.06,970.346 2090.87,954.997C2108.27,932.371 2124.14,908.19 2138.05,883.116C2155.86,851.004 2170.61,817.436 2181.88,783.347C2193.47,748.309 2201.76,712.409 2206.54,676.631L2206.55,676.625Z" style="fill:white;fill-rule:nonzero;"/><path d="M1877.01,1075.26C1873.23,1077.47 1869.32,1079.28 1865.54,1081.03C1862.23,1082.56 1859.11,1084 1856.12,1085.68C1855.58,1085.99 1855.08,1086.19 1854.75,1086.32C1854.69,1086.34 1854.63,1086.36 1854.57,1086.39C1853.08,1087.03 1851.58,1087.66 1850.12,1088.27C1846.8,1089.67 1843.67,1090.99 1840.56,1092.46C1835.64,1094.8 1830.58,1096.76 1825.69,1098.65C1824.22,1099.22 1822.75,1099.79 1821.29,1100.37C1816.36,1102.31 1811.32,1104.03 1806.45,1105.69C1804.58,1106.32 1802.64,1106.98 1800.75,1107.64C1784.6,1113.26 1767.17,1118.16 1747.48,1122.63C1709.46,1131.25 1670.08,1135.61 1630.43,1135.61L1629.85,1135.61C1596.95,1135.58 1563.81,1132.45 1531.34,1126.32C1501.56,1120.7 1472.35,1112.64 1444.53,1102.37C1392.52,1083.16 1344.1,1056.31 1300.61,1022.55C1281.4,1007.63 1262.88,991.075 1245.56,973.339C1238.05,965.64 1230.43,957.286 1222.94,948.51C1218.05,942.793 1212.86,936.643 1207.98,930.363C1207.65,929.947 1207.33,929.531 1207.01,929.115L1149.35,929.115C1149.77,929.703 1150.17,930.29 1150.58,930.878L1152.29,933.338C1152.54,933.699 1152.78,934.06 1153.03,934.427C1153.5,935.119 1153.94,935.768 1154.39,936.373C1156.39,939.091 1158.41,941.796 1160.43,944.507C1161.39,945.786 1162.34,947.071 1163.3,948.35C1164.1,949.434 1164.91,950.529 1165.7,951.619C1167.43,953.987 1169.07,956.221 1170.81,958.412C1172.71,960.823 1174.73,963.265 1176.67,965.621C1178.42,967.733 1180.23,969.924 1181.98,972.115C1186.62,977.923 1191.79,983.902 1198.73,991.497C1210.73,1004.62 1223.09,1017.04 1235.45,1028.41C1267.66,1058.02 1303.53,1084.14 1342.05,1106.04C1371.21,1122.62 1402.21,1136.81 1434.2,1148.22C1465.04,1159.22 1496.93,1167.68 1528.98,1173.34C1562.48,1179.27 1596.64,1182.27 1630.52,1182.27C1633.93,1182.27 1637.4,1182.24 1640.82,1182.18C1673.79,1181.6 1706.74,1178.21 1738.77,1172.12C1761.12,1167.88 1783.07,1162.36 1804,1155.73C1810.73,1153.6 1817.86,1151.19 1825.81,1148.38C1834.66,1145.25 1842.82,1142.11 1850.74,1138.77C1853.1,1137.77 1855.51,1136.79 1857.83,1135.83C1859.73,1135.06 1861.63,1134.27 1863.52,1133.48C1864.29,1133.16 1865.09,1132.78 1865.93,1132.37C1866.21,1132.23 1866.49,1132.1 1866.76,1131.97C1867.12,1131.8 1867.5,1131.6 1867.91,1131.4C1868.9,1130.88 1870.02,1130.31 1871.32,1129.84C1874.17,1128.83 1876.95,1127.4 1879.51,1126.01L1879.66,1125.93C1880.83,1125.29 1882.17,1124.57 1883.67,1123.99C1887.73,1122.43 1891.57,1120.29 1895.64,1118.02C1897.23,1117.14 1898.86,1116.22 1900.53,1115.34C1893.01,1102.21 1885.22,1088.67 1877.38,1075.05C1877.25,1075.12 1877.12,1075.19 1877,1075.27L1877.01,1075.26Z" style="fill:white;fill-rule:nonzero;"/><path d="M1834.23,103.438C1875.04,120.464 1913.73,142.533 1949.22,169.027C1956.8,174.688 1964.48,180.753 1972.68,187.546C1982.08,177.191 1992.29,165.942 2004.48,152.497C2004.39,152.423 2004.31,152.35 2004.22,152.276C1975.58,128.139 1944.49,106.694 1911.83,88.536C1883.48,72.776 1853.86,59.343 1823.81,48.602C1793.68,37.837 1762.26,29.483 1730.43,23.761C1696.86,17.726 1662.52,14.672 1628.34,14.672C1620.26,14.672 1612.05,14.844 1603.94,15.18C1578.79,16.227 1552.44,19.134 1525.64,23.828C1521.76,24.507 1517.91,25.303 1514.99,25.921C1513.04,26.337 1511.03,26.79 1509.09,27.225C1506.05,27.91 1502.91,28.62 1499.75,29.226C1492.54,30.609 1485.47,32.5 1477.63,34.642C1461.85,38.957 1445.07,44.306 1424.79,51.466C1424.54,51.552 1424.29,51.638 1424.04,51.729C1423.35,51.968 1422.69,52.195 1422.19,52.427C1418.26,54.245 1414.24,55.787 1410.36,57.274C1407.3,58.449 1404.41,59.557 1401.54,60.793C1393.49,64.269 1386.24,67.421 1378.99,70.842C1370.26,74.967 1361.16,79.588 1351.18,84.968C1332.52,95.029 1314.32,106.18 1297.09,118.12C1266.27,139.473 1237.58,163.702 1211.83,190.123C1188.63,213.918 1167.22,240.106 1148.08,268.081L1206.66,268.081C1233.13,234.053 1263.94,203.122 1298.28,176.108C1318.55,160.153 1340.23,145.575 1362.71,132.784C1370.15,128.549 1378.02,124.301 1386.76,119.797C1392.2,116.994 1397.74,114.387 1402.91,111.994C1404.94,111.051 1406.99,110.188 1408.97,109.344C1411.41,108.31 1413.72,107.33 1415.97,106.235C1421.08,103.756 1426.34,101.718 1431.42,99.748C1432.38,99.38 1433.33,99.007 1434.28,98.64C1441.5,95.819 1448.91,93.211 1456.08,90.696C1459.09,89.637 1462.19,88.548 1465.25,87.452L1465.44,87.379L1465.65,87.324C1467.44,86.822 1469.25,86.326 1471.06,85.831C1474.99,84.747 1479.06,83.633 1483.03,82.452C1493.17,79.429 1504.06,76.712 1517.28,73.89C1525.42,72.158 1534.04,70.543 1543.63,68.957C1556.74,66.791 1570.36,65.132 1585.24,63.89C1599.59,62.691 1614.17,62.085 1628.58,62.085C1651.34,62.085 1674.5,63.602 1697.38,66.595C1744.28,72.727 1790.32,85.121 1834.24,103.444L1834.23,103.438Z" style="fill:white;fill-rule:nonzero;"/><path d="M638.284,887.786C620.561,887.786 604.612,884.689 590.419,878.49C576.227,872.272 565.064,863.465 556.942,852.069C548.846,840.655 544.794,827.344 544.794,812.154L591.19,812.154C592.194,823.568 596.674,832.962 604.649,840.306C612.641,847.632 623.853,851.298 638.278,851.298C652.703,851.298 664.901,847.693 673.261,840.459C681.609,833.238 685.795,823.935 685.795,812.534C685.795,803.666 683.194,796.45 678.004,790.899C672.808,785.324 666.339,781.015 658.603,777.98C650.892,774.926 640.188,771.615 626.516,768.065C609.288,763.512 595.285,758.903 584.513,754.221C573.736,749.515 564.544,742.226 556.936,732.354C549.347,722.483 545.559,709.312 545.559,692.825C545.559,677.629 549.347,664.342 556.936,652.946C564.544,641.532 575.186,632.793 588.871,626.722C602.543,620.626 618.388,617.578 636.387,617.578C661.969,617.578 682.918,623.98 699.253,636.783C715.606,649.586 724.669,667.139 726.444,689.428L678.579,689.428C677.808,679.789 673.236,671.551 664.888,664.703C656.528,657.867 645.506,654.446 631.834,654.446C619.416,654.446 609.269,657.628 601.405,663.975C593.559,670.303 589.642,679.422 589.642,691.319C589.642,699.416 592.108,706.069 597.047,711.258C601.986,716.454 608.253,720.579 615.867,723.639C623.474,726.675 634.649,729.967 647.82,733.511C665.299,738.321 678.75,743.132 689.767,747.936C700.795,752.746 710.171,760.164 717.882,770.189C725.618,780.195 729.492,793.549 729.492,810.263C729.492,823.684 725.875,836.353 718.653,848.25C711.419,860.16 700.911,869.726 687.104,876.947C673.297,884.181 657.024,887.786 638.278,887.786L638.284,887.786Z" style="fill:white;fill-rule:nonzero;"/><path d="M947.079,621.012L859.685,789.363L859.685,885.13L816.373,885.13L816.373,789.363L728.592,621.012L776.843,621.012L838.803,750.598L899.22,621.012L947.086,621.012L947.079,621.012Z" style="fill:white;fill-rule:nonzero;"/><path d="M1182.51,885.124L1139.19,885.124L1008.84,687.886L1008.84,885.124L965.525,885.124L965.525,620.626L1008.84,620.626L1139.19,817.479L1139.19,620.626L1182.51,620.626L1182.51,885.124Z" style="fill:white;fill-rule:nonzero;"/><path d="M1413.93,697.029C1407.08,683.84 1397.59,673.889 1385.43,667.175C1373.26,660.462 1359.21,657.108 1343.24,657.108C1325.78,657.108 1310.2,661.043 1296.49,668.907C1282.81,676.753 1272.1,687.904 1264.37,702.348C1256.66,716.773 1252.8,733.493 1252.8,752.483C1252.8,771.474 1256.65,788.274 1264.37,802.852C1272.11,817.411 1282.82,828.617 1296.49,836.481C1310.2,844.327 1325.78,848.244 1343.24,848.244C1366.81,848.244 1385.94,841.671 1400.63,828.495C1415.33,815.33 1424.33,797.478 1427.62,774.926L1328.43,774.926L1328.43,740.329L1473.98,740.329L1473.98,774.154C1471.18,794.675 1463.88,813.549 1452.12,830.771C1440.33,847.999 1425.01,861.739 1406.14,872.002C1387.26,882.26 1366.3,887.388 1343.24,887.388C1318.42,887.388 1295.76,881.629 1275.25,870.111C1254.72,858.569 1238.45,842.534 1226.42,822.02C1214.39,801.499 1209.16,778.322 1209.16,752.483C1209.16,726.644 1214.39,703.461 1226.42,682.947C1238.45,662.426 1254.79,646.416 1275.44,634.892C1296.08,623.35 1318.68,617.572 1343.25,617.572C1371.37,617.572 1396.39,624.476 1418.3,638.283C1440.22,652.089 1456.13,671.674 1466,697.023L1413.93,697.023L1413.93,697.029Z" style="fill:white;fill-rule:nonzero;"/><path d="M1652.1,830.784L1541.52,830.784L1522.54,884.738L1477.3,884.738L1571.91,620.241L1622.09,620.241L1716.7,884.738L1671.11,884.738L1652.1,830.784ZM1639.95,795.452L1597.02,672.69L1553.67,795.452L1639.95,795.452Z" style="fill:white;fill-rule:nonzero;"/><path d="M1925.12,699.306C1925.12,712.727 1921.94,725.396 1915.59,737.293C1909.26,749.203 1899.13,758.891 1885.2,766.376C1871.26,773.836 1853.4,777.563 1831.63,777.563L1783.73,777.563L1783.73,884.744L1740.41,884.744L1740.41,620.632L1831.63,620.632C1851.88,620.632 1869.05,624.121 1883.12,631.085C1897.17,638.056 1907.69,647.493 1914.66,659.397C1921.62,671.306 1925.12,684.612 1925.12,699.312L1925.12,699.306ZM1831.63,742.232C1848.08,742.232 1860.36,738.511 1868.46,731.045C1876.58,723.56 1880.64,712.984 1880.64,699.306C1880.64,670.407 1864.3,655.957 1831.62,655.957L1783.72,655.957L1783.72,742.232L1831.63,742.232Z" style="fill:white;fill-rule:nonzero;"/><path d="M1940.04,660.205L1940.04,620.675L2019.1,620.675L2019.1,884.304L1975.41,884.304L1975.41,660.205L1940.04,660.205Z" style="fill:white;fill-rule:nonzero;"/><path d="M544.8,442.166C544.8,416.615 550.749,393.701 562.659,373.419C574.562,353.119 590.713,337.274 611.117,325.872C631.534,314.458 653.897,308.748 678.194,308.748C706.009,308.748 730.759,315.585 752.418,329.251C774.089,342.899 789.812,362.25 799.567,387.294L748.097,387.294C741.347,373.53 731.952,363.26 719.926,356.51C707.894,349.741 693.983,346.35 678.194,346.35C660.917,346.35 645.506,350.237 631.987,358.003C618.455,365.775 607.874,376.926 600.23,391.461C592.58,405.984 588.761,422.882 588.761,442.172C588.761,461.463 592.58,478.373 600.23,492.914C607.874,507.437 618.462,518.643 631.987,526.526C645.506,534.42 660.917,538.356 678.194,538.356C693.989,538.356 707.9,534.977 719.926,528.227C731.952,521.458 741.341,511.182 748.097,497.412L799.567,497.412C789.812,522.462 774.089,541.746 752.418,555.272C730.759,568.803 706.015,575.56 678.194,575.56C653.652,575.56 631.234,569.862 610.934,558.466C590.652,547.077 574.562,531.232 562.659,510.95C550.749,490.65 544.8,467.724 544.8,442.172L544.8,442.166Z" style="fill:white;fill-rule:nonzero;"/><path d="M871.111,312.151L871.111,478.605C871.111,498.398 876.313,513.306 886.717,523.325C897.121,533.349 911.583,538.35 930.127,538.35C948.671,538.35 963.5,533.343 973.898,523.325C984.302,513.306 989.504,498.404 989.504,478.605L989.504,312.151L1032.33,312.151L1032.33,477.846C1032.33,499.138 1027.69,517.18 1018.43,531.96C1009.16,546.746 996.762,557.769 981.229,565.027C965.691,572.291 948.53,575.915 929.729,575.915C910.928,575.915 893.847,572.285 878.443,565.027C863.051,557.775 850.835,546.746 841.82,531.96C832.793,517.174 828.282,499.138 828.282,477.846L828.282,312.151L871.111,312.151Z" style="fill:white;fill-rule:nonzero;"/><path d="M1203.73,573.301L1143.58,468.844L1110.91,468.844L1110.91,573.301L1068.06,573.301L1068.06,312.151L1158.25,312.151C1178.28,312.151 1195.26,315.664 1209.17,322.678C1223.08,329.673 1233.47,339.067 1240.35,350.849C1247.24,362.636 1250.69,375.782 1250.69,390.305C1250.69,407.337 1245.74,422.815 1235.84,436.726C1225.94,450.618 1210.73,460.074 1190.18,465.074L1254.82,573.307L1203.72,573.307L1203.73,573.301ZM1110.91,434.651L1158.25,434.651C1174.29,434.651 1186.37,430.648 1194.51,422.637C1202.66,414.608 1206.74,403.83 1206.74,390.299C1206.74,376.767 1202.72,366.192 1194.69,358.541C1186.67,350.897 1174.53,347.072 1158.25,347.072L1110.91,347.072L1110.91,434.651Z" style="fill:white;fill-rule:nonzero;"/><path d="M1330.57,346.699L1330.57,423.359L1420.73,423.359L1420.73,458.311L1330.57,458.311L1330.57,538.343L1432.02,538.343L1432.02,573.295L1287.7,573.295L1287.7,311.747L1432.02,311.747L1432.02,346.699L1330.57,346.699Z" style="fill:white;fill-rule:nonzero;"/></g><g transform="matrix(1.22646,0,0,1.22646,-798.312,-281.044)"><g transform="matrix(200,0,0,200,862.385,1362.5)"><path d="M0.484,-0.695L0.484,-0.602L0.189,-0.602L0.189,-0.397L0.419,-0.397L0.419,-0.304L0.189,-0.304L0.189,-0L0.075,-0L0.075,-0.695L0.484,-0.695Z" style="fill:white;fill-rule:nonzero;"/></g><g transform="matrix(200,0,0,200,961.385,1362.5)"><path d="M0.314,0.009C0.262,0.009 0.215,-0.003 0.173,-0.027C0.131,-0.05 0.098,-0.084 0.074,-0.127C0.05,-0.169 0.038,-0.219 0.038,-0.276C0.038,-0.332 0.05,-0.382 0.075,-0.425C0.1,-0.468 0.133,-0.502 0.176,-0.525C0.219,-0.548 0.266,-0.56 0.319,-0.56C0.372,-0.56 0.419,-0.548 0.462,-0.525C0.505,-0.502 0.538,-0.468 0.563,-0.425C0.588,-0.382 0.6,-0.332 0.6,-0.276C0.6,-0.22 0.587,-0.17 0.562,-0.127C0.537,-0.084 0.502,-0.05 0.459,-0.027C0.415,-0.003 0.367,0.009 0.314,0.009ZM0.314,-0.09C0.343,-0.09 0.371,-0.097 0.397,-0.111C0.422,-0.125 0.443,-0.146 0.459,-0.174C0.475,-0.202 0.483,-0.236 0.483,-0.276C0.483,-0.316 0.475,-0.35 0.46,-0.378C0.445,-0.405 0.424,-0.426 0.399,-0.44C0.374,-0.454 0.346,-0.461 0.317,-0.461C0.288,-0.461 0.261,-0.454 0.236,-0.44C0.211,-0.426 0.191,-0.405 0.176,-0.378C0.161,-0.35 0.154,-0.316 0.154,-0.276C0.154,-0.217 0.169,-0.171 0.2,-0.139C0.23,-0.106 0.268,-0.09 0.314,-0.09Z" style="fill:white;fill-rule:nonzero;"/></g><g transform="matrix(200,0,0,200,1084.98,1362.5)"><path d="M0.189,-0.471C0.206,-0.499 0.228,-0.521 0.256,-0.537C0.283,-0.552 0.316,-0.56 0.354,-0.56L0.354,-0.442L0.325,-0.442C0.28,-0.442 0.247,-0.431 0.224,-0.408C0.201,-0.385 0.189,-0.346 0.189,-0.29L0.189,-0L0.075,-0L0.075,-0.551L0.189,-0.551L0.189,-0.471Z" style="fill:white;fill-rule:nonzero;"/></g><g transform="matrix(200,0,0,200,1157.78,1362.5)"><path d="M0.742,-0.56C0.785,-0.56 0.824,-0.551 0.859,-0.533C0.893,-0.515 0.92,-0.488 0.94,-0.453C0.959,-0.418 0.969,-0.375 0.969,-0.325L0.969,-0L0.856,-0L0.856,-0.308C0.856,-0.357 0.844,-0.395 0.819,-0.422C0.794,-0.448 0.761,-0.461 0.718,-0.461C0.675,-0.461 0.642,-0.448 0.617,-0.422C0.592,-0.395 0.579,-0.357 0.579,-0.308L0.579,-0L0.466,-0L0.466,-0.308C0.466,-0.357 0.454,-0.395 0.429,-0.422C0.404,-0.448 0.371,-0.461 0.328,-0.461C0.285,-0.461 0.252,-0.448 0.227,-0.422C0.202,-0.395 0.189,-0.357 0.189,-0.308L0.189,-0L0.075,-0L0.075,-0.551L0.189,-0.551L0.189,-0.488C0.208,-0.511 0.231,-0.528 0.26,-0.541C0.289,-0.554 0.319,-0.56 0.352,-0.56C0.396,-0.56 0.435,-0.551 0.47,-0.532C0.505,-0.513 0.531,-0.486 0.55,-0.451C0.567,-0.484 0.593,-0.511 0.628,-0.531C0.663,-0.55 0.701,-0.56 0.742,-0.56Z" style="fill:white;fill-rule:nonzero;"/></g><g transform="matrix(200,0,0,200,1361.58,1362.5)"><path d="M0.58,-0.289C0.58,-0.268 0.579,-0.25 0.576,-0.233L0.155,-0.233C0.158,-0.189 0.175,-0.154 0.204,-0.127C0.233,-0.1 0.269,-0.087 0.312,-0.087C0.373,-0.087 0.417,-0.113 0.442,-0.164L0.565,-0.164C0.548,-0.113 0.518,-0.072 0.475,-0.04C0.431,-0.007 0.377,0.009 0.312,0.009C0.259,0.009 0.212,-0.003 0.171,-0.027C0.129,-0.05 0.096,-0.084 0.073,-0.127C0.049,-0.169 0.037,-0.219 0.037,-0.276C0.037,-0.333 0.049,-0.383 0.072,-0.426C0.094,-0.468 0.127,-0.502 0.169,-0.525C0.21,-0.548 0.258,-0.56 0.312,-0.56C0.364,-0.56 0.41,-0.549 0.451,-0.526C0.492,-0.503 0.523,-0.471 0.546,-0.431C0.569,-0.389 0.58,-0.342 0.58,-0.289ZM0.461,-0.325C0.46,-0.367 0.445,-0.401 0.416,-0.426C0.387,-0.451 0.35,-0.464 0.307,-0.464C0.268,-0.464 0.234,-0.452 0.206,-0.427C0.178,-0.401 0.161,-0.368 0.156,-0.325L0.461,-0.325Z" style="fill:white;fill-rule:nonzero;"/></g><g transform="matrix(200,0,0,200,1480.98,1362.5)"><path d="M0.189,-0.471C0.206,-0.499 0.228,-0.521 0.256,-0.537C0.283,-0.552 0.316,-0.56 0.354,-0.56L0.354,-0.442L0.325,-0.442C0.28,-0.442 0.247,-0.431 0.224,-0.408C0.201,-0.385 0.189,-0.346 0.189,-0.29L0.189,-0L0.075,-0L0.075,-0.551L0.189,-0.551L0.189,-0.471Z" style="fill:white;fill-rule:nonzero;"/></g><g transform="matrix(200,0,0,200,1553.78,1362.5)"><rect x="0.075" y="-0.74" width="0.114" height="0.74" style="fill:white;fill-rule:nonzero;"/></g><g transform="matrix(200,0,0,200,1602.58,1362.5)"><path d="M0.571,-0.551L0.233,0.259L0.115,0.259L0.227,-0.009L0.01,-0.551L0.137,-0.551L0.292,-0.131L0.453,-0.551L0.571,-0.551Z" style="fill:white;fill-rule:nonzero;"/></g><g transform="matrix(200,0,0,200,1762.98,1362.5)"><path d="M0.293,-0.275L0.547,-0L0.393,-0L0.189,-0.237L0.189,-0L0.075,-0L0.075,-0.74L0.189,-0.74L0.189,-0.31L0.389,-0.551L0.547,-0.551L0.293,-0.275Z" style="fill:white;fill-rule:nonzero;"/></g><g transform="matrix(200,0,0,200,1869.78,1362.5)"><path d="M0.353,-0.56C0.396,-0.56 0.435,-0.551 0.47,-0.533C0.504,-0.515 0.531,-0.488 0.55,-0.453C0.569,-0.418 0.579,-0.375 0.579,-0.325L0.579,-0L0.466,-0L0.466,-0.308C0.466,-0.357 0.454,-0.395 0.429,-0.422C0.404,-0.448 0.371,-0.461 0.328,-0.461C0.285,-0.461 0.252,-0.448 0.227,-0.422C0.202,-0.395 0.189,-0.357 0.189,-0.308L0.189,-0L0.075,-0L0.075,-0.551L0.189,-0.551L0.189,-0.488C0.208,-0.511 0.232,-0.528 0.261,-0.541C0.29,-0.554 0.32,-0.56 0.353,-0.56Z" style="fill:white;fill-rule:nonzero;"/></g><g transform="matrix(200,0,0,200,1995.58,1362.5)"><path d="M0.314,0.009C0.262,0.009 0.215,-0.003 0.173,-0.027C0.131,-0.05 0.098,-0.084 0.074,-0.127C0.05,-0.169 0.038,-0.219 0.038,-0.276C0.038,-0.332 0.05,-0.382 0.075,-0.425C0.1,-0.468 0.133,-0.502 0.176,-0.525C0.219,-0.548 0.266,-0.56 0.319,-0.56C0.372,-0.56 0.419,-0.548 0.462,-0.525C0.505,-0.502 0.538,-0.468 0.563,-0.425C0.588,-0.382 0.6,-0.332 0.6,-0.276C0.6,-0.22 0.587,-0.17 0.562,-0.127C0.537,-0.084 0.502,-0.05 0.459,-0.027C0.415,-0.003 0.367,0.009 0.314,0.009ZM0.314,-0.09C0.343,-0.09 0.371,-0.097 0.397,-0.111C0.422,-0.125 0.443,-0.146 0.459,-0.174C0.475,-0.202 0.483,-0.236 0.483,-0.276C0.483,-0.316 0.475,-0.35 0.46,-0.378C0.445,-0.405 0.424,-0.426 0.399,-0.44C0.374,-0.454 0.346,-0.461 0.317,-0.461C0.288,-0.461 0.261,-0.454 0.236,-0.44C0.211,-0.426 0.191,-0.405 0.176,-0.378C0.161,-0.35 0.154,-0.316 0.154,-0.276C0.154,-0.217 0.169,-0.171 0.2,-0.139C0.23,-0.106 0.268,-0.09 0.314,-0.09Z" style="fill:white;fill-rule:nonzero;"/></g><g transform="matrix(200,0,0,200,2119.18,1362.5)"><path d="M0.815,-0.551L0.644,-0L0.524,-0L0.413,-0.407L0.302,-0L0.182,-0L0.01,-0.551L0.126,-0.551L0.241,-0.108L0.358,-0.551L0.477,-0.551L0.589,-0.11L0.703,-0.551L0.815,-0.551Z" style="fill:white;fill-rule:nonzero;"/></g><g transform="matrix(200,0,0,200,2280.18,1362.5)"><path d="M0.353,-0.56C0.396,-0.56 0.435,-0.551 0.47,-0.533C0.504,-0.515 0.531,-0.488 0.55,-0.453C0.569,-0.418 0.579,-0.375 0.579,-0.325L0.579,-0L0.466,-0L0.466,-0.308C0.466,-0.357 0.454,-0.395 0.429,-0.422C0.404,-0.448 0.371,-0.461 0.328,-0.461C0.285,-0.461 0.252,-0.448 0.227,-0.422C0.202,-0.395 0.189,-0.357 0.189,-0.308L0.189,-0L0.075,-0L0.075,-0.551L0.189,-0.551L0.189,-0.488C0.208,-0.511 0.232,-0.528 0.261,-0.541C0.29,-0.554 0.32,-0.56 0.353,-0.56Z" style="fill:white;fill-rule:nonzero;"/></g><g transform="matrix(200,0,0,200,2453.98,1362.5)"><path d="M0.037,-0.278C0.037,-0.333 0.049,-0.382 0.072,-0.425C0.094,-0.468 0.126,-0.501 0.166,-0.525C0.205,-0.548 0.249,-0.56 0.297,-0.56C0.34,-0.56 0.378,-0.552 0.411,-0.535C0.443,-0.518 0.469,-0.496 0.488,-0.471L0.488,-0.551L0.603,-0.551L0.603,-0L0.488,-0L0.488,-0.082C0.469,-0.056 0.442,-0.034 0.409,-0.017C0.376,0 0.338,0.009 0.295,0.009C0.248,0.009 0.204,-0.003 0.165,-0.028C0.126,-0.052 0.094,-0.086 0.072,-0.13C0.049,-0.173 0.037,-0.223 0.037,-0.278ZM0.488,-0.276C0.488,-0.314 0.48,-0.347 0.465,-0.375C0.449,-0.403 0.428,-0.424 0.403,-0.439C0.378,-0.454 0.35,-0.461 0.321,-0.461C0.292,-0.461 0.264,-0.454 0.239,-0.44C0.214,-0.425 0.193,-0.404 0.178,-0.377C0.162,-0.349 0.154,-0.316 0.154,-0.278C0.154,-0.24 0.162,-0.207 0.178,-0.178C0.193,-0.149 0.214,-0.128 0.24,-0.113C0.265,-0.097 0.292,-0.09 0.321,-0.09C0.35,-0.09 0.378,-0.097 0.403,-0.112C0.428,-0.127 0.449,-0.148 0.465,-0.177C0.48,-0.205 0.488,-0.238 0.488,-0.276Z" style="fill:white;fill-rule:nonzero;"/></g><g transform="matrix(200,0,0,200,2585.58,1362.5)"><path d="M0.275,0.009C0.232,0.009 0.193,0.001 0.159,-0.015C0.124,-0.03 0.097,-0.051 0.077,-0.079C0.057,-0.106 0.046,-0.136 0.045,-0.169L0.163,-0.169C0.165,-0.146 0.176,-0.126 0.197,-0.111C0.217,-0.095 0.242,-0.087 0.273,-0.087C0.305,-0.087 0.33,-0.093 0.348,-0.106C0.365,-0.118 0.374,-0.134 0.374,-0.153C0.374,-0.174 0.364,-0.189 0.345,-0.199C0.325,-0.209 0.294,-0.22 0.251,-0.232C0.21,-0.243 0.176,-0.254 0.15,-0.265C0.124,-0.276 0.101,-0.292 0.083,-0.314C0.064,-0.336 0.054,-0.365 0.054,-0.401C0.054,-0.43 0.063,-0.457 0.08,-0.482C0.097,-0.506 0.122,-0.525 0.155,-0.539C0.187,-0.553 0.224,-0.56 0.266,-0.56C0.329,-0.56 0.379,-0.544 0.418,-0.513C0.456,-0.481 0.476,-0.438 0.479,-0.383L0.365,-0.383C0.363,-0.408 0.353,-0.427 0.335,-0.442C0.317,-0.457 0.293,-0.464 0.262,-0.464C0.232,-0.464 0.209,-0.458 0.193,-0.447C0.177,-0.436 0.169,-0.421 0.169,-0.402C0.169,-0.387 0.174,-0.375 0.185,-0.365C0.196,-0.355 0.209,-0.347 0.224,-0.342C0.239,-0.336 0.262,-0.329 0.292,-0.32C0.332,-0.309 0.365,-0.299 0.391,-0.288C0.416,-0.277 0.438,-0.26 0.457,-0.239C0.476,-0.218 0.485,-0.189 0.486,-0.154C0.486,-0.123 0.477,-0.095 0.46,-0.07C0.443,-0.045 0.418,-0.026 0.387,-0.012C0.355,0.002 0.318,0.009 0.275,0.009Z" style="fill:white;fill-rule:nonzero;"/></g><g transform="matrix(200,0,0,200,653.185,1542.5)"><path d="M0.304,0.007C0.257,0.007 0.215,-0.001 0.178,-0.018C0.141,-0.034 0.111,-0.057 0.09,-0.087C0.069,-0.117 0.058,-0.152 0.058,-0.192L0.18,-0.192C0.183,-0.162 0.195,-0.137 0.216,-0.118C0.237,-0.099 0.266,-0.089 0.304,-0.089C0.343,-0.089 0.374,-0.098 0.396,-0.118C0.418,-0.136 0.429,-0.161 0.429,-0.191C0.429,-0.214 0.422,-0.233 0.409,-0.248C0.395,-0.263 0.378,-0.274 0.358,-0.282C0.337,-0.29 0.309,-0.299 0.273,-0.308C0.228,-0.32 0.191,-0.332 0.163,-0.345C0.134,-0.357 0.11,-0.376 0.09,-0.402C0.07,-0.428 0.06,-0.463 0.06,-0.506C0.06,-0.546 0.07,-0.581 0.09,-0.611C0.11,-0.641 0.138,-0.664 0.174,-0.68C0.21,-0.696 0.252,-0.704 0.299,-0.704C0.366,-0.704 0.422,-0.687 0.465,-0.654C0.507,-0.62 0.531,-0.574 0.536,-0.515L0.41,-0.515C0.408,-0.54 0.396,-0.562 0.374,-0.58C0.352,-0.598 0.323,-0.607 0.287,-0.607C0.254,-0.607 0.228,-0.599 0.207,-0.582C0.186,-0.565 0.176,-0.541 0.176,-0.51C0.176,-0.489 0.183,-0.471 0.196,-0.458C0.209,-0.444 0.225,-0.433 0.245,-0.425C0.265,-0.417 0.292,-0.408 0.327,-0.399C0.373,-0.386 0.411,-0.374 0.44,-0.361C0.468,-0.348 0.493,-0.329 0.514,-0.303C0.534,-0.276 0.544,-0.241 0.544,-0.197C0.544,-0.162 0.535,-0.128 0.516,-0.097C0.497,-0.066 0.469,-0.041 0.433,-0.022C0.396,-0.003 0.353,0.007 0.304,0.007Z" style="fill:white;fill-rule:nonzero;"/></g><g transform="matrix(200,0,0,200,769.985,1542.5)"><path d="M0.571,-0.551L0.233,0.259L0.115,0.259L0.227,-0.009L0.01,-0.551L0.137,-0.551L0.292,-0.131L0.453,-0.551L0.571,-0.551Z" style="fill:white;fill-rule:nonzero;"/></g><g transform="matrix(200,0,0,200,882.385,1542.5)"><path d="M0.353,-0.56C0.396,-0.56 0.435,-0.551 0.47,-0.533C0.504,-0.515 0.531,-0.488 0.55,-0.453C0.569,-0.418 0.579,-0.375 0.579,-0.325L0.579,-0L0.466,-0L0.466,-0.308C0.466,-0.357 0.454,-0.395 0.429,-0.422C0.404,-0.448 0.371,-0.461 0.328,-0.461C0.285,-0.461 0.252,-0.448 0.227,-0.422C0.202,-0.395 0.189,-0.357 0.189,-0.308L0.189,-0L0.075,-0L0.075,-0.551L0.189,-0.551L0.189,-0.488C0.208,-0.511 0.232,-0.528 0.261,-0.541C0.29,-0.554 0.32,-0.56 0.353,-0.56Z" style="fill:white;fill-rule:nonzero;"/></g><g transform="matrix(200,0,0,200,1008.18,1542.5)"><path d="M0.578,-0.495C0.56,-0.53 0.535,-0.556 0.503,-0.574C0.471,-0.591 0.434,-0.6 0.392,-0.6C0.346,-0.6 0.305,-0.59 0.269,-0.569C0.233,-0.548 0.205,-0.519 0.185,-0.481C0.164,-0.443 0.154,-0.399 0.154,-0.349C0.154,-0.299 0.164,-0.255 0.185,-0.217C0.205,-0.178 0.233,-0.149 0.269,-0.128C0.305,-0.107 0.346,-0.097 0.392,-0.097C0.454,-0.097 0.504,-0.114 0.543,-0.149C0.582,-0.184 0.605,-0.231 0.614,-0.29L0.353,-0.29L0.353,-0.381L0.736,-0.381L0.736,-0.292C0.729,-0.238 0.709,-0.188 0.679,-0.143C0.648,-0.098 0.607,-0.062 0.558,-0.035C0.508,-0.008 0.453,0.006 0.392,0.006C0.327,0.006 0.267,-0.009 0.213,-0.04C0.159,-0.07 0.116,-0.112 0.085,-0.166C0.053,-0.22 0.037,-0.281 0.037,-0.349C0.037,-0.417 0.053,-0.478 0.085,-0.532C0.116,-0.586 0.159,-0.628 0.214,-0.659C0.268,-0.689 0.327,-0.704 0.392,-0.704C0.466,-0.704 0.532,-0.686 0.59,-0.65C0.647,-0.613 0.689,-0.562 0.715,-0.495L0.578,-0.495Z" style="fill:white;fill-rule:nonzero;"/></g><g transform="matrix(200,0,0,200,1158.78,1542.5)"><path d="M0.494,-0.142L0.203,-0.142L0.153,-0L0.034,-0L0.283,-0.696L0.415,-0.696L0.664,-0L0.544,-0L0.494,-0.142ZM0.462,-0.235L0.349,-0.558L0.235,-0.235L0.462,-0.235Z" style="fill:white;fill-rule:nonzero;"/></g><g transform="matrix(200,0,0,200,1294.18,1542.5)"><path d="M0.561,-0.488C0.561,-0.453 0.553,-0.419 0.536,-0.388C0.519,-0.357 0.493,-0.331 0.456,-0.312C0.419,-0.292 0.372,-0.282 0.315,-0.282L0.189,-0.282L0.189,-0L0.075,-0L0.075,-0.695L0.315,-0.695C0.368,-0.695 0.413,-0.686 0.451,-0.668C0.488,-0.649 0.515,-0.624 0.534,-0.593C0.552,-0.562 0.561,-0.527 0.561,-0.488ZM0.315,-0.375C0.358,-0.375 0.391,-0.385 0.412,-0.405C0.433,-0.424 0.444,-0.452 0.444,-0.488C0.444,-0.564 0.401,-0.602 0.315,-0.602L0.189,-0.602L0.189,-0.375L0.315,-0.375Z" style="fill:white;fill-rule:nonzero;"/></g><g transform="matrix(200,0,0,200,1457.18,1542.5)"><path d="M0.436,-0L0.276,-0.278L0.189,-0.278L0.189,-0L0.075,-0L0.075,-0.695L0.315,-0.695C0.368,-0.695 0.413,-0.686 0.451,-0.667C0.488,-0.648 0.515,-0.623 0.534,-0.592C0.552,-0.561 0.561,-0.526 0.561,-0.487C0.561,-0.442 0.548,-0.401 0.522,-0.364C0.495,-0.327 0.455,-0.301 0.4,-0.288L0.572,-0L0.436,-0ZM0.189,-0.369L0.315,-0.369C0.358,-0.369 0.39,-0.38 0.412,-0.401C0.433,-0.422 0.444,-0.451 0.444,-0.487C0.444,-0.523 0.433,-0.551 0.412,-0.572C0.391,-0.592 0.358,-0.602 0.315,-0.602L0.189,-0.602L0.189,-0.369Z" style="fill:white;fill-rule:nonzero;"/></g><g transform="matrix(200,0,0,200,1579.58,1542.5)"><path d="M0.58,-0.289C0.58,-0.268 0.579,-0.25 0.576,-0.233L0.155,-0.233C0.158,-0.189 0.175,-0.154 0.204,-0.127C0.233,-0.1 0.269,-0.087 0.312,-0.087C0.373,-0.087 0.417,-0.113 0.442,-0.164L0.565,-0.164C0.548,-0.113 0.518,-0.072 0.475,-0.04C0.431,-0.007 0.377,0.009 0.312,0.009C0.259,0.009 0.212,-0.003 0.171,-0.027C0.129,-0.05 0.096,-0.084 0.073,-0.127C0.049,-0.169 0.037,-0.219 0.037,-0.276C0.037,-0.333 0.049,-0.383 0.072,-0.426C0.094,-0.468 0.127,-0.502 0.169,-0.525C0.21,-0.548 0.258,-0.56 0.312,-0.56C0.364,-0.56 0.41,-0.549 0.451,-0.526C0.492,-0.503 0.523,-0.471 0.546,-0.431C0.569,-0.389 0.58,-0.342 0.58,-0.289ZM0.461,-0.325C0.46,-0.367 0.445,-0.401 0.416,-0.426C0.387,-0.451 0.35,-0.464 0.307,-0.464C0.268,-0.464 0.234,-0.452 0.206,-0.427C0.178,-0.401 0.161,-0.368 0.156,-0.325L0.461,-0.325Z" style="fill:white;fill-rule:nonzero;"/></g><g transform="matrix(200,0,0,200,1698.98,1542.5)"><path d="M0.275,0.009C0.232,0.009 0.193,0.001 0.159,-0.015C0.124,-0.03 0.097,-0.051 0.077,-0.079C0.057,-0.106 0.046,-0.136 0.045,-0.169L0.163,-0.169C0.165,-0.146 0.176,-0.126 0.197,-0.111C0.217,-0.095 0.242,-0.087 0.273,-0.087C0.305,-0.087 0.33,-0.093 0.348,-0.106C0.365,-0.118 0.374,-0.134 0.374,-0.153C0.374,-0.174 0.364,-0.189 0.345,-0.199C0.325,-0.209 0.294,-0.22 0.251,-0.232C0.21,-0.243 0.176,-0.254 0.15,-0.265C0.124,-0.276 0.101,-0.292 0.083,-0.314C0.064,-0.336 0.054,-0.365 0.054,-0.401C0.054,-0.43 0.063,-0.457 0.08,-0.482C0.097,-0.506 0.122,-0.525 0.155,-0.539C0.187,-0.553 0.224,-0.56 0.266,-0.56C0.329,-0.56 0.379,-0.544 0.418,-0.513C0.456,-0.481 0.476,-0.438 0.479,-0.383L0.365,-0.383C0.363,-0.408 0.353,-0.427 0.335,-0.442C0.317,-0.457 0.293,-0.464 0.262,-0.464C0.232,-0.464 0.209,-0.458 0.193,-0.447C0.177,-0.436 0.169,-0.421 0.169,-0.402C0.169,-0.387 0.174,-0.375 0.185,-0.365C0.196,-0.355 0.209,-0.347 0.224,-0.342C0.239,-0.336 0.262,-0.329 0.292,-0.32C0.332,-0.309 0.365,-0.299 0.391,-0.288C0.416,-0.277 0.438,-0.26 0.457,-0.239C0.476,-0.218 0.485,-0.189 0.486,-0.154C0.486,-0.123 0.477,-0.095 0.46,-0.07C0.443,-0.045 0.418,-0.026 0.387,-0.012C0.355,0.002 0.318,0.009 0.275,0.009Z" style="fill:white;fill-rule:nonzero;"/></g><g transform="matrix(200,0,0,200,1801.78,1542.5)"><path d="M0.58,-0.289C0.58,-0.268 0.579,-0.25 0.576,-0.233L0.155,-0.233C0.158,-0.189 0.175,-0.154 0.204,-0.127C0.233,-0.1 0.269,-0.087 0.312,-0.087C0.373,-0.087 0.417,-0.113 0.442,-0.164L0.565,-0.164C0.548,-0.113 0.518,-0.072 0.475,-0.04C0.431,-0.007 0.377,0.009 0.312,0.009C0.259,0.009 0.212,-0.003 0.171,-0.027C0.129,-0.05 0.096,-0.084 0.073,-0.127C0.049,-0.169 0.037,-0.219 0.037,-0.276C0.037,-0.333 0.049,-0.383 0.072,-0.426C0.094,-0.468 0.127,-0.502 0.169,-0.525C0.21,-0.548 0.258,-0.56 0.312,-0.56C0.364,-0.56 0.41,-0.549 0.451,-0.526C0.492,-0.503 0.523,-0.471 0.546,-0.431C0.569,-0.389 0.58,-0.342 0.58,-0.289ZM0.461,-0.325C0.46,-0.367 0.445,-0.401 0.416,-0.426C0.387,-0.451 0.35,-0.464 0.307,-0.464C0.268,-0.464 0.234,-0.452 0.206,-0.427C0.178,-0.401 0.161,-0.368 0.156,-0.325L0.461,-0.325Z" style="fill:white;fill-rule:nonzero;"/></g><g transform="matrix(200,0,0,200,1921.18,1542.5)"><path d="M0.037,-0.278C0.037,-0.333 0.049,-0.382 0.072,-0.425C0.094,-0.468 0.126,-0.501 0.166,-0.525C0.205,-0.548 0.249,-0.56 0.297,-0.56C0.34,-0.56 0.378,-0.552 0.411,-0.535C0.443,-0.518 0.469,-0.496 0.488,-0.471L0.488,-0.551L0.603,-0.551L0.603,-0L0.488,-0L0.488,-0.082C0.469,-0.056 0.442,-0.034 0.409,-0.017C0.376,0 0.338,0.009 0.295,0.009C0.248,0.009 0.204,-0.003 0.165,-0.028C0.126,-0.052 0.094,-0.086 0.072,-0.13C0.049,-0.173 0.037,-0.223 0.037,-0.278ZM0.488,-0.276C0.488,-0.314 0.48,-0.347 0.465,-0.375C0.449,-0.403 0.428,-0.424 0.403,-0.439C0.378,-0.454 0.35,-0.461 0.321,-0.461C0.292,-0.461 0.264,-0.454 0.239,-0.44C0.214,-0.425 0.193,-0.404 0.178,-0.377C0.162,-0.349 0.154,-0.316 0.154,-0.278C0.154,-0.24 0.162,-0.207 0.178,-0.178C0.193,-0.149 0.214,-0.128 0.24,-0.113C0.265,-0.097 0.292,-0.09 0.321,-0.09C0.35,-0.09 0.378,-0.097 0.403,-0.112C0.428,-0.127 0.449,-0.148 0.465,-0.177C0.48,-0.205 0.488,-0.238 0.488,-0.276Z" style="fill:white;fill-rule:nonzero;"/></g><g transform="matrix(200,0,0,200,2052.78,1542.5)"><path d="M0.189,-0.471C0.206,-0.499 0.228,-0.521 0.256,-0.537C0.283,-0.552 0.316,-0.56 0.354,-0.56L0.354,-0.442L0.325,-0.442C0.28,-0.442 0.247,-0.431 0.224,-0.408C0.201,-0.385 0.189,-0.346 0.189,-0.29L0.189,-0L0.075,-0L0.075,-0.551L0.189,-0.551L0.189,-0.471Z" style="fill:white;fill-rule:nonzero;"/></g><g transform="matrix(200,0,0,200,2125.58,1542.5)"><path d="M0.037,-0.276C0.037,-0.333 0.049,-0.383 0.072,-0.426C0.094,-0.468 0.126,-0.502 0.167,-0.525C0.208,-0.548 0.254,-0.56 0.307,-0.56C0.374,-0.56 0.429,-0.544 0.473,-0.513C0.516,-0.481 0.546,-0.436 0.561,-0.377L0.438,-0.377C0.428,-0.404 0.412,-0.426 0.39,-0.441C0.368,-0.456 0.34,-0.464 0.307,-0.464C0.26,-0.464 0.223,-0.448 0.196,-0.415C0.168,-0.382 0.154,-0.335 0.154,-0.276C0.154,-0.217 0.168,-0.17 0.196,-0.137C0.223,-0.104 0.26,-0.087 0.307,-0.087C0.373,-0.087 0.417,-0.116 0.438,-0.174L0.561,-0.174C0.545,-0.118 0.515,-0.074 0.471,-0.041C0.427,-0.008 0.372,0.009 0.307,0.009C0.254,0.009 0.208,-0.003 0.167,-0.027C0.126,-0.05 0.094,-0.084 0.072,-0.127C0.049,-0.169 0.037,-0.219 0.037,-0.276Z" style="fill:white;fill-rule:nonzero;"/></g><g transform="matrix(200,0,0,200,2241.58,1542.5)"><path d="M0.36,-0.56C0.402,-0.56 0.44,-0.551 0.473,-0.533C0.506,-0.515 0.532,-0.488 0.551,-0.453C0.57,-0.418 0.579,-0.375 0.579,-0.325L0.579,-0L0.466,-0L0.466,-0.308C0.466,-0.357 0.454,-0.395 0.429,-0.422C0.404,-0.448 0.371,-0.461 0.328,-0.461C0.285,-0.461 0.252,-0.448 0.227,-0.422C0.202,-0.395 0.189,-0.357 0.189,-0.308L0.189,-0L0.075,-0L0.075,-0.74L0.189,-0.74L0.189,-0.487C0.208,-0.51 0.233,-0.528 0.263,-0.541C0.292,-0.554 0.325,-0.56 0.36,-0.56Z" style="fill:white;fill-rule:nonzero;"/></g><g transform="matrix(200,0,0,200,2415.38,1542.5)"><path d="M0.484,-0.695L0.484,-0.602L0.189,-0.602L0.189,-0.397L0.419,-0.397L0.419,-0.304L0.189,-0.304L0.189,-0L0.075,-0L0.075,-0.695L0.484,-0.695Z" style="fill:white;fill-rule:nonzero;"/></g><g transform="matrix(200,0,0,200,2514.38,1542.5)"><path d="M0.574,-0.551L0.574,-0L0.46,-0L0.46,-0.065C0.442,-0.042 0.419,-0.024 0.39,-0.012C0.361,0.002 0.33,0.008 0.297,0.008C0.254,0.008 0.215,-0.001 0.181,-0.019C0.146,-0.037 0.119,-0.064 0.1,-0.099C0.08,-0.134 0.07,-0.177 0.07,-0.227L0.07,-0.551L0.183,-0.551L0.183,-0.244C0.183,-0.195 0.195,-0.157 0.22,-0.131C0.245,-0.104 0.278,-0.091 0.321,-0.091C0.364,-0.091 0.397,-0.104 0.423,-0.131C0.448,-0.157 0.46,-0.195 0.46,-0.244L0.46,-0.551L0.574,-0.551Z" style="fill:white;fill-rule:nonzero;"/></g><g transform="matrix(200,0,0,200,2640.18,1542.5)"><path d="M0.353,-0.56C0.396,-0.56 0.435,-0.551 0.47,-0.533C0.504,-0.515 0.531,-0.488 0.55,-0.453C0.569,-0.418 0.579,-0.375 0.579,-0.325L0.579,-0L0.466,-0L0.466,-0.308C0.466,-0.357 0.454,-0.395 0.429,-0.422C0.404,-0.448 0.371,-0.461 0.328,-0.461C0.285,-0.461 0.252,-0.448 0.227,-0.422C0.202,-0.395 0.189,-0.357 0.189,-0.308L0.189,-0L0.075,-0L0.075,-0.551L0.189,-0.551L0.189,-0.488C0.208,-0.511 0.232,-0.528 0.261,-0.541C0.29,-0.554 0.32,-0.56 0.353,-0.56Z" style="fill:white;fill-rule:nonzero;"/></g><g transform="matrix(200,0,0,200,2765.98,1542.5)"><path d="M0.037,-0.278C0.037,-0.333 0.049,-0.382 0.072,-0.425C0.094,-0.468 0.126,-0.501 0.166,-0.525C0.205,-0.548 0.249,-0.56 0.298,-0.56C0.334,-0.56 0.37,-0.552 0.405,-0.537C0.44,-0.521 0.467,-0.5 0.488,-0.474L0.488,-0.74L0.603,-0.74L0.603,-0L0.488,-0L0.488,-0.083C0.469,-0.056 0.444,-0.034 0.411,-0.017C0.378,0 0.34,0.009 0.297,0.009C0.249,0.009 0.205,-0.003 0.166,-0.028C0.126,-0.052 0.094,-0.086 0.072,-0.13C0.049,-0.173 0.037,-0.223 0.037,-0.278ZM0.488,-0.276C0.488,-0.314 0.48,-0.347 0.465,-0.375C0.449,-0.403 0.428,-0.424 0.403,-0.439C0.378,-0.454 0.35,-0.461 0.321,-0.461C0.292,-0.461 0.264,-0.454 0.239,-0.44C0.214,-0.425 0.193,-0.404 0.178,-0.377C0.162,-0.349 0.154,-0.316 0.154,-0.278C0.154,-0.24 0.162,-0.207 0.178,-0.178C0.193,-0.149 0.214,-0.128 0.24,-0.113C0.265,-0.097 0.292,-0.09 0.321,-0.09C0.35,-0.09 0.378,-0.097 0.403,-0.112C0.428,-0.127 0.449,-0.148 0.465,-0.177C0.48,-0.205 0.488,-0.238 0.488,-0.276Z" style="fill:white;fill-rule:nonzero;"/></g></g></g></g></g></svg>