<?xml version="1.0" encoding="utf-8"?>
<!-- Generator: Adobe Illustrator 26.0.1, SVG Export Plug-In . SVG Version: 6.00 Build 0)  -->
<svg version="1.1" xmlns="http://www.w3.org/2000/svg" xmlns:xlink="http://www.w3.org/1999/xlink" x="0px" y="0px"
	 viewBox="0 0 373.5 56" style="enable-background:new 0 0 373.5 56;" xml:space="preserve">
<style type="text/css">
	.st0{display:none;}
	.st1{display:inline;fill:#FFFFFF;}
	.st2{fill:#FFFFFF;}
	.st3{display:inline;fill:#1A5AA7;}
	.st4{display:inline;fill:#2C9E53;}
	.st5{display:inline;fill:#522680;}
</style>
<g id="Layer_2" class="st0">
	<rect x="6" y="29.9" class="st1" width="360" height="8"/>
</g>
<g id="Layer_1_copy">
	<path class="st2" d="M125.3,32.9H14.5v2.2h113L125.3,32.9z"/>
	<path class="st2" d="M244.6,32.9l2.2,2.2h110.8v-2.2H244.6z"/>
	<path class="st2" d="M239.7,32.9H130.3l2.2,2.2h109.4L239.7,32.9z"/>
	<path class="st2" d="M4.5,6.6c0.5,0.7,1,1.3,1.7,1.8C6.9,9,7.8,9.6,8.9,10.4c1,0.7,2,1.4,3,2.1c0.8,0.6,1.4,1.4,1.9,2.2
		c0.5,0.9,0.8,1.9,0.8,3c0,1.2-0.3,2.5-1.1,3.5c-0.7,1-1.7,1.9-2.9,2.4c-1.3,0.6-2.7,0.9-4.2,0.8c-1.2,0-2.4-0.2-3.5-0.5
		c-0.9-0.2-1.7-0.5-2.5-1c-0.1-0.1-0.2-0.2-0.3-0.3c-0.1-0.1-0.1-0.3-0.1-0.4l-0.1-6v0C0,16.1,0.1,16,0.2,16s0.2,0,0.2,0.1
		c0.8,1.5,1.4,2.8,2,3.7c0.6,1,1.3,1.8,2.1,2.5c0.8,0.7,1.9,1.1,3,1.1c0.9,0,1.8-0.3,2.5-0.8c0.7-0.7,1.1-1.7,1-2.8
		c0-1-0.2-2-0.7-2.9c-0.5-0.8-1.1-1.5-1.8-2.1c-0.9-0.7-1.9-1.4-2.9-2.1c-1-0.6-1.9-1.3-2.8-2c-0.7-0.6-1.3-1.2-1.7-2
		C0.5,8,0.3,7,0.3,6.1c0-1.2,0.4-2.4,1.1-3.4c0.8-0.9,1.8-1.6,3-2C5.6,0.2,6.9,0,8.2,0c0.9,0,1.8,0.1,2.7,0.2
		c0.7,0.1,1.5,0.3,2.2,0.6c0.2,0.1,0.3,0.2,0.5,0.3c0.1,0.1,0.1,0.3,0.1,0.4v5.5c0,0.1-0.1,0.1-0.2,0.2c-0.1,0-0.2,0-0.2-0.1
		l-0.3-0.7c-0.5-1.4-1.3-2.8-2.2-4C9.9,1.4,8.6,0.8,7.2,0.8c-0.9,0-1.8,0.3-2.5,0.9c-0.7,0.7-1,1.6-1,2.5C3.8,5.1,4,5.9,4.5,6.6z
		 M34.3,6.5c0,0.1,0,0.2-0.1,0.2c-0.8,0.1-1.6,0.5-2.1,1.1c-0.9,0.8-1.7,1.7-2.3,2.7l-2.9,4.9v6.3c0,0.4,0,0.9,0.1,1.3
		c0.1,0.3,0.3,0.5,0.6,0.5c0.4,0.1,0.9,0.2,1.3,0.1c0.1,0,0.1,0.1,0.1,0.2s0,0.2-0.1,0.2c-0.6,0-1.1,0-1.5,0l-2.1,0l-2.1,0
		c-0.4,0-0.9,0-1.5,0c0,0-0.1-0.1-0.1-0.2s0-0.2,0.1-0.2c0.4,0,0.9,0,1.3-0.1c0.3-0.1,0.5-0.3,0.6-0.6c0.1-0.4,0.2-0.8,0.2-1.3V16
		l-4.1-6.4c-0.5-0.8-1.1-1.6-1.7-2.3c-0.3-0.3-0.7-0.6-1.2-0.6c-0.1,0-0.1-0.1-0.1-0.2s0-0.2,0.1-0.2l0.9,0c0.4,0,0.7,0.1,0.9,0.1
		c0.7,0,1.6,0,2.9-0.1l1.9,0c0,0,0.1,0.1,0.1,0.2s0,0.2-0.1,0.2c-0.3,0-0.5,0.1-0.7,0.2c-0.2,0.1-0.3,0.4-0.3,0.6
		c0,0.4,0.2,0.8,0.4,1.1l3.9,6.1l2.6-4.4c0.4-0.6,0.7-1.4,0.8-2.2c0-0.4-0.1-0.8-0.4-1c-0.3-0.3-0.8-0.4-1.2-0.4
		c-0.1,0-0.1-0.1-0.1-0.2s0-0.2,0.1-0.2l1.5,0c0.9,0,1.6,0.1,2.3,0.1c0.3,0,0.7,0,1.2-0.1l1,0C34.3,6.3,34.3,6.4,34.3,6.5z
		 M54.5,6.5c0,0.1,0,0.2-0.1,0.2c-0.7,0-1.4,0.3-1.8,0.9c-0.5,0.7-0.7,1.5-0.7,2.4v14.5c0,0.1,0,0.1-0.1,0.1c-0.1,0-0.1,0-0.2,0
		L38.5,9.4v11c0,0.8,0.2,1.7,0.6,2.4c0.4,0.6,1,0.9,1.7,0.9c0,0,0.1,0.1,0.1,0.2c0,0.1,0,0.2-0.1,0.2c-0.5,0-0.9,0-1.2,0l-1.5,0
		l-1.8,0c-0.3,0-0.8,0-1.4,0c-0.1,0-0.1-0.1-0.1-0.2s0-0.2,0.1-0.2c0.8,0,1.5-0.3,2-0.9c0.5-0.7,0.8-1.5,0.7-2.4V8.4
		c-0.5-0.5-1-1-1.6-1.4c-0.4-0.2-0.9-0.4-1.4-0.4c0,0-0.1-0.1-0.1-0.2s0-0.2,0.1-0.2l1.2,0c0.2,0,0.6,0,1.1,0l2.1,0c0.3,0,0.6,0,1,0
		c0.1,0,0.2,0,0.3,0.1c0.1,0.2,0.3,0.3,0.4,0.5c0.3,0.4,0.5,0.7,0.7,0.9L51.2,19V9.9c0-0.8-0.2-1.7-0.6-2.4c-0.4-0.6-1-0.9-1.7-0.9
		c0,0-0.1-0.1-0.1-0.2s0-0.2,0.1-0.2l1.2,0c0.6,0,1.1,0.1,1.5,0.1c0.4,0,0.9,0,1.6-0.1l1.3,0C54.5,6.3,54.5,6.4,54.5,6.5z
		 M63.2,22.8c-2-1-3.7-2.5-4.9-4.3c-1.1-1.8-1.7-3.9-1.7-6.1c0-2.3,0.6-4.5,1.9-6.4c1.3-1.9,3.1-3.4,5.3-4.4C66.2,0.5,68.8,0,71.4,0
		c1.2,0,2.4,0.1,3.6,0.3c1,0.1,2,0.4,2.9,0.7c0.2,0,0.3,0.1,0.5,0.2c0.1,0.2,0.1,0.4,0.1,0.6l0.5,5.2c0,0.1-0.1,0.1-0.2,0.2
		s-0.2,0-0.2-0.1c-0.4-1-0.9-1.9-1.6-2.7c-0.8-1-1.8-1.9-2.9-2.6c-1.2-0.7-2.7-1.1-4.1-1.1c-1.6,0-3.1,0.4-4.4,1.3
		c-1.4,0.9-2.5,2.2-3.1,3.8c-0.8,1.8-1.2,3.7-1.1,5.7c0,2.2,0.4,4.3,1.3,6.3c0.8,1.8,2.1,3.3,3.7,4.3c1.6,1,3.5,1.6,5.3,1.5
		c0.8,0,1.6-0.1,2.4-0.3c0.6-0.2,1-0.7,1.2-1.3c0.3-0.9,0.4-1.9,0.4-2.9c0-0.9,0-1.8-0.2-2.7c-0.1-0.5-0.5-0.9-1-1
		c-0.8-0.2-1.7-0.3-2.6-0.3c-0.2,0-0.2-0.1-0.2-0.3c0-0.1,0-0.1,0.1-0.2c0-0.1,0.1-0.1,0.1-0.1c2.1,0.1,3.9,0.2,5.2,0.2
		c1.3,0,2.6,0,4-0.1c0.1,0,0.2,0.1,0.2,0.3s0,0.3-0.2,0.3c-0.3-0.1-0.7,0-1,0.2c-0.2,0.3-0.4,0.7-0.4,1.1c-0.1,0.6-0.1,1.6-0.1,3
		c0,0.8,0,1.6,0.1,2.4c0.1,0.3,0.1,0.6,0.1,0.9c0,0.1,0,0.2-0.1,0.3c-0.1,0.1-0.2,0.1-0.3,0.2c-2.9,0.7-5.8,1-8.7,1.1
		C68.1,24.5,65.6,23.9,63.2,22.8z M109.5,23.7c0,0.2-0.1,0.2-0.2,0.2c-0.5,0-1.3,0-2.3-0.1c-1.1-0.1-1.9-0.1-2.4-0.1
		c-0.6,0-1.4,0-2.3,0.1c-0.9,0.1-1.5,0.1-2,0.1c-0.1,0-0.2-0.1-0.2-0.2s0.1-0.2,0.2-0.2c0.5,0,1,0,1.4-0.2c0.3-0.1,0.5-0.4,0.4-0.7
		c-0.1-0.8-0.4-1.5-0.8-2.1l-2.6-5.1h-9.3l-1.5,3.3c-0.3,0.6-0.5,1.3-0.5,2c0,0.8,0.3,1.6,1,2.1c0.7,0.5,1.7,0.8,2.6,0.8
		c0.1,0,0.2,0.1,0.2,0.2s-0.1,0.2-0.2,0.2c-0.5,0-1.1,0-2-0.1c-1,0-1.8-0.1-2.5-0.1c-0.7,0-1.5,0-2.4,0.1c-0.9,0.1-1.5,0.1-2.1,0.1
		c-0.1,0-0.2-0.1-0.2-0.2s0.1-0.2,0.2-0.2c0.6,0,1.2-0.1,1.8-0.4c0.6-0.4,1.1-0.9,1.4-1.5c0.6-1.1,1.2-2.2,1.7-3.3l8.2-18
		c0.1-0.1,0.2-0.1,0.3-0.1c0.2,0,0.3,0,0.3,0.1l9.4,18.5c0.6,1.3,1.3,2.5,2.2,3.7c0.4,0.6,1.1,1,1.8,1
		C109.5,23.5,109.5,23.6,109.5,23.7L109.5,23.7z M90.1,14.3h8.2l-4.3-8.6L90.1,14.3z M117.7,22.5c0.2,0.4,0.6,0.7,1,0.8
		c0.8,0.2,1.6,0.3,2.4,0.2c0.1,0,0.1,0.1,0.1,0.2s0,0.2-0.1,0.2c-1,0-1.8,0-2.4,0l-3.3,0l-2.7,0c-0.5,0-1.2,0-2,0
		c-0.1,0-0.1-0.1-0.1-0.2s0-0.2,0.1-0.2c0.6,0,1.2,0,1.8-0.2c0.3-0.1,0.6-0.4,0.7-0.7c0.1-0.5,0.2-1.1,0.2-1.7V3.5
		c0-0.6,0-1.1-0.2-1.7c-0.1-0.3-0.4-0.6-0.8-0.7c-0.6-0.2-1.1-0.2-1.7-0.2c-0.1,0-0.1-0.1-0.1-0.2s0-0.2,0.1-0.2l2,0
		c1.2,0.1,2.1,0.1,2.7,0.1c0.6,0,1.3,0,2.1-0.1c0.3,0,0.7-0.1,1.2-0.1s1.1,0,1.7,0c2.1-0.1,4.3,0.4,6.1,1.6c1.5,1.2,2.4,3,2.2,5
		c0,1.4-0.4,2.8-1.2,4c-0.8,1.1-1.9,1.9-3.1,2.4c-1.2,0.5-2.6,0.8-3.9,0.8c-0.6,0-1.2-0.1-1.8-0.2c-0.1,0-0.1-0.1-0.1-0.2
		c0-0.1,0-0.2,0.1-0.2c0-0.1,0.1-0.1,0.1-0.1c0.4,0.1,0.8,0.2,1.3,0.2c1.2,0,2.3-0.6,2.9-1.6c0.8-1.4,1.2-3,1.1-4.6
		c0.1-1.6-0.3-3.2-1.3-4.6c-0.9-1.1-2.3-1.7-3.7-1.6c-0.5-0.1-1.1,0.1-1.4,0.5c-0.3,0.6-0.4,1.3-0.4,1.9v17.2
		C117.4,21.3,117.5,21.9,117.7,22.5z M163.5,23.7c0,0.2,0,0.2-0.1,0.2h-6.7c-0.6,0-1.6-1-3.1-3c-2-2.7-3.8-5.5-5.5-8.4
		c-0.3,0-0.6,0-0.9,0c-1,0-1.7,0-2.1,0v8.3c0,0.6,0,1.1,0.2,1.7c0.1,0.3,0.4,0.6,0.7,0.7c0.6,0.2,1.2,0.2,1.8,0.2
		c0.1,0,0.1,0.1,0.1,0.2s0,0.2-0.1,0.2c-0.8,0-1.5,0-2,0l-2.9,0l-2.7,0c-0.5,0-1.2,0-2,0c-0.1,0-0.1-0.1-0.1-0.2s0-0.2,0.1-0.2
		c0.6,0,1.2,0,1.8-0.2c0.4-0.1,0.6-0.4,0.8-0.7c0.2-0.5,0.2-1.1,0.2-1.7V3.5c0-0.6,0-1.1-0.2-1.7c-0.1-0.3-0.4-0.6-0.8-0.7
		c-0.6-0.2-1.1-0.2-1.7-0.2c-0.1,0-0.1-0.1-0.1-0.2s0-0.2,0.1-0.2l2,0c1.2,0.1,2.1,0.1,2.7,0.1c0.9,0,1.7,0,2.7-0.1
		c0.3,0,0.7,0,1.2-0.1c0.5,0,1,0,1.6,0c1.9-0.1,3.7,0.3,5.3,1.3c1.2,0.8,1.9,2.1,1.9,3.5c0,1.3-0.4,2.6-1.1,3.7
		c-0.8,1.1-1.8,2.1-3,2.7c2,3,3.7,5.4,5,7.1c1,1.4,2.3,2.6,3.6,3.7c0.9,0.7,2,1.1,3.1,1.2C163.4,23.5,163.5,23.6,163.5,23.7
		L163.5,23.7z M147.4,11.7c1.2,0.1,2.3-0.3,3.1-1.2c0.7-1.2,1.1-2.6,1-3.9c0-2.1-0.3-3.5-0.9-4.3C150,1.5,149,1,148,1.1
		c-0.8-0.1-1.5,0.1-2.1,0.6c-0.5,0.5-0.7,1.2-0.6,1.9v8C145.9,11.6,146.7,11.7,147.4,11.7z M177.1,19.4c0.1,0,0.1,0,0.2,0
		c0,0,0.1,0.1,0.1,0.1c-0.2,1.3-0.3,2.7-0.3,4c0,0.1,0,0.2-0.1,0.3c-0.1,0.1-0.2,0.1-0.3,0.1h-12.5c-0.1,0-0.1-0.1-0.1-0.2
		s0-0.2,0.1-0.2c0.4,0,0.9,0,1.3-0.1c0.3-0.1,0.5-0.3,0.6-0.6c0.1-0.4,0.2-0.8,0.1-1.3V8.6c0-0.4,0-0.8-0.1-1.2
		c-0.1-0.3-0.3-0.5-0.6-0.6c-0.4-0.1-0.9-0.2-1.3-0.2c-0.1,0-0.1-0.1-0.1-0.2s0-0.2,0.1-0.2h12c0.2,0,0.3,0.1,0.3,0.3l0.1,3.8
		c0,0-0.1,0.1-0.2,0.1s-0.2,0-0.2-0.1c-0.2-1-0.8-1.8-1.5-2.4c-0.8-0.6-1.8-0.8-2.8-0.8h-0.8c-0.4,0-0.9,0.1-1.2,0.4
		c-0.3,0.3-0.4,0.7-0.4,1.1v5.8h2.3c0.9,0.1,1.7-0.1,2.5-0.6c0.6-0.3,0.9-0.9,0.9-1.6c0-0.1,0.1-0.1,0.2-0.1s0.2,0,0.2,0.1l0,2.5
		l0,1.4c0,0.6,0.1,1.1,0.1,1.5c0,0-0.1,0.1-0.2,0.1s-0.2,0-0.2-0.1c0-0.7-0.3-1.4-0.9-1.8c-0.8-0.5-1.7-0.7-2.6-0.7h-2.3v6.4
		c0,0.4,0.1,0.9,0.3,1.2c0.2,0.3,0.6,0.4,1,0.4h0.9c1.2,0.1,2.5-0.3,3.5-0.9c0.9-0.7,1.6-1.7,1.9-2.8
		C177,19.4,177.1,19.4,177.1,19.4z M184,11c0.3,0.5,0.8,1,1.3,1.4c0.5,0.4,1.2,0.9,2.1,1.4c0.8,0.5,1.5,1,2.3,1.6
		c0.6,0.5,1.1,1,1.4,1.7c0.4,0.7,0.6,1.5,0.6,2.2c0,0.9-0.3,1.8-0.8,2.6c-0.6,0.8-1.3,1.4-2.2,1.8c-1,0.4-2,0.7-3.1,0.6
		c-0.9,0-1.8-0.1-2.7-0.4c-0.7-0.1-1.3-0.4-1.9-0.8c-0.1-0.1-0.2-0.1-0.2-0.2c-0.1-0.1-0.1-0.2-0.1-0.3l-0.1-4.5v0
		c0-0.1,0-0.1,0.1-0.1s0.1,0,0.2,0.1c0.6,1.1,1.1,2.1,1.5,2.8c0.4,0.7,1,1.4,1.6,1.9c0.6,0.5,1.4,0.8,2.2,0.8c0.7,0,1.3-0.2,1.9-0.6
		c0.5-0.5,0.8-1.3,0.7-2.1c0-0.8-0.2-1.5-0.6-2.2c-0.4-0.6-0.8-1.1-1.3-1.6c-0.7-0.6-1.4-1.1-2.2-1.6c-0.7-0.5-1.4-1-2.1-1.5
		c-0.5-0.4-0.9-0.9-1.3-1.5c-0.4-0.6-0.6-1.3-0.5-2.1c0-0.9,0.3-1.8,0.9-2.5c0.6-0.7,1.4-1.2,2.2-1.5c0.9-0.3,1.9-0.5,2.9-0.5
		c0.7,0,1.3,0.1,2,0.2c0.6,0.1,1.1,0.2,1.6,0.4c0.1,0,0.2,0.1,0.3,0.2c0.1,0.1,0.1,0.2,0.1,0.3v4.2c0,0.1,0,0.1-0.1,0.1
		s-0.2,0-0.2,0l-0.2-0.5c-0.4-1.1-1-2.1-1.7-3c-0.6-0.8-1.6-1.3-2.6-1.2c-0.7,0-1.3,0.2-1.8,0.6c-0.5,0.5-0.8,1.2-0.7,1.9
		C183.5,9.8,183.7,10.4,184,11L184,11z M207.3,19.4c0.1,0,0.1,0,0.2,0c0,0,0.1,0.1,0.1,0.1c-0.2,1.3-0.3,2.7-0.3,4
		c0,0.1,0,0.2-0.1,0.3c-0.1,0.1-0.2,0.1-0.3,0.1h-12.5c-0.1,0-0.1-0.1-0.1-0.2s0-0.2,0.1-0.2c0.4,0,0.9,0,1.3-0.1
		c0.3-0.1,0.5-0.3,0.6-0.6c0.1-0.4,0.2-0.8,0.1-1.3V8.6c0-0.4,0-0.8-0.1-1.2c-0.1-0.3-0.3-0.5-0.6-0.6c-0.4-0.1-0.9-0.2-1.3-0.2
		c-0.1,0-0.1-0.1-0.1-0.2s0-0.2,0.1-0.2h12c0.2,0,0.3,0.1,0.3,0.3l0.1,3.8c0,0-0.1,0.1-0.2,0.1s-0.2,0-0.2-0.1
		c-0.2-1-0.8-1.8-1.5-2.4c-0.8-0.6-1.8-0.8-2.8-0.8h-0.8c-0.4,0-0.9,0.1-1.2,0.4c-0.3,0.3-0.4,0.7-0.4,1.1v5.8h2.3
		c0.9,0.1,1.7-0.1,2.5-0.6c0.6-0.3,0.9-0.9,0.9-1.6c0-0.1,0.1-0.1,0.2-0.1s0.2,0,0.2,0.1l0,2.5l0,1.4c0,0.6,0.1,1.1,0.1,1.5
		c0,0-0.1,0.1-0.2,0.1s-0.2,0-0.2-0.1c0-0.7-0.3-1.4-0.9-1.8c-0.8-0.5-1.7-0.7-2.6-0.7h-2.3v6.4c0,0.4,0.1,0.9,0.3,1.2
		c0.2,0.3,0.6,0.4,1,0.4h0.9c1.2,0.1,2.5-0.3,3.5-0.9c0.9-0.7,1.6-1.7,1.9-2.8C207.1,19.4,207.2,19.4,207.3,19.4z M229.1,23.8
		c0,0.1,0,0.2-0.1,0.2c-0.4,0-1,0-1.8-0.1c-0.8,0-1.4-0.1-1.8-0.1c-0.5,0-1,0-1.7,0.1c-0.6,0-1.1,0.1-1.5,0.1
		c-0.1,0-0.1-0.1-0.1-0.2s0-0.2,0.1-0.2c0.4,0,0.7,0,1.1-0.2c0.2-0.1,0.3-0.3,0.3-0.5c-0.1-0.6-0.3-1.1-0.6-1.6l-1.9-3.8h-6.9
		l-1.1,2.5c-0.2,0.5-0.4,1-0.4,1.5c0,0.6,0.2,1.2,0.7,1.6c0.6,0.4,1.2,0.6,1.9,0.6c0.1,0,0.1,0.1,0.1,0.2c0,0.1,0,0.2-0.1,0.2
		c-0.3,0-0.8,0-1.5-0.1c-0.7,0-1.3-0.1-1.9-0.1c-0.5,0-1.1,0-1.8,0.1c-0.6,0-1.2,0.1-1.6,0.1c-0.1,0-0.1-0.1-0.1-0.2s0-0.2,0.1-0.2
		c0.5,0,0.9-0.1,1.3-0.3c0.4-0.3,0.8-0.7,1.1-1.2c0.5-0.8,0.9-1.6,1.3-2.5l6.1-13.5c0-0.1,0.1-0.1,0.3-0.1c0.1,0,0.2,0,0.3,0.1
		l7.1,13.9c0.4,1,1,1.9,1.6,2.8c0.3,0.4,0.8,0.7,1.4,0.8C229.1,23.6,229.1,23.7,229.1,23.8L229.1,23.8z M214.5,16.7h6.2l-3.2-6.4
		L214.5,16.7z M249,23.8c0,0.1,0,0.2-0.1,0.2h-5c-0.4,0-1.2-0.7-2.3-2.2c-1.5-2-2.8-4.1-4.1-6.3c-0.2,0-0.4,0-0.6,0
		c-0.7,0-1.3,0-1.6,0v6.2c0,0.4,0,0.9,0.1,1.3c0.1,0.3,0.3,0.5,0.6,0.5c0.4,0.1,0.9,0.2,1.3,0.1c0,0,0.1,0.1,0.1,0.2s0,0.2-0.1,0.2
		c-0.6,0-1.1,0-1.5,0l-2.1,0l-2.1,0c-0.4,0-0.9,0-1.5,0c-0.1,0-0.1-0.1-0.1-0.2s0-0.2,0.1-0.2c0.4,0,0.9,0,1.3-0.1
		c0.3-0.1,0.5-0.3,0.6-0.6c0.1-0.4,0.2-0.8,0.2-1.3V8.6c0-0.4,0-0.8-0.1-1.2c-0.1-0.3-0.3-0.5-0.6-0.6c-0.4-0.1-0.9-0.2-1.3-0.2
		c0,0-0.1-0.1-0.1-0.2s0-0.2,0.1-0.2l1.5,0c0.9,0,1.6,0.1,2.1,0.1c0.6,0,1.3,0,2-0.1c0.2,0,0.6,0,0.9-0.1c0.4,0,0.8,0,1.2,0
		c1.4-0.1,2.8,0.2,4,0.9c0.9,0.6,1.4,1.6,1.4,2.6c0,1-0.3,2-0.8,2.8c-0.6,0.8-1.4,1.5-2.3,2c1.5,2.3,2.8,4,3.8,5.3
		c0.8,1,1.7,2,2.7,2.8c0.7,0.5,1.5,0.8,2.3,0.9C249,23.6,249,23.7,249,23.8L249,23.8z M236.9,14.7c0.9,0.1,1.8-0.3,2.4-0.9
		c0.6-0.9,0.8-1.9,0.7-3c0.1-1.1-0.1-2.2-0.7-3.2c-0.5-0.6-1.2-0.9-1.9-0.9c-0.6-0.1-1.1,0.1-1.6,0.4c-0.4,0.4-0.5,0.9-0.5,1.4v6
		C235.8,14.7,236.4,14.7,236.9,14.7z M262.1,6.2c0.7,0.1,1.5,0.3,2.2,0.6c0.1,0,0.2,0.1,0.3,0.2c0.1,0.1,0.1,0.3,0.1,0.4l0.4,3.9
		c0,0.1,0,0.1-0.1,0.1c-0.1,0-0.2,0-0.2-0.1c-0.4-1.4-1.2-2.6-2.3-3.5c-1-0.8-2.2-1.3-3.5-1.2c-1.2,0-2.4,0.3-3.4,1
		c-1.1,0.7-1.9,1.8-2.4,3c-0.6,1.4-0.9,2.9-0.9,4.5c0,1.6,0.3,3.1,0.9,4.6c0.5,1.2,1.4,2.3,2.5,3c1.1,0.7,2.3,1.1,3.6,1.1
		c1.2,0,2.3-0.3,3.3-1.1c1.1-1,1.9-2.2,2.5-3.5c0-0.1,0.1-0.1,0.2-0.1s0.1,0.1,0.1,0.1l-0.4,3.5c0,0.2-0.1,0.3-0.1,0.4
		c-0.1,0.1-0.2,0.2-0.3,0.2c-1.7,0.6-3.5,0.9-5.3,0.9c-1.9,0-3.7-0.4-5.4-1.1c-1.5-0.7-2.8-1.8-3.7-3.2c-0.9-1.4-1.4-3-1.4-4.7
		c0-1.7,0.5-3.4,1.4-4.8c1-1.4,2.3-2.6,3.8-3.3c1.7-0.8,3.6-1.2,5.4-1.2C260.3,6,261.2,6.1,262.1,6.2z M287.3,23.8
		c0,0.1,0,0.2-0.1,0.2c-0.7,0-1.2,0-1.6,0l-2.2,0l-2.5,0c-0.3,0-0.8,0-1.4,0c-0.1,0-0.1-0.1-0.1-0.2s0-0.2,0.1-0.2
		c0.5,0,1,0,1.5-0.1c0.3-0.1,0.5-0.3,0.6-0.5c0.1-0.4,0.2-0.8,0.2-1.3v-6.5h-9.1v6.5c0,0.4,0,0.9,0.2,1.3c0.1,0.3,0.4,0.5,0.6,0.6
		c0.5,0.1,1,0.2,1.5,0.1c0,0,0.1,0.1,0.1,0.2s0,0.2-0.1,0.2c-0.7,0-1.2,0-1.6,0l-2.5,0l-2.1,0c-0.4,0-0.9,0-1.6,0
		c0,0-0.1-0.1-0.1-0.2s0-0.2,0.1-0.2c0.5,0,1,0,1.4-0.1c0.3-0.1,0.5-0.3,0.6-0.6c0.1-0.4,0.2-0.8,0.2-1.3V8.6c0-0.4,0-0.8-0.2-1.2
		c-0.1-0.3-0.3-0.5-0.6-0.6c-0.5-0.1-0.9-0.2-1.4-0.2c-0.1,0-0.1-0.1-0.1-0.2s0-0.2,0.1-0.2l1.5,0c0.9,0,1.6,0.1,2.1,0.1
		c0.7,0,1.5,0,2.5-0.1l1.6,0c0,0,0.1,0.1,0.1,0.2s0,0.2-0.1,0.2c-0.5,0-1,0-1.5,0.2c-0.3,0.1-0.5,0.3-0.7,0.6
		c-0.1,0.4-0.2,0.8-0.2,1.3v5.7h9.1V8.6c0-0.4,0-0.9-0.2-1.3c-0.1-0.3-0.4-0.5-0.6-0.6c-0.5-0.1-1-0.2-1.5-0.2
		c-0.1,0-0.1-0.1-0.1-0.2s0-0.2,0.1-0.2l1.4,0c0.9,0,1.8,0.1,2.5,0.1c0.5,0,1.2,0,2.2-0.1l1.6,0c0.1,0,0.1,0.1,0.1,0.2
		s0,0.2-0.1,0.2c-0.5,0-1,0-1.4,0.2c-0.3,0.1-0.5,0.3-0.6,0.6C285,7.7,285,8.2,285,8.6v13.1c0,0.4,0,0.8,0.2,1.3
		c0.1,0.3,0.3,0.5,0.6,0.6c0.5,0.1,1,0.2,1.4,0.1C287.3,23.6,287.3,23.7,287.3,23.8z M312.7,5.8c0,0.1-0.1,0.1-0.2,0.1
		s-0.2,0-0.2-0.1c-0.3-1.3-1-2.4-2-3.2c-1.1-0.7-2.4-1.1-3.8-1.1h-1.1c-0.6,0-1.2,0.1-1.7,0.5c-0.4,0.4-0.6,1-0.5,1.5v8.1h2.7
		c1.2,0.1,2.3-0.2,3.3-0.8c0.7-0.5,1.2-1.3,1.1-2.1c0-0.1,0.1-0.1,0.2-0.1s0.2,0,0.2,0.1l0,3.4c0,0.8,0,1.4,0,1.8l0,2
		c0,0.1-0.1,0.1-0.2,0.1s-0.2,0-0.2-0.1c0-0.9-0.4-1.8-1.2-2.4c-1-0.6-2.2-1-3.4-0.9h-2.7v8.1c0,0.6,0.1,1.2,0.3,1.7
		c0.2,0.4,0.7,0.7,1.1,0.8c0.9,0.2,1.7,0.3,2.6,0.2c0,0,0.1,0.1,0.1,0.2s0,0.2-0.1,0.2c-1,0-1.8,0-2.4,0l-3.8,0l-2.8,0
		c-0.5,0-1.2,0-2.1,0c-0.1,0-0.1-0.1-0.1-0.2s0-0.2,0.1-0.2c0.6,0,1.3,0,1.9-0.2c0.4-0.1,0.7-0.4,0.8-0.7c0.2-0.5,0.2-1.1,0.2-1.7
		V3.5c0-0.6,0-1.1-0.2-1.7c-0.1-0.3-0.4-0.6-0.8-0.7c-0.6-0.2-1.1-0.2-1.7-0.2c-0.1,0-0.1-0.1-0.1-0.2c0-0.2,0-0.2,0.1-0.2h16
		c0.3,0,0.4,0.1,0.4,0.3L312.7,5.8z M329.8,7.5c-0.5-0.6-1.2-0.9-1.9-0.9c0,0-0.1-0.1-0.1-0.2s0-0.2,0.1-0.2l1.4,0
		c0.7,0,1.3,0.1,1.7,0.1c0.4,0,0.9,0,1.6-0.1l1.3,0c0,0,0.1,0.1,0.1,0.2s0,0.2-0.1,0.2c-0.7,0-1.3,0.3-1.7,0.9
		c-0.5,0.7-0.7,1.6-0.6,2.4v7.8c0,1.2-0.3,2.4-0.9,3.5c-0.6,1-1.4,1.8-2.5,2.3c-1.1,0.6-2.4,0.8-3.7,0.8c-1.3,0-2.5-0.2-3.7-0.8
		c-1-0.5-1.9-1.3-2.5-2.3c-0.6-1.1-0.9-2.3-0.9-3.5V8.6c0-0.4,0-0.8-0.2-1.2c-0.1-0.3-0.3-0.5-0.6-0.6c-0.4-0.1-0.9-0.2-1.3-0.2
		c-0.1,0-0.1-0.1-0.1-0.2s0-0.2,0.1-0.2l1.5,0c0.9,0,1.6,0.1,2.1,0.1c0.6,0,1.3,0,2.1-0.1l1.4,0c0.1,0,0.1,0.1,0.1,0.2
		s0,0.2-0.1,0.2c-0.4,0-0.9,0-1.3,0.2c-0.3,0.1-0.5,0.3-0.6,0.6c-0.1,0.4-0.2,0.8-0.2,1.3v8.1c-0.1,1.8,0.3,3.5,1.3,5
		c0.9,1.1,2.3,1.7,3.7,1.6c1.4,0.1,2.7-0.4,3.7-1.4c1-1.1,1.4-2.6,1.3-4.1V9.9C330.5,9.1,330.3,8.2,329.8,7.5z M354.7,6.5
		c0,0.1,0,0.2-0.1,0.2c-0.7,0-1.4,0.3-1.8,0.9c-0.5,0.7-0.7,1.5-0.6,2.4v14.5c0,0.1,0,0.1-0.1,0.1c-0.1,0-0.1,0-0.2,0L338.7,9.4v11
		c0,0.8,0.2,1.7,0.6,2.4c0.4,0.6,1,0.9,1.7,0.9c0,0,0.1,0.1,0.1,0.2s0,0.2-0.1,0.2c-0.5,0-0.9,0-1.2,0l-1.5,0l-1.8,0
		c-0.3,0-0.8,0-1.4,0c-0.1,0-0.1-0.1-0.1-0.2s0-0.2,0.1-0.2c0.8,0,1.5-0.3,2-0.9c0.5-0.7,0.8-1.5,0.7-2.4V8.4c-0.5-0.5-1-1-1.6-1.4
		c-0.4-0.2-0.9-0.4-1.4-0.4c0,0-0.1-0.1-0.1-0.2s0-0.2,0.1-0.2l1.2,0c0.2,0,0.6,0,1.1,0l2.1,0c0.3,0,0.6,0,1,0c0.1,0,0.2,0,0.3,0.1
		c0.1,0.1,0.2,0.2,0.4,0.5c0.3,0.4,0.5,0.7,0.7,0.9l9.8,11.3V9.9c0-0.8-0.2-1.7-0.6-2.4c-0.4-0.6-1-0.9-1.7-0.9c0,0-0.1-0.1-0.1-0.2
		s0-0.2,0.1-0.2l1.2,0c0.6,0,1.1,0.1,1.5,0.1c0.4,0,0.9,0,1.6-0.1l1.3,0C354.7,6.3,354.7,6.4,354.7,6.5z M362,24
		c-0.3,0-0.7,0-1.1-0.1s-0.9,0-1.5,0l-2.1,0c-0.4,0-0.9,0-1.5,0c0,0-0.1-0.1-0.1-0.2s0-0.2,0.1-0.2c0.4,0,0.9,0,1.3-0.1
		c0.3-0.1,0.5-0.3,0.6-0.6c0.1-0.4,0.2-0.8,0.2-1.3V8.6c0-0.4,0-0.8-0.2-1.2c-0.1-0.3-0.3-0.5-0.6-0.6c-0.4-0.1-0.9-0.2-1.3-0.2
		c-0.1,0-0.1-0.1-0.1-0.2s0-0.2,0.1-0.2l1.5,0c0.9,0,1.6,0.1,2.1,0.1c0.8,0,1.6,0,2.4-0.1c1,0,1.6-0.1,2-0.1c1.8,0,3.5,0.4,5.1,1.1
		c1.4,0.7,2.6,1.8,3.4,3.1c0.8,1.3,1.2,2.8,1.2,4.4c0,1.7-0.4,3.4-1.3,4.8c-0.8,1.4-2,2.5-3.4,3.2c-1.4,0.8-3,1.2-4.7,1.1
		C363.6,24.1,362.9,24,362,24L362,24z M367.1,22.5c1-0.7,1.7-1.6,2.2-2.7c0.5-1.4,0.8-2.8,0.8-4.3c0-1.5-0.2-3-0.7-4.4
		c-0.4-1.2-1.1-2.3-2.1-3.1c-0.9-0.7-2-1.1-3.1-1.1c-0.8-0.1-1.6,0.1-2.4,0.3c-0.5,0.3-0.7,0.9-0.6,1.4v12.7
		c-0.1,0.6,0.2,1.2,0.6,1.6c0.7,0.4,1.5,0.5,2.3,0.5C365,23.4,366.1,23.1,367.1,22.5L367.1,22.5z"/>
	<path class="st2" d="M42.8,43.2c0.5,0.2,1,0.6,1.4,1.1c0.4,0.4,0.6,0.9,0.7,1.5l0,0.1c0,0,0,0.1,0,0.1c0,0,0,0-0.1,0l-1.1,0.1h0
		c0,0-0.1,0-0.1,0c0,0,0-0.1,0-0.1c-0.1-0.6-0.4-1.1-0.9-1.5c-0.5-0.4-1-0.6-1.6-0.6c-0.9,0-1.8,0.4-2.3,1.1c-0.6,1-0.9,2.1-0.8,3.3
		c-0.1,1.1,0.2,2.3,0.8,3.2c0.5,0.7,1.4,1.1,2.4,1.1c0.6,0,1.2-0.2,1.7-0.5c0.5-0.4,0.9-0.9,1.1-1.5c0-0.1,0.1-0.1,0.2-0.1l0.8,0.2
		c0.1,0,0.1,0.1,0.1,0.2c-0.2,0.5-0.4,1-0.7,1.3c-0.4,0.4-0.8,0.8-1.3,1c-0.6,0.3-1.2,0.4-1.8,0.4c-0.9,0-1.7-0.2-2.4-0.7
		c-0.7-0.5-1.2-1.1-1.6-1.9c-0.7-1.9-0.7-3.9,0-5.8c0.3-0.8,0.8-1.4,1.5-1.9c0.7-0.4,1.5-0.7,2.4-0.6C41.6,42.8,42.2,43,42.8,43.2z
		 M49.5,53.2c-0.5-0.3-1-0.8-1.3-1.4c-0.6-1.3-0.6-2.8,0-4.1c0.9-1.8,3.1-2.4,4.9-1.5c0,0,0.1,0.1,0.1,0.1c0.5,0.3,1,0.8,1.3,1.4
		c0.3,0.6,0.5,1.3,0.4,2c0,0.7-0.1,1.4-0.5,2c-0.3,0.6-0.7,1-1.3,1.4c-0.6,0.3-1.2,0.5-1.9,0.5C50.7,53.7,50,53.5,49.5,53.2
		L49.5,53.2z M53.1,52c0.8-1.4,0.8-3.1,0-4.4c-0.4-0.5-1.1-0.8-1.7-0.8c-0.7,0-1.3,0.3-1.7,0.8c-0.9,1.3-0.9,3.1,0,4.4
		c0.4,0.5,1.1,0.8,1.8,0.8C52.1,52.8,52.7,52.5,53.1,52L53.1,52z M59.4,53.3c0,0.1,0,0.1-0.1,0.2c-0.1,0-0.1,0.1-0.2,0.1h-0.7
		c-0.1,0-0.1,0-0.2,0c0,0,0-0.1,0-0.2l0-10.2c0-0.1,0.1-0.2,0.2-0.2h0.9c0.1,0,0.2,0.1,0.2,0.2L59.4,53.3z M64.2,53.3
		c0,0.1,0,0.1-0.1,0.2c-0.1,0-0.1,0.1-0.2,0.1h-0.7c-0.1,0-0.1,0-0.2,0c0,0,0-0.1,0-0.2l0-10.2C63,43,63,43,63.1,43H64
		c0.1,0,0.2,0.1,0.2,0.2L64.2,53.3z M69.6,53.7c-0.6,0-1.3-0.2-1.7-0.6c-0.4-0.4-0.7-0.9-0.6-1.5c0-0.7,0.3-1.4,1-1.8
		c0.8-0.5,1.8-0.8,2.8-0.8l1.1-0.1c0.2,0,0.2-0.1,0.2-0.2v-0.4c0-0.5-0.2-0.9-0.5-1.2c-0.4-0.3-0.8-0.5-1.3-0.4
		c-0.8,0-1.6,0.4-2,1.1c0,0,0,0.1-0.1,0.1c0,0-0.1,0-0.1,0l-0.8-0.3c0,0-0.1-0.1-0.1-0.1c0,0,0-0.1,0-0.1c0.3-0.5,0.7-0.9,1.2-1.2
		c0.6-0.3,1.2-0.4,1.9-0.4c0.8-0.1,1.5,0.2,2.1,0.6c0.5,0.5,0.8,1.1,0.7,1.8v5c0,0.1,0,0.1,0,0.2c0,0-0.1,0-0.2,0h-0.7
		c-0.1,0-0.2-0.1-0.2-0.2l0-0.7c0-0.1,0-0.1-0.1-0.1c-0.1,0-0.1,0-0.1,0.1C71.5,53.3,70.6,53.7,69.6,53.7L69.6,53.7z M72.1,49.7
		l-0.9,0.1c-0.7,0-1.4,0.2-2,0.5c-0.4,0.2-0.7,0.7-0.7,1.2c0,0.4,0.1,0.7,0.4,1c0.3,0.3,0.7,0.4,1.2,0.4c0.3,0,0.6-0.1,0.9-0.2
		c0.3-0.1,0.5-0.2,0.8-0.4c0.2-0.2,0.4-0.3,0.5-0.5c0.1-0.2,0.2-0.4,0.2-0.6v-1.2C72.3,49.8,72.3,49.7,72.1,49.7L72.1,49.7z
		 M77.2,53.5c-0.1,0-0.2,0-0.2-0.1c0,0,0-0.1,0-0.1V43.2c0-0.1,0.1-0.2,0.2-0.2H78c0.1,0,0.1,0.1,0.1,0.2v3.5c0,0.1,0,0.2,0.1,0.2
		c0.1,0,0.1,0,0.1-0.1c0.6-0.6,1.4-0.9,2.3-0.9c0.9-0.1,1.7,0.4,2.3,1.1c0.5,0.8,0.8,1.8,0.8,2.8c0.1,1-0.2,2.1-0.9,2.9
		c-0.6,0.7-1.5,1.1-2.4,1.1c-0.5,0-1-0.1-1.4-0.3c-0.3-0.2-0.6-0.5-0.9-0.8c0,0,0-0.1-0.1-0.1c0,0-0.1,0-0.1,0.1l-0.1,0.7
		c0,0.1,0,0.1-0.1,0.2c-0.1,0-0.1,0.1-0.2,0.1L77.2,53.5z M78.2,51c0,0.3,0.1,0.6,0.3,0.9c0.2,0.3,0.5,0.5,0.8,0.7
		c0.3,0.2,0.6,0.2,1,0.2c0.6,0,1.2-0.3,1.6-0.8c0.5-0.7,0.7-1.5,0.6-2.3c0-0.8-0.1-1.6-0.6-2.2c-0.4-0.5-1-0.8-1.6-0.8
		c-0.4,0-0.8,0.1-1.2,0.3c-0.4,0.2-0.7,0.5-0.9,0.8L78.2,51z M88.2,53.2c-0.5-0.3-1-0.8-1.3-1.4c-0.6-1.3-0.6-2.8,0-4.1
		c0.9-1.8,3.1-2.4,4.9-1.5c0,0,0.1,0.1,0.1,0.1c0.5,0.3,1,0.8,1.3,1.4c0.3,0.6,0.5,1.3,0.4,2c0,0.7-0.1,1.4-0.5,2
		c-0.3,0.6-0.7,1-1.3,1.4c-0.6,0.3-1.2,0.5-1.9,0.5C89.4,53.7,88.8,53.5,88.2,53.2L88.2,53.2z M91.9,52c0.8-1.4,0.8-3.1,0-4.4
		c-0.4-0.5-1.1-0.8-1.7-0.8c-0.7,0-1.3,0.3-1.7,0.8c-0.9,1.3-0.9,3.1,0,4.4c0.4,0.5,1.1,0.8,1.8,0.8C90.8,52.8,91.4,52.5,91.9,52
		L91.9,52z M96.9,53.4v-7.2c0-0.1,0.1-0.2,0.2-0.2h0.8c0.1,0,0.1,0,0.2,0.1c0,0,0,0,0,0v0.9c0,0.1,0,0.1,0,0.1s0.1,0,0.1-0.1
		c0.5-0.7,1.3-1.2,2.2-1.3c0.3,0,0.5,0.1,0.5,0.2v0.9c0,0.1,0,0.1-0.1,0.1c-0.2,0-0.4,0-0.6,0c-0.3,0-0.6,0.1-0.9,0.2
		c-0.3,0.2-0.6,0.4-0.8,0.6c-0.2,0.2-0.3,0.5-0.3,0.8v4.7c0,0.1-0.1,0.2-0.2,0.2c0,0,0,0-0.1,0h-0.8C96.9,53.5,96.9,53.5,96.9,53.4
		L96.9,53.4z M105.6,53.7c-0.6,0-1.3-0.2-1.7-0.6c-0.4-0.4-0.7-0.9-0.6-1.5c0-0.7,0.3-1.4,1-1.8c0.8-0.5,1.8-0.8,2.8-0.8L108,49
		c0.2,0,0.2-0.1,0.2-0.2v-0.4c0-0.5-0.2-0.9-0.5-1.2c-0.4-0.3-0.8-0.5-1.3-0.4c-0.8,0-1.6,0.4-2,1.1c0,0,0,0.1-0.1,0.1
		c0,0-0.1,0-0.1,0l-0.8-0.3c0,0-0.1-0.1-0.1-0.1c0,0,0-0.1,0-0.1c0.3-0.5,0.7-0.9,1.2-1.2c0.6-0.3,1.2-0.4,1.9-0.4
		c0.8-0.1,1.5,0.2,2.1,0.6c0.5,0.5,0.8,1.1,0.7,1.8v5c0,0.1,0,0.1,0,0.2c0,0-0.1,0-0.2,0h-0.7c-0.1,0-0.2-0.1-0.2-0.2l0-0.7
		c0-0.1,0-0.1-0.1-0.1c-0.1,0-0.1,0-0.1,0.1C107.4,53.3,106.5,53.7,105.6,53.7L105.6,53.7z M108.1,49.7l-0.9,0.1
		c-0.7,0-1.4,0.2-2,0.5c-0.4,0.2-0.7,0.7-0.7,1.2c0,0.4,0.1,0.7,0.4,1c0.3,0.3,0.7,0.4,1.2,0.4c0.3,0,0.6-0.1,0.9-0.2
		c0.3-0.1,0.5-0.2,0.8-0.4c0.2-0.2,0.4-0.3,0.5-0.5c0.1-0.2,0.2-0.4,0.2-0.6v-1.2C108.3,49.8,108.2,49.7,108.1,49.7L108.1,49.7z
		 M114.9,46.9c-0.1,0-0.1,0-0.1,0.1v4.5c0,0.3,0,0.6,0.2,0.9c0.2,0.2,0.4,0.3,0.7,0.2h1c0.1,0,0.1,0,0.2,0.1c0,0,0,0,0,0l0,0.5
		c0,0.1-0.1,0.2-0.2,0.2c-0.4,0.1-0.9,0.1-1.3,0.1c-0.5,0-0.9-0.1-1.3-0.4c-0.3-0.4-0.5-0.8-0.4-1.3V47c0-0.1,0-0.2-0.1-0.2h-1.1
		c-0.1,0-0.2,0-0.2-0.1v-0.6c0-0.1,0-0.1,0.1-0.1c0,0,0,0,0,0h1.2c0.1,0,0.1,0,0.1-0.1l0.2-2.3c0-0.1,0.1-0.2,0.2-0.2h0.7
		c0.1,0,0.2,0.1,0.2,0.2v2.2c0,0.1,0,0.1,0.1,0.1c0,0,0,0,0,0h1.8c0.1,0,0.2,0,0.2,0.1v0.6c0,0.1-0.1,0.1-0.2,0.1L114.9,46.9z
		 M121.1,44.4c0,0.1,0,0.1-0.1,0.2c-0.1,0-0.1,0.1-0.2,0.1H120c-0.1,0-0.2-0.1-0.2-0.2v-1.2c0-0.2,0.1-0.2,0.2-0.2h0.9
		c0.1,0,0.1,0,0.1,0.1c0,0,0.1,0.1,0.1,0.2L121.1,44.4z M121,53.3c0,0.1,0,0.1-0.1,0.2c-0.1,0-0.1,0.1-0.2,0.1h-0.7
		c-0.1,0-0.1,0-0.2,0c0,0,0-0.1,0-0.2v-7.1c0-0.1,0.1-0.2,0.2-0.2h0.9c0.1,0,0.2,0.1,0.2,0.2V53.3z M125.9,53.2
		c-0.5-0.3-1-0.8-1.3-1.4c-0.6-1.3-0.6-2.8,0-4.1c0.9-1.8,3.1-2.4,4.9-1.5c0,0,0.1,0.1,0.1,0.1c0.5,0.3,1,0.8,1.3,1.4
		c0.3,0.6,0.5,1.3,0.4,2c0,0.7-0.1,1.4-0.5,2c-0.3,0.6-0.7,1-1.3,1.4c-0.6,0.3-1.2,0.5-1.9,0.5C127.2,53.7,126.5,53.5,125.9,53.2
		L125.9,53.2z M129.6,52c0.8-1.4,0.8-3.1,0-4.4c-0.4-0.5-1.1-0.8-1.7-0.8c-0.7,0-1.3,0.3-1.7,0.8c-0.9,1.3-0.9,3.1,0,4.4
		c0.4,0.5,1.1,0.8,1.8,0.8C128.5,52.8,129.2,52.5,129.6,52L129.6,52z M134.6,53.4v-7.2c0-0.1,0.1-0.2,0.2-0.2h0.9
		c0.1,0,0.1,0,0.2,0.1c0,0,0,0,0,0V47c0,0.1,0,0.1,0.1,0c0.4-0.3,0.9-0.6,1.4-0.9c0.4-0.2,0.8-0.3,1.3-0.3c0.6,0,1.2,0.2,1.7,0.6
		c0.4,0.4,0.6,1,0.6,1.6v5.3c0,0.2-0.1,0.2-0.2,0.2h-0.8c-0.1,0-0.2,0-0.2-0.1c0,0,0,0,0,0v-5.1c0-0.4-0.1-0.8-0.4-1.1
		c-0.3-0.3-0.7-0.4-1.1-0.4c-0.4,0-0.8,0.1-1.1,0.3c-0.4,0.3-0.9,0.5-1.2,0.9v5.4c0,0.1,0,0.2-0.1,0.2c0,0,0,0-0.1,0h-0.8
		C134.7,53.5,134.6,53.5,134.6,53.4L134.6,53.4z M145.4,53.3c0,0.1,0,0.1-0.1,0.2c-0.1,0-0.1,0.1-0.2,0.1h-1c-0.1,0-0.1,0-0.2,0
		c0,0-0.1-0.1,0-0.2v-1.2c0-0.1,0.1-0.2,0.2-0.2h1.2c0.1,0,0.1,0.1,0.1,0.2L145.4,53.3z M152.7,43.1c0-0.1,0.1-0.2,0.2-0.2h7.7
		c0.1,0,0.2,0.1,0.2,0.2v0.7c0,0,0,0.1,0,0.1c0,0-0.1,0-0.1,0h-2.9c0,0-0.1,0-0.1,0c0,0,0,0.1,0,0.1v9.2c0,0.1-0.1,0.2-0.2,0.2h-1
		c-0.1,0-0.2-0.1-0.2-0.2v-9.2c0,0,0-0.1,0-0.1c0,0-0.1,0-0.1,0h-3.1c0,0-0.1,0-0.1,0c0,0,0-0.1,0-0.1L152.7,43.1z M162.6,53.4v-7.2
		c0-0.1,0.1-0.2,0.2-0.2h0.8c0.1,0,0.1,0,0.2,0.1c0,0,0,0,0,0v0.9c0,0.1,0,0.1,0,0.1s0.1,0,0.1-0.1c0.5-0.7,1.3-1.2,2.2-1.3
		c0.3,0,0.5,0.1,0.5,0.2v0.9c0,0.1,0,0.1-0.1,0.1c-0.2,0-0.4,0-0.6,0c-0.3,0-0.6,0.1-0.9,0.2c-0.3,0.2-0.6,0.4-0.8,0.6
		c-0.2,0.2-0.3,0.5-0.3,0.8v4.7c0,0.1-0.1,0.2-0.2,0.2c0,0,0,0-0.1,0h-0.8C162.7,53.5,162.6,53.5,162.6,53.4L162.6,53.4z
		 M171.3,53.7c-0.6,0-1.3-0.2-1.7-0.6c-0.4-0.4-0.7-0.9-0.6-1.5c0-0.7,0.3-1.4,1-1.8c0.8-0.5,1.8-0.8,2.8-0.8l1.1-0.1
		c0.2,0,0.2-0.1,0.2-0.2v-0.4c0-0.5-0.2-0.9-0.5-1.2c-0.4-0.3-0.8-0.5-1.3-0.4c-0.8,0-1.6,0.4-2,1.1c0,0,0,0.1-0.1,0.1
		c0,0-0.1,0-0.1,0l-0.8-0.3c0,0-0.1-0.1-0.1-0.1c0,0,0-0.1,0-0.1c0.3-0.5,0.7-0.9,1.2-1.2c0.6-0.3,1.2-0.4,1.9-0.4
		c0.8-0.1,1.5,0.2,2.1,0.6c0.5,0.5,0.8,1.1,0.7,1.8v5c0,0.1,0,0.1,0,0.2c0,0-0.1,0-0.2,0h-0.7c-0.1,0-0.2-0.1-0.2-0.2l0-0.7
		c0-0.1,0-0.1-0.1-0.1c-0.1,0-0.1,0-0.1,0.1C173.2,53.3,172.3,53.7,171.3,53.7L171.3,53.7z M173.8,49.7l-0.9,0.1
		c-0.7,0-1.4,0.2-2,0.5c-0.4,0.2-0.7,0.7-0.7,1.2c0,0.4,0.1,0.7,0.4,1c0.3,0.3,0.7,0.4,1.2,0.4c0.3,0,0.6-0.1,0.9-0.2
		c0.3-0.1,0.5-0.2,0.8-0.4c0.2-0.2,0.4-0.3,0.5-0.5c0.1-0.2,0.2-0.4,0.2-0.6v-1.2C174,49.8,174,49.7,173.8,49.7L173.8,49.7z
		 M178.7,53.4v-7.2c0-0.1,0.1-0.2,0.2-0.2h0.9c0.1,0,0.1,0,0.2,0.1c0,0,0,0,0,0V47c0,0.1,0,0.1,0.1,0c0.4-0.3,0.9-0.6,1.4-0.9
		c0.4-0.2,0.8-0.3,1.3-0.3c0.6,0,1.2,0.2,1.7,0.6c0.4,0.4,0.6,1,0.6,1.6v5.3c0,0.2-0.1,0.2-0.2,0.2h-0.8c-0.1,0-0.2,0-0.2-0.1
		c0,0,0,0,0,0v-5.1c0-0.4-0.1-0.8-0.4-1.1c-0.3-0.3-0.7-0.4-1.1-0.4c-0.4,0-0.8,0.1-1.1,0.3c-0.4,0.3-0.9,0.5-1.2,0.9v5.4
		c0,0.1,0,0.1,0,0.2c0,0-0.1,0.1-0.2,0.1h-0.8C178.7,53.5,178.7,53.5,178.7,53.4L178.7,53.4z M192.1,47c-0.4-0.2-0.8-0.3-1.2-0.3
		c-0.5,0-0.9,0.1-1.3,0.3c-0.3,0.2-0.5,0.5-0.5,0.9c0,0.2,0.1,0.4,0.2,0.6c0.3,0.2,0.6,0.4,0.9,0.5l1.8,0.5c0.5,0.1,1,0.4,1.4,0.8
		c0.3,0.3,0.5,0.8,0.5,1.2c0,0.4-0.1,0.8-0.4,1.2c-0.3,0.4-0.7,0.6-1.1,0.8c-1.1,0.4-2.4,0.4-3.5-0.2c-0.5-0.2-0.9-0.6-1.2-1.1
		c0,0,0-0.1,0-0.1c0,0,0-0.1,0.1-0.1l0.6-0.3c0.1-0.1,0.2-0.1,0.2,0c0.5,0.8,1.4,1.3,2.4,1.2c0.5,0,1-0.1,1.4-0.3
		c0.3-0.2,0.5-0.5,0.5-0.9c0-0.3-0.1-0.5-0.3-0.7c-0.3-0.2-0.7-0.4-1.1-0.5l-1.5-0.4c-0.6-0.1-1.1-0.4-1.5-0.8
		c-0.3-0.3-0.5-0.7-0.4-1.2c0-0.4,0.1-0.8,0.4-1.2c0.3-0.4,0.6-0.6,1-0.8c1-0.4,2.2-0.4,3.2,0.1c0.5,0.2,0.9,0.5,1.1,1
		c0.1,0.1,0.1,0.2,0,0.2l-0.6,0.3c0,0-0.1,0-0.1,0c-0.1,0-0.1,0-0.1-0.1C192.7,47.4,192.4,47.1,192.1,47L192.1,47z M198.3,46.2v0.6
		c0,0.1,0,0.1,0.1,0.1c0,0,0.1,0,0.1-0.1c0.2-0.2,0.4-0.4,0.5-0.5c0.2-0.2,0.4-0.3,0.7-0.4c0.3-0.1,0.7-0.2,1-0.2
		c0.6,0,1.1,0.1,1.6,0.4c0.5,0.3,0.9,0.8,1.1,1.3c0.3,0.7,0.4,1.4,0.4,2.1c0,0.7-0.1,1.5-0.4,2.2c-0.5,1.2-1.6,1.9-2.9,1.9
		c-0.7,0-1.5-0.2-2-0.7c-0.1-0.1-0.1-0.1-0.2-0.1s-0.1,0.1-0.1,0.2v2.6c0,0.1-0.1,0.2-0.2,0.2h-0.9c-0.1,0-0.2-0.1-0.2-0.2v-9.5
		c0-0.1,0-0.1,0-0.2c0,0,0.1-0.1,0.2-0.1h0.8C198.2,46,198.3,46.1,198.3,46.2L198.3,46.2z M199.2,52.6c0.3,0.2,0.7,0.2,1,0.2
		c0.7,0,1.3-0.3,1.7-0.8c0.5-0.7,0.7-1.5,0.6-2.3c0.1-0.8-0.2-1.6-0.6-2.2c-0.7-0.7-1.8-0.9-2.7-0.5c-0.3,0.2-0.5,0.4-0.7,0.6
		c-0.2,0.2-0.3,0.5-0.3,0.8v3.5C198.6,52.2,198.9,52.4,199.2,52.6L199.2,52.6z M208.9,53.7c-0.6,0-1.3-0.2-1.7-0.6
		c-0.4-0.4-0.7-0.9-0.6-1.5c0-0.7,0.3-1.4,1-1.8c0.8-0.5,1.8-0.8,2.8-0.8l1.1-0.1c0.2,0,0.2-0.1,0.2-0.2v-0.4c0-0.5-0.2-0.9-0.5-1.2
		c-0.4-0.3-0.8-0.5-1.3-0.4c-0.8,0-1.6,0.4-2,1.1c0,0,0,0.1-0.1,0.1c0,0-0.1,0-0.1,0l-0.8-0.3c0,0-0.1-0.1-0.1-0.1c0,0,0-0.1,0-0.1
		c0.3-0.5,0.7-0.9,1.2-1.2c0.6-0.3,1.2-0.4,1.9-0.4c0.8-0.1,1.5,0.2,2.1,0.6c0.5,0.5,0.8,1.1,0.7,1.8v5c0,0.1,0,0.1,0,0.2
		c0,0-0.1,0-0.2,0h-0.7c-0.1,0-0.2-0.1-0.2-0.2l0-0.7c0-0.1,0-0.1-0.1-0.1c-0.1,0-0.1,0-0.1,0.1C210.7,53.3,209.8,53.7,208.9,53.7
		L208.9,53.7z M211.4,49.7l-0.9,0.1c-0.7,0-1.4,0.2-2,0.5c-0.4,0.2-0.7,0.7-0.7,1.2c0,0.4,0.1,0.7,0.4,1c0.3,0.3,0.7,0.4,1.2,0.4
		c0.3,0,0.6-0.1,0.9-0.2c0.3-0.1,0.5-0.2,0.8-0.4c0.2-0.2,0.4-0.3,0.5-0.5c0.1-0.2,0.2-0.4,0.2-0.6v-1.2
		C211.6,49.8,211.5,49.7,211.4,49.7L211.4,49.7z M216.2,53.4v-7.2c0-0.1,0.1-0.2,0.2-0.2h0.8c0.1,0,0.1,0,0.2,0.1c0,0,0,0,0,0v0.9
		c0,0.1,0,0.1,0,0.1s0.1,0,0.1-0.1c0.5-0.7,1.3-1.2,2.2-1.3c0.3,0,0.5,0.1,0.5,0.2v0.9c0,0.1,0,0.1-0.1,0.1c-0.2,0-0.4,0-0.6,0
		c-0.3,0-0.6,0.1-0.9,0.2c-0.3,0.2-0.6,0.4-0.8,0.6c-0.2,0.2-0.3,0.5-0.3,0.8v4.7c0,0.1-0.1,0.2-0.2,0.2c0,0,0,0-0.1,0h-0.8
		C216.3,53.5,216.2,53.5,216.2,53.4L216.2,53.4z M224,51.5c0.2,0.4,0.5,0.7,0.9,0.9c0.4,0.2,0.8,0.3,1.3,0.3c0.9,0,1.7-0.4,2.2-1.2
		c0,0,0.1-0.1,0.1-0.1c0,0,0.1,0,0.1,0l0.6,0.3c0.1,0,0.1,0.1,0,0.2c-0.3,0.5-0.8,1-1.3,1.2c-0.6,0.3-1.2,0.4-1.8,0.4
		c-0.7,0-1.3-0.2-1.9-0.5c-0.5-0.3-1-0.8-1.3-1.4c-0.3-0.6-0.5-1.3-0.5-2c0-0.7,0.1-1.5,0.5-2.1c0.3-0.6,0.7-1.1,1.3-1.4
		c0.6-0.3,1.2-0.5,1.8-0.5c0.6,0,1.3,0.1,1.8,0.5c0.5,0.3,0.9,0.8,1.2,1.3c0.3,0.6,0.4,1.4,0.4,2.1v0.1c0,0.1,0,0.1,0,0.2
		c0,0-0.1,0.1-0.2,0.1h-5.4c-0.1,0-0.1,0.1-0.1,0.2C223.7,50.7,223.8,51.1,224,51.5L224,51.5z M228.1,49.2c0.1,0,0.1,0,0.2,0
		c0,0,0-0.1,0-0.2c0-0.4-0.1-0.8-0.3-1.2c-0.2-0.4-0.4-0.6-0.8-0.9c-0.4-0.2-0.8-0.3-1.2-0.3c-0.4,0-0.9,0.1-1.3,0.4
		c-0.4,0.2-0.6,0.6-0.8,0.9c-0.2,0.4-0.3,0.8-0.3,1.2L228.1,49.2z M232.6,53.4v-7.2c0-0.1,0.1-0.2,0.2-0.2h0.9c0.1,0,0.1,0,0.2,0.1
		c0,0,0,0,0,0V47c0,0.1,0,0.1,0.1,0c0.4-0.3,0.9-0.6,1.4-0.9c0.4-0.2,0.8-0.3,1.3-0.3c0.6,0,1.2,0.2,1.7,0.6c0.4,0.4,0.6,1,0.6,1.6
		v5.3c0,0.2-0.1,0.2-0.2,0.2h-0.8c-0.1,0-0.2,0-0.2-0.1c0,0,0,0,0,0v-5.1c0-0.4-0.1-0.8-0.4-1.1c-0.3-0.3-0.7-0.4-1.1-0.4
		c-0.4,0-0.8,0.1-1.1,0.3c-0.4,0.3-0.9,0.5-1.2,0.9v5.4c0,0.1,0,0.2-0.1,0.2c0,0,0,0-0.1,0h-0.8C232.7,53.5,232.6,53.5,232.6,53.4
		L232.6,53.4z M247.2,46.3c0.5,0.3,0.9,0.8,1.2,1.3l0,0.1c0,0.1,0,0.1-0.1,0.1l-0.8,0.2l0,0c0,0-0.1,0-0.1-0.1
		c-0.2-0.3-0.5-0.6-0.9-0.9c-0.3-0.2-0.6-0.3-1-0.3c-0.7,0-1.3,0.3-1.8,0.8c-0.9,1.3-0.9,3.1,0,4.4c0.4,0.5,1.1,0.8,1.8,0.8
		c0.4,0,0.8-0.1,1.2-0.3c0.4-0.3,0.7-0.6,0.9-1c0,0,0.1-0.1,0.1-0.1c0,0,0.1,0,0.1,0l0.6,0.2c0.1,0,0.1,0.1,0.1,0.2
		c-0.3,0.5-0.7,1-1.2,1.3c-0.5,0.4-1.2,0.5-1.8,0.5c-0.6,0-1.3-0.2-1.8-0.5c-0.5-0.3-1-0.8-1.3-1.4c-0.3-0.6-0.5-1.3-0.5-2
		c0-0.7,0.1-1.4,0.5-2c0.3-0.6,0.7-1.1,1.3-1.4c0.6-0.3,1.2-0.5,1.8-0.5C246.1,45.8,246.7,46,247.2,46.3L247.2,46.3z M251.2,55.9
		c-0.1,0-0.2-0.1-0.2-0.2v-0.6c0-0.1,0-0.1,0.1-0.1c0.1,0,0.2-0.1,0.3,0h0.9c0.2,0,0.5-0.1,0.6-0.2c0.4-0.3,0.6-0.8,0.6-1.3
		c0-0.1,0-0.2-0.1-0.3l-2.7-6.8c0,0,0-0.1,0-0.1c0-0.1,0.1-0.2,0.2-0.2h0.9c0.1,0,0.2,0.1,0.2,0.2l2.1,5.5c0,0.1,0.1,0.1,0.1,0.1
		s0.1-0.1,0.1-0.2l2.1-5.5c0-0.1,0.1-0.2,0.2-0.2h0.7c0.1,0,0.1,0,0.1,0.1c0,0,0,0.1,0,0.1l-3.1,8c-0.2,0.5-0.5,1-1,1.3
		c-0.5,0.3-1,0.4-1.5,0.4C251.6,55.9,251.4,55.9,251.2,55.9L251.2,55.9z M260.6,53.3c0,0.1,0,0.1-0.1,0.2c-0.1,0-0.1,0.1-0.2,0.1h-1
		c-0.1,0-0.1,0-0.2,0c0,0-0.1-0.1,0-0.2v-1.2c0-0.1,0.1-0.2,0.2-0.2h1.2c0.1,0,0.1,0.1,0.1,0.2L260.6,53.3z M275.1,52.8
		c-0.8,0.6-1.8,1-2.8,0.9c-1.1,0.1-2.1-0.3-2.9-1c-0.7-0.8-1-1.9-0.9-2.9v-6.6c0-0.1,0.1-0.2,0.2-0.2h1c0.1,0,0.2,0.1,0.2,0.2v6.9
		c-0.2,1.2,0.7,2.4,1.9,2.5c0.2,0,0.4,0,0.7,0c1.2,0.2,2.4-0.7,2.6-1.9c0-0.2,0-0.4,0-0.7v-6.9c0-0.1,0.1-0.2,0.2-0.2h0.8
		c0.1,0,0.2,0.1,0.2,0.2V50C276.2,51,275.8,52,275.1,52.8L275.1,52.8z M279.9,53.4v-7.2c0-0.1,0.1-0.2,0.2-0.2h0.8
		c0.1,0,0.1,0,0.2,0.1c0,0,0,0,0,0v0.9c0,0.1,0,0.1,0,0.1s0.1,0,0.1-0.1c0.5-0.7,1.3-1.2,2.2-1.3c0.3,0,0.5,0.1,0.5,0.2v0.9
		c0,0.1,0,0.1-0.1,0.1c-0.2,0-0.4,0-0.6,0c-0.3,0-0.6,0.1-0.9,0.2c-0.3,0.2-0.6,0.4-0.8,0.6c-0.2,0.2-0.3,0.5-0.3,0.8v4.7
		c0,0.1-0.1,0.2-0.2,0.2c0,0,0,0-0.1,0h-0.8C279.9,53.5,279.9,53.5,279.9,53.4L279.9,53.4z M293.8,46.1v0.5c0,0.1,0,0.1-0.1,0.2
		c-0.1,0-0.1,0.1-0.2,0.1c-0.3,0-0.5,0-0.7,0.1c-0.2,0.1-0.3,0.2-0.3,0.3c0,0.1,0.1,0.1,0.1,0.2c0,0.1,0.1,0.2,0.1,0.3
		c0,0.1,0,0.3,0,0.4c0,0.6-0.3,1.3-0.8,1.6c-0.7,0.5-1.5,0.7-2.3,0.6c-0.5,0-1,0-1.5,0.2c-0.3,0.1-0.4,0.3-0.4,0.4
		c0,0.1,0.1,0.2,0.3,0.3c0.3,0.1,0.7,0.1,1,0.1l1.8,0.1c0.7,0,1.3,0.2,1.8,0.6c0.4,0.3,0.6,0.9,0.6,1.4c0,0.7-0.3,1.3-0.9,1.7
		c-0.8,0.5-1.8,0.7-2.7,0.6c-0.9,0.1-1.9-0.1-2.8-0.5c-0.6-0.3-1-0.8-0.9-1.5c0-0.6,0.4-1.2,1.3-1.6c0.1,0,0.1-0.1,0-0.2
		c-0.4-0.1-0.6-0.4-0.7-0.8c0-0.2,0.1-0.4,0.3-0.6c0.2-0.2,0.5-0.4,0.8-0.5c0,0,0.1,0,0.1-0.1c0,0,0-0.1-0.1-0.1
		c-0.4-0.2-0.7-0.5-0.9-0.8c-0.2-0.3-0.3-0.7-0.3-1.1c0-0.7,0.3-1.3,0.8-1.7c0.7-0.5,1.5-0.7,2.4-0.6c0.8,0,1.5,0.2,2.1,0.6
		c0,0,0.1,0.1,0.1,0.1c0.1,0,0.1,0,0.2-0.1c0.2-0.2,0.4-0.3,0.6-0.5c0.2-0.1,0.5-0.2,0.7-0.2C293.7,45.9,293.8,45.9,293.8,46.1z
		 M288.4,52.6c-0.2,0-0.4,0.1-0.6,0.1c-0.2,0.1-0.4,0.3-0.6,0.5c-0.1,0.2-0.2,0.4-0.2,0.7c0,0.5,0.3,0.9,0.7,1
		c0.7,0.3,1.4,0.4,2.1,0.4c1.6,0,2.4-0.5,2.4-1.4c0-0.3-0.1-0.6-0.3-0.8c-0.3-0.2-0.7-0.3-1.1-0.3L288.4,52.6z M291.1,49.4
		c0.3-0.3,0.5-0.7,0.5-1.2c0-0.5-0.2-0.9-0.5-1.2c-0.4-0.3-0.9-0.5-1.5-0.4c-0.5,0-1,0.1-1.5,0.4c-0.4,0.3-0.5,0.7-0.5,1.2
		c0,0.4,0.2,0.9,0.5,1.1c0.4,0.3,1,0.4,1.5,0.4C290.2,49.8,290.7,49.7,291.1,49.4L291.1,49.4z M297.7,51.5c0.2,0.4,0.5,0.7,0.9,0.9
		c0.4,0.2,0.8,0.3,1.3,0.3c0.9,0,1.7-0.4,2.2-1.2c0,0,0.1-0.1,0.1-0.1c0,0,0.1,0,0.1,0l0.6,0.3c0.1,0,0.1,0.1,0,0.2
		c-0.3,0.5-0.8,1-1.3,1.2c-0.6,0.3-1.2,0.4-1.8,0.4c-0.7,0-1.3-0.2-1.9-0.5c-0.5-0.3-1-0.8-1.3-1.4c-0.3-0.6-0.5-1.3-0.5-2
		c0-0.7,0.1-1.5,0.5-2.1c0.3-0.6,0.7-1.1,1.3-1.4c0.6-0.3,1.2-0.5,1.8-0.5c0.6,0,1.3,0.1,1.8,0.5c0.5,0.3,0.9,0.8,1.2,1.3
		c0.3,0.6,0.4,1.4,0.4,2.1v0.1c0,0.1,0,0.1,0,0.2c0,0-0.1,0.1-0.2,0.1h-5.4c-0.1,0-0.1,0.1-0.1,0.2
		C297.4,50.7,297.5,51.1,297.7,51.5L297.7,51.5z M301.8,49.2c0.1,0,0.1,0,0.2,0c0,0,0.1-0.1,0-0.2c0-0.4-0.1-0.8-0.3-1.2
		c-0.2-0.4-0.4-0.6-0.8-0.9c-0.4-0.2-0.8-0.3-1.2-0.3c-0.4,0-0.9,0.1-1.3,0.4c-0.4,0.2-0.6,0.6-0.8,0.9c-0.2,0.4-0.3,0.8-0.3,1.2
		L301.8,49.2z M306.3,53.4v-7.2c0-0.1,0.1-0.2,0.2-0.2h0.9c0.1,0,0.1,0,0.2,0.1c0,0,0,0,0,0V47c0,0.1,0,0.1,0.1,0
		c0.4-0.3,0.9-0.6,1.4-0.9c0.4-0.2,0.8-0.3,1.3-0.3c0.6,0,1.2,0.2,1.7,0.6c0.4,0.4,0.6,1,0.6,1.6v5.3c0,0.2-0.1,0.2-0.2,0.2h-0.8
		c-0.1,0-0.2,0-0.2-0.1c0,0,0,0,0,0v-5.1c0-0.4-0.1-0.8-0.4-1.1c-0.3-0.3-0.7-0.4-1.1-0.4c-0.4,0-0.8,0.1-1.1,0.3
		c-0.4,0.3-0.9,0.5-1.2,0.9v5.4c0,0.1,0,0.1,0,0.2c0,0-0.1,0.1-0.2,0.1h-0.8C306.4,53.5,306.3,53.5,306.3,53.4L306.3,53.4z
		 M320.9,46.3c0.5,0.3,0.9,0.8,1.2,1.3l0,0.1c0,0.1,0,0.1-0.1,0.1l-0.8,0.2l0,0c0,0-0.1,0-0.1-0.1c-0.2-0.3-0.5-0.6-0.9-0.9
		c-0.3-0.2-0.6-0.3-1-0.3c-0.7,0-1.3,0.3-1.8,0.8c-0.9,1.3-0.9,3.1,0,4.4c0.4,0.5,1.1,0.8,1.8,0.8c0.4,0,0.8-0.1,1.2-0.3
		c0.4-0.3,0.7-0.6,0.9-1c0,0,0.1-0.1,0.1-0.1c0,0,0.1,0,0.1,0l0.6,0.2c0.1,0,0.1,0.1,0.1,0.2c-0.3,0.5-0.7,1-1.2,1.3
		c-0.5,0.4-1.2,0.5-1.8,0.5c-0.6,0-1.3-0.2-1.8-0.5c-0.5-0.3-1-0.8-1.3-1.4c-0.3-0.6-0.5-1.3-0.5-2c0-0.7,0.1-1.4,0.5-2
		c0.3-0.6,0.7-1.1,1.3-1.4c0.6-0.3,1.2-0.5,1.8-0.5C319.8,45.8,320.4,46,320.9,46.3L320.9,46.3z M324.9,55.9c-0.1,0-0.2-0.1-0.2-0.2
		v-0.6c0-0.1,0-0.1,0.1-0.1c0.1,0,0.2-0.1,0.3,0h0.9c0.2,0,0.5-0.1,0.6-0.2c0.4-0.3,0.6-0.8,0.6-1.3c0-0.1,0-0.2-0.1-0.3l-2.7-6.8
		c0,0,0-0.1,0-0.1c0-0.1,0.1-0.2,0.2-0.2h0.9c0.1,0,0.2,0.1,0.2,0.2l2.1,5.5c0,0.1,0.1,0.1,0.1,0.1s0.1-0.1,0.1-0.2l2.1-5.5
		c0-0.1,0.1-0.2,0.2-0.2h0.7c0.1,0,0.1,0,0.1,0.1c0,0,0,0.1,0,0.1l-3.1,8c-0.2,0.5-0.5,1-1,1.3c-0.5,0.3-1,0.4-1.5,0.4
		C325.3,55.9,325.1,55.9,324.9,55.9L324.9,55.9z M334.3,53.3c0,0.1,0,0.1-0.1,0.2c-0.1,0-0.1,0.1-0.2,0.1h-1c-0.1,0-0.1,0-0.2,0
		c0,0-0.1-0.1,0-0.2v-1.2c0-0.1,0.1-0.2,0.2-0.2h1.2c0.1,0,0.1,0.1,0.1,0.2L334.3,53.3z"/>
</g>
<g id="Layer_1" class="st0">
	<path class="st3" d="M125.3,32.9H14.5v2.2h113L125.3,32.9z"/>
	<path class="st4" d="M244.6,32.9l2.2,2.2h110.8v-2.2H244.6z"/>
	<path class="st5" d="M239.7,32.9H130.3l2.2,2.2h109.4L239.7,32.9z"/>
	<path class="st1" d="M4.5,6.6c0.5,0.7,1,1.3,1.7,1.8C6.9,9,7.8,9.6,8.9,10.4c1,0.7,2,1.4,3,2.1c0.8,0.6,1.4,1.4,1.9,2.2
		c0.5,0.9,0.8,1.9,0.8,3c0,1.2-0.3,2.5-1.1,3.5c-0.7,1-1.7,1.9-2.9,2.4c-1.3,0.6-2.7,0.9-4.2,0.8c-1.2,0-2.4-0.2-3.5-0.5
		c-0.9-0.2-1.7-0.5-2.5-1c-0.1-0.1-0.2-0.2-0.3-0.3c-0.1-0.1-0.1-0.3-0.1-0.4l-0.1-6v0C0,16.1,0.1,16,0.2,16s0.2,0,0.2,0.1
		c0.8,1.5,1.4,2.8,2,3.7c0.6,1,1.3,1.8,2.1,2.5c0.8,0.7,1.9,1.1,3,1.1c0.9,0,1.8-0.3,2.5-0.8c0.7-0.7,1.1-1.7,1-2.8
		c0-1-0.2-2-0.7-2.9c-0.5-0.8-1.1-1.5-1.8-2.1c-0.9-0.7-1.9-1.4-2.9-2.1c-1-0.6-1.9-1.3-2.8-2c-0.7-0.6-1.3-1.2-1.7-2
		C0.5,8,0.3,7,0.3,6.1c0-1.2,0.4-2.4,1.1-3.4c0.8-0.9,1.8-1.6,3-2C5.6,0.2,6.9,0,8.2,0c0.9,0,1.8,0.1,2.7,0.2
		c0.7,0.1,1.5,0.3,2.2,0.6c0.2,0.1,0.3,0.2,0.5,0.3c0.1,0.1,0.1,0.3,0.1,0.4v5.5c0,0.1-0.1,0.1-0.2,0.2c-0.1,0-0.2,0-0.2-0.1
		l-0.3-0.7c-0.5-1.4-1.3-2.8-2.2-4C9.9,1.4,8.6,0.8,7.2,0.8c-0.9,0-1.8,0.3-2.5,0.9c-0.7,0.7-1,1.6-1,2.5C3.8,5.1,4,5.9,4.5,6.6z
		 M34.3,6.5c0,0.1,0,0.2-0.1,0.2c-0.8,0.1-1.6,0.5-2.1,1.1c-0.9,0.8-1.7,1.7-2.3,2.7l-2.9,4.9v6.3c0,0.4,0,0.9,0.1,1.3
		c0.1,0.3,0.3,0.5,0.6,0.5c0.4,0.1,0.9,0.2,1.3,0.1c0.1,0,0.1,0.1,0.1,0.2s0,0.2-0.1,0.2c-0.6,0-1.1,0-1.5,0l-2.1,0l-2.1,0
		c-0.4,0-0.9,0-1.5,0c0,0-0.1-0.1-0.1-0.2s0-0.2,0.1-0.2c0.4,0,0.9,0,1.3-0.1c0.3-0.1,0.5-0.3,0.6-0.6c0.1-0.4,0.2-0.8,0.2-1.3V16
		l-4.1-6.4c-0.5-0.8-1.1-1.6-1.7-2.3c-0.3-0.3-0.7-0.6-1.2-0.6c-0.1,0-0.1-0.1-0.1-0.2s0-0.2,0.1-0.2l0.9,0c0.4,0,0.7,0.1,0.9,0.1
		c0.7,0,1.6,0,2.9-0.1l1.9,0c0,0,0.1,0.1,0.1,0.2s0,0.2-0.1,0.2c-0.3,0-0.5,0.1-0.7,0.2c-0.2,0.1-0.3,0.4-0.3,0.6
		c0,0.4,0.2,0.8,0.4,1.1l3.9,6.1l2.6-4.4c0.4-0.6,0.7-1.4,0.8-2.2c0-0.4-0.1-0.8-0.4-1c-0.3-0.3-0.8-0.4-1.2-0.4
		c-0.1,0-0.1-0.1-0.1-0.2s0-0.2,0.1-0.2l1.5,0c0.9,0,1.6,0.1,2.3,0.1c0.3,0,0.7,0,1.2-0.1l1,0C34.3,6.3,34.3,6.4,34.3,6.5z
		 M54.5,6.5c0,0.1,0,0.2-0.1,0.2c-0.7,0-1.4,0.3-1.8,0.9c-0.5,0.7-0.7,1.5-0.7,2.4v14.5c0,0.1,0,0.1-0.1,0.1c-0.1,0-0.1,0-0.2,0
		L38.5,9.4v11c0,0.8,0.2,1.7,0.6,2.4c0.4,0.6,1,0.9,1.7,0.9c0,0,0.1,0.1,0.1,0.2c0,0.1,0,0.2-0.1,0.2c-0.5,0-0.9,0-1.2,0l-1.5,0
		l-1.8,0c-0.3,0-0.8,0-1.4,0c-0.1,0-0.1-0.1-0.1-0.2s0-0.2,0.1-0.2c0.8,0,1.5-0.3,2-0.9c0.5-0.7,0.8-1.5,0.7-2.4V8.4
		c-0.5-0.5-1-1-1.6-1.4c-0.4-0.2-0.9-0.4-1.4-0.4c0,0-0.1-0.1-0.1-0.2s0-0.2,0.1-0.2l1.2,0c0.2,0,0.6,0,1.1,0l2.1,0c0.3,0,0.6,0,1,0
		c0.1,0,0.2,0,0.3,0.1c0.1,0.2,0.3,0.3,0.4,0.5c0.3,0.4,0.5,0.7,0.7,0.9L51.2,19V9.9c0-0.8-0.2-1.7-0.6-2.4c-0.4-0.6-1-0.9-1.7-0.9
		c0,0-0.1-0.1-0.1-0.2s0-0.2,0.1-0.2l1.2,0c0.6,0,1.1,0.1,1.5,0.1c0.4,0,0.9,0,1.6-0.1l1.3,0C54.5,6.3,54.5,6.4,54.5,6.5z
		 M63.2,22.8c-2-1-3.7-2.5-4.9-4.3c-1.1-1.8-1.7-3.9-1.7-6.1c0-2.3,0.6-4.5,1.9-6.4c1.3-1.9,3.1-3.4,5.3-4.4C66.2,0.5,68.8,0,71.4,0
		c1.2,0,2.4,0.1,3.6,0.3c1,0.1,2,0.4,2.9,0.7c0.2,0,0.3,0.1,0.5,0.2c0.1,0.2,0.1,0.4,0.1,0.6l0.5,5.2c0,0.1-0.1,0.1-0.2,0.2
		s-0.2,0-0.2-0.1c-0.4-1-0.9-1.9-1.6-2.7c-0.8-1-1.8-1.9-2.9-2.6c-1.2-0.7-2.7-1.1-4.1-1.1c-1.6,0-3.1,0.4-4.4,1.3
		c-1.4,0.9-2.5,2.2-3.1,3.8c-0.8,1.8-1.2,3.7-1.1,5.7c0,2.2,0.4,4.3,1.3,6.3c0.8,1.8,2.1,3.3,3.7,4.3c1.6,1,3.5,1.6,5.3,1.5
		c0.8,0,1.6-0.1,2.4-0.3c0.6-0.2,1-0.7,1.2-1.3c0.3-0.9,0.4-1.9,0.4-2.9c0-0.9,0-1.8-0.2-2.7c-0.1-0.5-0.5-0.9-1-1
		c-0.8-0.2-1.7-0.3-2.6-0.3c-0.2,0-0.2-0.1-0.2-0.3c0-0.1,0-0.1,0.1-0.2c0-0.1,0.1-0.1,0.1-0.1c2.1,0.1,3.9,0.2,5.2,0.2
		c1.3,0,2.6,0,4-0.1c0.1,0,0.2,0.1,0.2,0.3s0,0.3-0.2,0.3c-0.3-0.1-0.7,0-1,0.2c-0.2,0.3-0.4,0.7-0.4,1.1c-0.1,0.6-0.1,1.6-0.1,3
		c0,0.8,0,1.6,0.1,2.4c0.1,0.3,0.1,0.6,0.1,0.9c0,0.1,0,0.2-0.1,0.3c-0.1,0.1-0.2,0.1-0.3,0.2c-2.9,0.7-5.8,1-8.7,1.1
		C68.1,24.5,65.6,23.9,63.2,22.8z M109.5,23.7c0,0.2-0.1,0.2-0.2,0.2c-0.5,0-1.3,0-2.3-0.1c-1.1-0.1-1.9-0.1-2.4-0.1
		c-0.6,0-1.4,0-2.3,0.1c-0.9,0.1-1.5,0.1-2,0.1c-0.1,0-0.2-0.1-0.2-0.2s0.1-0.2,0.2-0.2c0.5,0,1,0,1.4-0.2c0.3-0.1,0.5-0.4,0.4-0.7
		c-0.1-0.8-0.4-1.5-0.8-2.1l-2.6-5.1h-9.3l-1.5,3.3c-0.3,0.6-0.5,1.3-0.5,2c0,0.8,0.3,1.6,1,2.1c0.7,0.5,1.7,0.8,2.6,0.8
		c0.1,0,0.2,0.1,0.2,0.2s-0.1,0.2-0.2,0.2c-0.5,0-1.1,0-2-0.1c-1,0-1.8-0.1-2.5-0.1c-0.7,0-1.5,0-2.4,0.1c-0.9,0.1-1.5,0.1-2.1,0.1
		c-0.1,0-0.2-0.1-0.2-0.2s0.1-0.2,0.2-0.2c0.6,0,1.2-0.1,1.8-0.4c0.6-0.4,1.1-0.9,1.4-1.5c0.6-1.1,1.2-2.2,1.7-3.3l8.2-18
		c0.1-0.1,0.2-0.1,0.3-0.1c0.2,0,0.3,0,0.3,0.1l9.4,18.5c0.6,1.3,1.3,2.5,2.2,3.7c0.4,0.6,1.1,1,1.8,1
		C109.5,23.5,109.5,23.6,109.5,23.7L109.5,23.7z M90.1,14.3h8.2l-4.3-8.6L90.1,14.3z M117.7,22.5c0.2,0.4,0.6,0.7,1,0.8
		c0.8,0.2,1.6,0.3,2.4,0.2c0.1,0,0.1,0.1,0.1,0.2s0,0.2-0.1,0.2c-1,0-1.8,0-2.4,0l-3.3,0l-2.7,0c-0.5,0-1.2,0-2,0
		c-0.1,0-0.1-0.1-0.1-0.2s0-0.2,0.1-0.2c0.6,0,1.2,0,1.8-0.2c0.3-0.1,0.6-0.4,0.7-0.7c0.1-0.5,0.2-1.1,0.2-1.7V3.5
		c0-0.6,0-1.1-0.2-1.7c-0.1-0.3-0.4-0.6-0.8-0.7c-0.6-0.2-1.1-0.2-1.7-0.2c-0.1,0-0.1-0.1-0.1-0.2s0-0.2,0.1-0.2l2,0
		c1.2,0.1,2.1,0.1,2.7,0.1c0.6,0,1.3,0,2.1-0.1c0.3,0,0.7-0.1,1.2-0.1s1.1,0,1.7,0c2.1-0.1,4.3,0.4,6.1,1.6c1.5,1.2,2.4,3,2.2,5
		c0,1.4-0.4,2.8-1.2,4c-0.8,1.1-1.9,1.9-3.1,2.4c-1.2,0.5-2.6,0.8-3.9,0.8c-0.6,0-1.2-0.1-1.8-0.2c-0.1,0-0.1-0.1-0.1-0.2
		c0-0.1,0-0.2,0.1-0.2c0-0.1,0.1-0.1,0.1-0.1c0.4,0.1,0.8,0.2,1.3,0.2c1.2,0,2.3-0.6,2.9-1.6c0.8-1.4,1.2-3,1.1-4.6
		c0.1-1.6-0.3-3.2-1.3-4.6c-0.9-1.1-2.3-1.7-3.7-1.6c-0.5-0.1-1.1,0.1-1.4,0.5c-0.3,0.6-0.4,1.3-0.4,1.9v17.2
		C117.4,21.3,117.5,21.9,117.7,22.5z M163.5,23.7c0,0.2,0,0.2-0.1,0.2h-6.7c-0.6,0-1.6-1-3.1-3c-2-2.7-3.8-5.5-5.5-8.4
		c-0.3,0-0.6,0-0.9,0c-1,0-1.7,0-2.1,0v8.3c0,0.6,0,1.1,0.2,1.7c0.1,0.3,0.4,0.6,0.7,0.7c0.6,0.2,1.2,0.2,1.8,0.2
		c0.1,0,0.1,0.1,0.1,0.2s0,0.2-0.1,0.2c-0.8,0-1.5,0-2,0l-2.9,0l-2.7,0c-0.5,0-1.2,0-2,0c-0.1,0-0.1-0.1-0.1-0.2s0-0.2,0.1-0.2
		c0.6,0,1.2,0,1.8-0.2c0.4-0.1,0.6-0.4,0.8-0.7c0.2-0.5,0.2-1.1,0.2-1.7V3.5c0-0.6,0-1.1-0.2-1.7c-0.1-0.3-0.4-0.6-0.8-0.7
		c-0.6-0.2-1.1-0.2-1.7-0.2c-0.1,0-0.1-0.1-0.1-0.2s0-0.2,0.1-0.2l2,0c1.2,0.1,2.1,0.1,2.7,0.1c0.9,0,1.7,0,2.7-0.1
		c0.3,0,0.7,0,1.2-0.1c0.5,0,1,0,1.6,0c1.9-0.1,3.7,0.3,5.3,1.3c1.2,0.8,1.9,2.1,1.9,3.5c0,1.3-0.4,2.6-1.1,3.7
		c-0.8,1.1-1.8,2.1-3,2.7c2,3,3.7,5.4,5,7.1c1,1.4,2.3,2.6,3.6,3.7c0.9,0.7,2,1.1,3.1,1.2C163.4,23.5,163.5,23.6,163.5,23.7
		L163.5,23.7z M147.4,11.7c1.2,0.1,2.3-0.3,3.1-1.2c0.7-1.2,1.1-2.6,1-3.9c0-2.1-0.3-3.5-0.9-4.3C150,1.5,149,1,148,1.1
		c-0.8-0.1-1.5,0.1-2.1,0.6c-0.5,0.5-0.7,1.2-0.6,1.9v8C145.9,11.6,146.7,11.7,147.4,11.7z M177.1,19.4c0.1,0,0.1,0,0.2,0
		c0,0,0.1,0.1,0.1,0.1c-0.2,1.3-0.3,2.7-0.3,4c0,0.1,0,0.2-0.1,0.3c-0.1,0.1-0.2,0.1-0.3,0.1h-12.5c-0.1,0-0.1-0.1-0.1-0.2
		s0-0.2,0.1-0.2c0.4,0,0.9,0,1.3-0.1c0.3-0.1,0.5-0.3,0.6-0.6c0.1-0.4,0.2-0.8,0.1-1.3V8.6c0-0.4,0-0.8-0.1-1.2
		c-0.1-0.3-0.3-0.5-0.6-0.6c-0.4-0.1-0.9-0.2-1.3-0.2c-0.1,0-0.1-0.1-0.1-0.2s0-0.2,0.1-0.2h12c0.2,0,0.3,0.1,0.3,0.3l0.1,3.8
		c0,0-0.1,0.1-0.2,0.1s-0.2,0-0.2-0.1c-0.2-1-0.8-1.8-1.5-2.4c-0.8-0.6-1.8-0.8-2.8-0.8h-0.8c-0.4,0-0.9,0.1-1.2,0.4
		c-0.3,0.3-0.4,0.7-0.4,1.1v5.8h2.3c0.9,0.1,1.7-0.1,2.5-0.6c0.6-0.3,0.9-0.9,0.9-1.6c0-0.1,0.1-0.1,0.2-0.1s0.2,0,0.2,0.1l0,2.5
		l0,1.4c0,0.6,0.1,1.1,0.1,1.5c0,0-0.1,0.1-0.2,0.1s-0.2,0-0.2-0.1c0-0.7-0.3-1.4-0.9-1.8c-0.8-0.5-1.7-0.7-2.6-0.7h-2.3v6.4
		c0,0.4,0.1,0.9,0.3,1.2c0.2,0.3,0.6,0.4,1,0.4h0.9c1.2,0.1,2.5-0.3,3.5-0.9c0.9-0.7,1.6-1.7,1.9-2.8
		C177,19.4,177.1,19.4,177.1,19.4z M184,11c0.3,0.5,0.8,1,1.3,1.4c0.5,0.4,1.2,0.9,2.1,1.4c0.8,0.5,1.5,1,2.3,1.6
		c0.6,0.5,1.1,1,1.4,1.7c0.4,0.7,0.6,1.5,0.6,2.2c0,0.9-0.3,1.8-0.8,2.6c-0.6,0.8-1.3,1.4-2.2,1.8c-1,0.4-2,0.7-3.1,0.6
		c-0.9,0-1.8-0.1-2.7-0.4c-0.7-0.1-1.3-0.4-1.9-0.8c-0.1-0.1-0.2-0.1-0.2-0.2c-0.1-0.1-0.1-0.2-0.1-0.3l-0.1-4.5v0
		c0-0.1,0-0.1,0.1-0.1s0.1,0,0.2,0.1c0.6,1.1,1.1,2.1,1.5,2.8c0.4,0.7,1,1.4,1.6,1.9c0.6,0.5,1.4,0.8,2.2,0.8c0.7,0,1.3-0.2,1.9-0.6
		c0.5-0.5,0.8-1.3,0.7-2.1c0-0.8-0.2-1.5-0.6-2.2c-0.4-0.6-0.8-1.1-1.3-1.6c-0.7-0.6-1.4-1.1-2.2-1.6c-0.7-0.5-1.4-1-2.1-1.5
		c-0.5-0.4-0.9-0.9-1.3-1.5c-0.4-0.6-0.6-1.3-0.5-2.1c0-0.9,0.3-1.8,0.9-2.5c0.6-0.7,1.4-1.2,2.2-1.5c0.9-0.3,1.9-0.5,2.9-0.5
		c0.7,0,1.3,0.1,2,0.2c0.6,0.1,1.1,0.2,1.6,0.4c0.1,0,0.2,0.1,0.3,0.2c0.1,0.1,0.1,0.2,0.1,0.3v4.2c0,0.1,0,0.1-0.1,0.1
		s-0.2,0-0.2,0l-0.2-0.5c-0.4-1.1-1-2.1-1.7-3c-0.6-0.8-1.6-1.3-2.6-1.2c-0.7,0-1.3,0.2-1.8,0.6c-0.5,0.5-0.8,1.2-0.7,1.9
		C183.5,9.8,183.7,10.4,184,11L184,11z M207.3,19.4c0.1,0,0.1,0,0.2,0c0,0,0.1,0.1,0.1,0.1c-0.2,1.3-0.3,2.7-0.3,4
		c0,0.1,0,0.2-0.1,0.3c-0.1,0.1-0.2,0.1-0.3,0.1h-12.5c-0.1,0-0.1-0.1-0.1-0.2s0-0.2,0.1-0.2c0.4,0,0.9,0,1.3-0.1
		c0.3-0.1,0.5-0.3,0.6-0.6c0.1-0.4,0.2-0.8,0.1-1.3V8.6c0-0.4,0-0.8-0.1-1.2c-0.1-0.3-0.3-0.5-0.6-0.6c-0.4-0.1-0.9-0.2-1.3-0.2
		c-0.1,0-0.1-0.1-0.1-0.2s0-0.2,0.1-0.2h12c0.2,0,0.3,0.1,0.3,0.3l0.1,3.8c0,0-0.1,0.1-0.2,0.1s-0.2,0-0.2-0.1
		c-0.2-1-0.8-1.8-1.5-2.4c-0.8-0.6-1.8-0.8-2.8-0.8h-0.8c-0.4,0-0.9,0.1-1.2,0.4c-0.3,0.3-0.4,0.7-0.4,1.1v5.8h2.3
		c0.9,0.1,1.7-0.1,2.5-0.6c0.6-0.3,0.9-0.9,0.9-1.6c0-0.1,0.1-0.1,0.2-0.1s0.2,0,0.2,0.1l0,2.5l0,1.4c0,0.6,0.1,1.1,0.1,1.5
		c0,0-0.1,0.1-0.2,0.1s-0.2,0-0.2-0.1c0-0.7-0.3-1.4-0.9-1.8c-0.8-0.5-1.7-0.7-2.6-0.7h-2.3v6.4c0,0.4,0.1,0.9,0.3,1.2
		c0.2,0.3,0.6,0.4,1,0.4h0.9c1.2,0.1,2.5-0.3,3.5-0.9c0.9-0.7,1.6-1.7,1.9-2.8C207.1,19.4,207.2,19.4,207.3,19.4z M229.1,23.8
		c0,0.1,0,0.2-0.1,0.2c-0.4,0-1,0-1.8-0.1c-0.8,0-1.4-0.1-1.8-0.1c-0.5,0-1,0-1.7,0.1c-0.6,0-1.1,0.1-1.5,0.1
		c-0.1,0-0.1-0.1-0.1-0.2s0-0.2,0.1-0.2c0.4,0,0.7,0,1.1-0.2c0.2-0.1,0.3-0.3,0.3-0.5c-0.1-0.6-0.3-1.1-0.6-1.6l-1.9-3.8h-6.9
		l-1.1,2.5c-0.2,0.5-0.4,1-0.4,1.5c0,0.6,0.2,1.2,0.7,1.6c0.6,0.4,1.2,0.6,1.9,0.6c0.1,0,0.1,0.1,0.1,0.2c0,0.1,0,0.2-0.1,0.2
		c-0.3,0-0.8,0-1.5-0.1c-0.7,0-1.3-0.1-1.9-0.1c-0.5,0-1.1,0-1.8,0.1c-0.6,0-1.2,0.1-1.6,0.1c-0.1,0-0.1-0.1-0.1-0.2s0-0.2,0.1-0.2
		c0.5,0,0.9-0.1,1.3-0.3c0.4-0.3,0.8-0.7,1.1-1.2c0.5-0.8,0.9-1.6,1.3-2.5l6.1-13.5c0-0.1,0.1-0.1,0.3-0.1c0.1,0,0.2,0,0.3,0.1
		l7.1,13.9c0.4,1,1,1.9,1.6,2.8c0.3,0.4,0.8,0.7,1.4,0.8C229.1,23.6,229.1,23.7,229.1,23.8L229.1,23.8z M214.5,16.7h6.2l-3.2-6.4
		L214.5,16.7z M249,23.8c0,0.1,0,0.2-0.1,0.2h-5c-0.4,0-1.2-0.7-2.3-2.2c-1.5-2-2.8-4.1-4.1-6.3c-0.2,0-0.4,0-0.6,0
		c-0.7,0-1.3,0-1.6,0v6.2c0,0.4,0,0.9,0.1,1.3c0.1,0.3,0.3,0.5,0.6,0.5c0.4,0.1,0.9,0.2,1.3,0.1c0,0,0.1,0.1,0.1,0.2s0,0.2-0.1,0.2
		c-0.6,0-1.1,0-1.5,0l-2.1,0l-2.1,0c-0.4,0-0.9,0-1.5,0c-0.1,0-0.1-0.1-0.1-0.2s0-0.2,0.1-0.2c0.4,0,0.9,0,1.3-0.1
		c0.3-0.1,0.5-0.3,0.6-0.6c0.1-0.4,0.2-0.8,0.2-1.3V8.6c0-0.4,0-0.8-0.1-1.2c-0.1-0.3-0.3-0.5-0.6-0.6c-0.4-0.1-0.9-0.2-1.3-0.2
		c0,0-0.1-0.1-0.1-0.2s0-0.2,0.1-0.2l1.5,0c0.9,0,1.6,0.1,2.1,0.1c0.6,0,1.3,0,2-0.1c0.2,0,0.6,0,0.9-0.1c0.4,0,0.8,0,1.2,0
		c1.4-0.1,2.8,0.2,4,0.9c0.9,0.6,1.4,1.6,1.4,2.6c0,1-0.3,2-0.8,2.8c-0.6,0.8-1.4,1.5-2.3,2c1.5,2.3,2.8,4,3.8,5.3
		c0.8,1,1.7,2,2.7,2.8c0.7,0.5,1.5,0.8,2.3,0.9C249,23.6,249,23.7,249,23.8L249,23.8z M236.9,14.7c0.9,0.1,1.8-0.3,2.4-0.9
		c0.6-0.9,0.8-1.9,0.7-3c0.1-1.1-0.1-2.2-0.7-3.2c-0.5-0.6-1.2-0.9-1.9-0.9c-0.6-0.1-1.1,0.1-1.6,0.4c-0.4,0.4-0.5,0.9-0.5,1.4v6
		C235.8,14.7,236.4,14.7,236.9,14.7z M262.1,6.2c0.7,0.1,1.5,0.3,2.2,0.6c0.1,0,0.2,0.1,0.3,0.2c0.1,0.1,0.1,0.3,0.1,0.4l0.4,3.9
		c0,0.1,0,0.1-0.1,0.1c-0.1,0-0.2,0-0.2-0.1c-0.4-1.4-1.2-2.6-2.3-3.5c-1-0.8-2.2-1.3-3.5-1.2c-1.2,0-2.4,0.3-3.4,1
		c-1.1,0.7-1.9,1.8-2.4,3c-0.6,1.4-0.9,2.9-0.9,4.5c0,1.6,0.3,3.1,0.9,4.6c0.5,1.2,1.4,2.3,2.5,3c1.1,0.7,2.3,1.1,3.6,1.1
		c1.2,0,2.3-0.3,3.3-1.1c1.1-1,1.9-2.2,2.5-3.5c0-0.1,0.1-0.1,0.2-0.1s0.1,0.1,0.1,0.1l-0.4,3.5c0,0.2-0.1,0.3-0.1,0.4
		c-0.1,0.1-0.2,0.2-0.3,0.2c-1.7,0.6-3.5,0.9-5.3,0.9c-1.9,0-3.7-0.4-5.4-1.1c-1.5-0.7-2.8-1.8-3.7-3.2c-0.9-1.4-1.4-3-1.4-4.7
		c0-1.7,0.5-3.4,1.4-4.8c1-1.4,2.3-2.6,3.8-3.3c1.7-0.8,3.6-1.2,5.4-1.2C260.3,6,261.2,6.1,262.1,6.2z M287.3,23.8
		c0,0.1,0,0.2-0.1,0.2c-0.7,0-1.2,0-1.6,0l-2.2,0l-2.5,0c-0.3,0-0.8,0-1.4,0c-0.1,0-0.1-0.1-0.1-0.2s0-0.2,0.1-0.2
		c0.5,0,1,0,1.5-0.1c0.3-0.1,0.5-0.3,0.6-0.5c0.1-0.4,0.2-0.8,0.2-1.3v-6.5h-9.1v6.5c0,0.4,0,0.9,0.2,1.3c0.1,0.3,0.4,0.5,0.6,0.6
		c0.5,0.1,1,0.2,1.5,0.1c0,0,0.1,0.1,0.1,0.2s0,0.2-0.1,0.2c-0.7,0-1.2,0-1.6,0l-2.5,0l-2.1,0c-0.4,0-0.9,0-1.6,0
		c0,0-0.1-0.1-0.1-0.2s0-0.2,0.1-0.2c0.5,0,1,0,1.4-0.1c0.3-0.1,0.5-0.3,0.6-0.6c0.1-0.4,0.2-0.8,0.2-1.3V8.6c0-0.4,0-0.8-0.2-1.2
		c-0.1-0.3-0.3-0.5-0.6-0.6c-0.5-0.1-0.9-0.2-1.4-0.2c-0.1,0-0.1-0.1-0.1-0.2s0-0.2,0.1-0.2l1.5,0c0.9,0,1.6,0.1,2.1,0.1
		c0.7,0,1.5,0,2.5-0.1l1.6,0c0,0,0.1,0.1,0.1,0.2s0,0.2-0.1,0.2c-0.5,0-1,0-1.5,0.2c-0.3,0.1-0.5,0.3-0.7,0.6
		c-0.1,0.4-0.2,0.8-0.2,1.3v5.7h9.1V8.6c0-0.4,0-0.9-0.2-1.3c-0.1-0.3-0.4-0.5-0.6-0.6c-0.5-0.1-1-0.2-1.5-0.2
		c-0.1,0-0.1-0.1-0.1-0.2s0-0.2,0.1-0.2l1.4,0c0.9,0,1.8,0.1,2.5,0.1c0.5,0,1.2,0,2.2-0.1l1.6,0c0.1,0,0.1,0.1,0.1,0.2
		s0,0.2-0.1,0.2c-0.5,0-1,0-1.4,0.2c-0.3,0.1-0.5,0.3-0.6,0.6C285,7.7,285,8.2,285,8.6v13.1c0,0.4,0,0.8,0.2,1.3
		c0.1,0.3,0.3,0.5,0.6,0.6c0.5,0.1,1,0.2,1.4,0.1C287.3,23.6,287.3,23.7,287.3,23.8z M312.7,5.8c0,0.1-0.1,0.1-0.2,0.1
		s-0.2,0-0.2-0.1c-0.3-1.3-1-2.4-2-3.2c-1.1-0.7-2.4-1.1-3.8-1.1h-1.1c-0.6,0-1.2,0.1-1.7,0.5c-0.4,0.4-0.6,1-0.5,1.5v8.1h2.7
		c1.2,0.1,2.3-0.2,3.3-0.8c0.7-0.5,1.2-1.3,1.1-2.1c0-0.1,0.1-0.1,0.2-0.1s0.2,0,0.2,0.1l0,3.4c0,0.8,0,1.4,0,1.8l0,2
		c0,0.1-0.1,0.1-0.2,0.1s-0.2,0-0.2-0.1c0-0.9-0.4-1.8-1.2-2.4c-1-0.6-2.2-1-3.4-0.9h-2.7v8.1c0,0.6,0.1,1.2,0.3,1.7
		c0.2,0.4,0.7,0.7,1.1,0.8c0.9,0.2,1.7,0.3,2.6,0.2c0,0,0.1,0.1,0.1,0.2s0,0.2-0.1,0.2c-1,0-1.8,0-2.4,0l-3.8,0l-2.8,0
		c-0.5,0-1.2,0-2.1,0c-0.1,0-0.1-0.1-0.1-0.2s0-0.2,0.1-0.2c0.6,0,1.3,0,1.9-0.2c0.4-0.1,0.7-0.4,0.8-0.7c0.2-0.5,0.2-1.1,0.2-1.7
		V3.5c0-0.6,0-1.1-0.2-1.7c-0.1-0.3-0.4-0.6-0.8-0.7c-0.6-0.2-1.1-0.2-1.7-0.2c-0.1,0-0.1-0.1-0.1-0.2c0-0.2,0-0.2,0.1-0.2h16
		c0.3,0,0.4,0.1,0.4,0.3L312.7,5.8z M329.8,7.5c-0.5-0.6-1.2-0.9-1.9-0.9c0,0-0.1-0.1-0.1-0.2s0-0.2,0.1-0.2l1.4,0
		c0.7,0,1.3,0.1,1.7,0.1c0.4,0,0.9,0,1.6-0.1l1.3,0c0,0,0.1,0.1,0.1,0.2s0,0.2-0.1,0.2c-0.7,0-1.3,0.3-1.7,0.9
		c-0.5,0.7-0.7,1.6-0.6,2.4v7.8c0,1.2-0.3,2.4-0.9,3.5c-0.6,1-1.4,1.8-2.5,2.3c-1.1,0.6-2.4,0.8-3.7,0.8c-1.3,0-2.5-0.2-3.7-0.8
		c-1-0.5-1.9-1.3-2.5-2.3c-0.6-1.1-0.9-2.3-0.9-3.5V8.6c0-0.4,0-0.8-0.2-1.2c-0.1-0.3-0.3-0.5-0.6-0.6c-0.4-0.1-0.9-0.2-1.3-0.2
		c-0.1,0-0.1-0.1-0.1-0.2s0-0.2,0.1-0.2l1.5,0c0.9,0,1.6,0.1,2.1,0.1c0.6,0,1.3,0,2.1-0.1l1.4,0c0.1,0,0.1,0.1,0.1,0.2
		s0,0.2-0.1,0.2c-0.4,0-0.9,0-1.3,0.2c-0.3,0.1-0.5,0.3-0.6,0.6c-0.1,0.4-0.2,0.8-0.2,1.3v8.1c-0.1,1.8,0.3,3.5,1.3,5
		c0.9,1.1,2.3,1.7,3.7,1.6c1.4,0.1,2.7-0.4,3.7-1.4c1-1.1,1.4-2.6,1.3-4.1V9.9C330.5,9.1,330.3,8.2,329.8,7.5z M354.7,6.5
		c0,0.1,0,0.2-0.1,0.2c-0.7,0-1.4,0.3-1.8,0.9c-0.5,0.7-0.7,1.5-0.6,2.4v14.5c0,0.1,0,0.1-0.1,0.1c-0.1,0-0.1,0-0.2,0L338.7,9.4v11
		c0,0.8,0.2,1.7,0.6,2.4c0.4,0.6,1,0.9,1.7,0.9c0,0,0.1,0.1,0.1,0.2s0,0.2-0.1,0.2c-0.5,0-0.9,0-1.2,0l-1.5,0l-1.8,0
		c-0.3,0-0.8,0-1.4,0c-0.1,0-0.1-0.1-0.1-0.2s0-0.2,0.1-0.2c0.8,0,1.5-0.3,2-0.9c0.5-0.7,0.8-1.5,0.7-2.4V8.4c-0.5-0.5-1-1-1.6-1.4
		c-0.4-0.2-0.9-0.4-1.4-0.4c0,0-0.1-0.1-0.1-0.2s0-0.2,0.1-0.2l1.2,0c0.2,0,0.6,0,1.1,0l2.1,0c0.3,0,0.6,0,1,0c0.1,0,0.2,0,0.3,0.1
		c0.1,0.1,0.2,0.2,0.4,0.5c0.3,0.4,0.5,0.7,0.7,0.9l9.8,11.3V9.9c0-0.8-0.2-1.7-0.6-2.4c-0.4-0.6-1-0.9-1.7-0.9c0,0-0.1-0.1-0.1-0.2
		s0-0.2,0.1-0.2l1.2,0c0.6,0,1.1,0.1,1.5,0.1c0.4,0,0.9,0,1.6-0.1l1.3,0C354.7,6.3,354.7,6.4,354.7,6.5z M362,24
		c-0.3,0-0.7,0-1.1-0.1s-0.9,0-1.5,0l-2.1,0c-0.4,0-0.9,0-1.5,0c0,0-0.1-0.1-0.1-0.2s0-0.2,0.1-0.2c0.4,0,0.9,0,1.3-0.1
		c0.3-0.1,0.5-0.3,0.6-0.6c0.1-0.4,0.2-0.8,0.2-1.3V8.6c0-0.4,0-0.8-0.2-1.2c-0.1-0.3-0.3-0.5-0.6-0.6c-0.4-0.1-0.9-0.2-1.3-0.2
		c-0.1,0-0.1-0.1-0.1-0.2s0-0.2,0.1-0.2l1.5,0c0.9,0,1.6,0.1,2.1,0.1c0.8,0,1.6,0,2.4-0.1c1,0,1.6-0.1,2-0.1c1.8,0,3.5,0.4,5.1,1.1
		c1.4,0.7,2.6,1.8,3.4,3.1c0.8,1.3,1.2,2.8,1.2,4.4c0,1.7-0.4,3.4-1.3,4.8c-0.8,1.4-2,2.5-3.4,3.2c-1.4,0.8-3,1.2-4.7,1.1
		C363.6,24.1,362.9,24,362,24L362,24z M367.1,22.5c1-0.7,1.7-1.6,2.2-2.7c0.5-1.4,0.8-2.8,0.8-4.3c0-1.5-0.2-3-0.7-4.4
		c-0.4-1.2-1.1-2.3-2.1-3.1c-0.9-0.7-2-1.1-3.1-1.1c-0.8-0.1-1.6,0.1-2.4,0.3c-0.5,0.3-0.7,0.9-0.6,1.4v12.7
		c-0.1,0.6,0.2,1.2,0.6,1.6c0.7,0.4,1.5,0.5,2.3,0.5C365,23.4,366.1,23.1,367.1,22.5L367.1,22.5z"/>
	<path class="st1" d="M42.8,43.2c0.5,0.2,1,0.6,1.4,1.1c0.4,0.4,0.6,0.9,0.7,1.5l0,0.1c0,0,0,0.1,0,0.1c0,0,0,0-0.1,0l-1.1,0.1h0
		c0,0-0.1,0-0.1,0c0,0,0-0.1,0-0.1c-0.1-0.6-0.4-1.1-0.9-1.5c-0.5-0.4-1-0.6-1.6-0.6c-0.9,0-1.8,0.4-2.3,1.1c-0.6,1-0.9,2.1-0.8,3.3
		c-0.1,1.1,0.2,2.3,0.8,3.2c0.5,0.7,1.4,1.1,2.4,1.1c0.6,0,1.2-0.2,1.7-0.5c0.5-0.4,0.9-0.9,1.1-1.5c0-0.1,0.1-0.1,0.2-0.1l0.8,0.2
		c0.1,0,0.1,0.1,0.1,0.2c-0.2,0.5-0.4,1-0.7,1.3c-0.4,0.4-0.8,0.8-1.3,1c-0.6,0.3-1.2,0.4-1.8,0.4c-0.9,0-1.7-0.2-2.4-0.7
		c-0.7-0.5-1.2-1.1-1.6-1.9c-0.7-1.9-0.7-3.9,0-5.8c0.3-0.8,0.8-1.4,1.5-1.9c0.7-0.4,1.5-0.7,2.4-0.6C41.6,42.8,42.2,43,42.8,43.2z
		 M49.5,53.2c-0.5-0.3-1-0.8-1.3-1.4c-0.6-1.3-0.6-2.8,0-4.1c0.9-1.8,3.1-2.4,4.9-1.5c0,0,0.1,0.1,0.1,0.1c0.5,0.3,1,0.8,1.3,1.4
		c0.3,0.6,0.5,1.3,0.4,2c0,0.7-0.1,1.4-0.5,2c-0.3,0.6-0.7,1-1.3,1.4c-0.6,0.3-1.2,0.5-1.9,0.5C50.7,53.7,50,53.5,49.5,53.2
		L49.5,53.2z M53.1,52c0.8-1.4,0.8-3.1,0-4.4c-0.4-0.5-1.1-0.8-1.7-0.8c-0.7,0-1.3,0.3-1.7,0.8c-0.9,1.3-0.9,3.1,0,4.4
		c0.4,0.5,1.1,0.8,1.8,0.8C52.1,52.8,52.7,52.5,53.1,52L53.1,52z M59.4,53.3c0,0.1,0,0.1-0.1,0.2c-0.1,0-0.1,0.1-0.2,0.1h-0.7
		c-0.1,0-0.1,0-0.2,0c0,0,0-0.1,0-0.2l0-10.2c0-0.1,0.1-0.2,0.2-0.2h0.9c0.1,0,0.2,0.1,0.2,0.2L59.4,53.3z M64.2,53.3
		c0,0.1,0,0.1-0.1,0.2c-0.1,0-0.1,0.1-0.2,0.1h-0.7c-0.1,0-0.1,0-0.2,0c0,0,0-0.1,0-0.2l0-10.2C63,43,63,43,63.1,43H64
		c0.1,0,0.2,0.1,0.2,0.2L64.2,53.3z M69.6,53.7c-0.6,0-1.3-0.2-1.7-0.6c-0.4-0.4-0.7-0.9-0.6-1.5c0-0.7,0.3-1.4,1-1.8
		c0.8-0.5,1.8-0.8,2.8-0.8l1.1-0.1c0.2,0,0.2-0.1,0.2-0.2v-0.4c0-0.5-0.2-0.9-0.5-1.2c-0.4-0.3-0.8-0.5-1.3-0.4
		c-0.8,0-1.6,0.4-2,1.1c0,0,0,0.1-0.1,0.1c0,0-0.1,0-0.1,0l-0.8-0.3c0,0-0.1-0.1-0.1-0.1c0,0,0-0.1,0-0.1c0.3-0.5,0.7-0.9,1.2-1.2
		c0.6-0.3,1.2-0.4,1.9-0.4c0.8-0.1,1.5,0.2,2.1,0.6c0.5,0.5,0.8,1.1,0.7,1.8v5c0,0.1,0,0.1,0,0.2c0,0-0.1,0-0.2,0h-0.7
		c-0.1,0-0.2-0.1-0.2-0.2l0-0.7c0-0.1,0-0.1-0.1-0.1c-0.1,0-0.1,0-0.1,0.1C71.5,53.3,70.6,53.7,69.6,53.7L69.6,53.7z M72.1,49.7
		l-0.9,0.1c-0.7,0-1.4,0.2-2,0.5c-0.4,0.2-0.7,0.7-0.7,1.2c0,0.4,0.1,0.7,0.4,1c0.3,0.3,0.7,0.4,1.2,0.4c0.3,0,0.6-0.1,0.9-0.2
		c0.3-0.1,0.5-0.2,0.8-0.4c0.2-0.2,0.4-0.3,0.5-0.5c0.1-0.2,0.2-0.4,0.2-0.6v-1.2C72.3,49.8,72.3,49.7,72.1,49.7L72.1,49.7z
		 M77.2,53.5c-0.1,0-0.2,0-0.2-0.1c0,0,0-0.1,0-0.1V43.2c0-0.1,0.1-0.2,0.2-0.2H78c0.1,0,0.1,0.1,0.1,0.2v3.5c0,0.1,0,0.2,0.1,0.2
		c0.1,0,0.1,0,0.1-0.1c0.6-0.6,1.4-0.9,2.3-0.9c0.9-0.1,1.7,0.4,2.3,1.1c0.5,0.8,0.8,1.8,0.8,2.8c0.1,1-0.2,2.1-0.9,2.9
		c-0.6,0.7-1.5,1.1-2.4,1.1c-0.5,0-1-0.1-1.4-0.3c-0.3-0.2-0.6-0.5-0.9-0.8c0,0,0-0.1-0.1-0.1c0,0-0.1,0-0.1,0.1l-0.1,0.7
		c0,0.1,0,0.1-0.1,0.2c-0.1,0-0.1,0.1-0.2,0.1L77.2,53.5z M78.2,51c0,0.3,0.1,0.6,0.3,0.9c0.2,0.3,0.5,0.5,0.8,0.7
		c0.3,0.2,0.6,0.2,1,0.2c0.6,0,1.2-0.3,1.6-0.8c0.5-0.7,0.7-1.5,0.6-2.3c0-0.8-0.1-1.6-0.6-2.2c-0.4-0.5-1-0.8-1.6-0.8
		c-0.4,0-0.8,0.1-1.2,0.3c-0.4,0.2-0.7,0.5-0.9,0.8L78.2,51z M88.2,53.2c-0.5-0.3-1-0.8-1.3-1.4c-0.6-1.3-0.6-2.8,0-4.1
		c0.9-1.8,3.1-2.4,4.9-1.5c0,0,0.1,0.1,0.1,0.1c0.5,0.3,1,0.8,1.3,1.4c0.3,0.6,0.5,1.3,0.4,2c0,0.7-0.1,1.4-0.5,2
		c-0.3,0.6-0.7,1-1.3,1.4c-0.6,0.3-1.2,0.5-1.9,0.5C89.4,53.7,88.8,53.5,88.2,53.2L88.2,53.2z M91.9,52c0.8-1.4,0.8-3.1,0-4.4
		c-0.4-0.5-1.1-0.8-1.7-0.8c-0.7,0-1.3,0.3-1.7,0.8c-0.9,1.3-0.9,3.1,0,4.4c0.4,0.5,1.1,0.8,1.8,0.8C90.8,52.8,91.4,52.5,91.9,52
		L91.9,52z M96.9,53.4v-7.2c0-0.1,0.1-0.2,0.2-0.2h0.8c0.1,0,0.1,0,0.2,0.1c0,0,0,0,0,0v0.9c0,0.1,0,0.1,0,0.1s0.1,0,0.1-0.1
		c0.5-0.7,1.3-1.2,2.2-1.3c0.3,0,0.5,0.1,0.5,0.2v0.9c0,0.1,0,0.1-0.1,0.1c-0.2,0-0.4,0-0.6,0c-0.3,0-0.6,0.1-0.9,0.2
		c-0.3,0.2-0.6,0.4-0.8,0.6c-0.2,0.2-0.3,0.5-0.3,0.8v4.7c0,0.1-0.1,0.2-0.2,0.2c0,0,0,0-0.1,0h-0.8C96.9,53.5,96.9,53.5,96.9,53.4
		L96.9,53.4z M105.6,53.7c-0.6,0-1.3-0.2-1.7-0.6c-0.4-0.4-0.7-0.9-0.6-1.5c0-0.7,0.3-1.4,1-1.8c0.8-0.5,1.8-0.8,2.8-0.8L108,49
		c0.2,0,0.2-0.1,0.2-0.2v-0.4c0-0.5-0.2-0.9-0.5-1.2c-0.4-0.3-0.8-0.5-1.3-0.4c-0.8,0-1.6,0.4-2,1.1c0,0,0,0.1-0.1,0.1
		c0,0-0.1,0-0.1,0l-0.8-0.3c0,0-0.1-0.1-0.1-0.1c0,0,0-0.1,0-0.1c0.3-0.5,0.7-0.9,1.2-1.2c0.6-0.3,1.2-0.4,1.9-0.4
		c0.8-0.1,1.5,0.2,2.1,0.6c0.5,0.5,0.8,1.1,0.7,1.8v5c0,0.1,0,0.1,0,0.2c0,0-0.1,0-0.2,0h-0.7c-0.1,0-0.2-0.1-0.2-0.2l0-0.7
		c0-0.1,0-0.1-0.1-0.1c-0.1,0-0.1,0-0.1,0.1C107.4,53.3,106.5,53.7,105.6,53.7L105.6,53.7z M108.1,49.7l-0.9,0.1
		c-0.7,0-1.4,0.2-2,0.5c-0.4,0.2-0.7,0.7-0.7,1.2c0,0.4,0.1,0.7,0.4,1c0.3,0.3,0.7,0.4,1.2,0.4c0.3,0,0.6-0.1,0.9-0.2
		c0.3-0.1,0.5-0.2,0.8-0.4c0.2-0.2,0.4-0.3,0.5-0.5c0.1-0.2,0.2-0.4,0.2-0.6v-1.2C108.3,49.8,108.2,49.7,108.1,49.7L108.1,49.7z
		 M114.9,46.9c-0.1,0-0.1,0-0.1,0.1v4.5c0,0.3,0,0.6,0.2,0.9c0.2,0.2,0.4,0.3,0.7,0.2h1c0.1,0,0.1,0,0.2,0.1c0,0,0,0,0,0l0,0.5
		c0,0.1-0.1,0.2-0.2,0.2c-0.4,0.1-0.9,0.1-1.3,0.1c-0.5,0-0.9-0.1-1.3-0.4c-0.3-0.4-0.5-0.8-0.4-1.3V47c0-0.1,0-0.2-0.1-0.2h-1.1
		c-0.1,0-0.2,0-0.2-0.1v-0.6c0-0.1,0-0.1,0.1-0.1c0,0,0,0,0,0h1.2c0.1,0,0.1,0,0.1-0.1l0.2-2.3c0-0.1,0.1-0.2,0.2-0.2h0.7
		c0.1,0,0.2,0.1,0.2,0.2v2.2c0,0.1,0,0.1,0.1,0.1c0,0,0,0,0,0h1.8c0.1,0,0.2,0,0.2,0.1v0.6c0,0.1-0.1,0.1-0.2,0.1L114.9,46.9z
		 M121.1,44.4c0,0.1,0,0.1-0.1,0.2c-0.1,0-0.1,0.1-0.2,0.1H120c-0.1,0-0.2-0.1-0.2-0.2v-1.2c0-0.2,0.1-0.2,0.2-0.2h0.9
		c0.1,0,0.1,0,0.1,0.1c0,0,0.1,0.1,0.1,0.2L121.1,44.4z M121,53.3c0,0.1,0,0.1-0.1,0.2c-0.1,0-0.1,0.1-0.2,0.1h-0.7
		c-0.1,0-0.1,0-0.2,0c0,0,0-0.1,0-0.2v-7.1c0-0.1,0.1-0.2,0.2-0.2h0.9c0.1,0,0.2,0.1,0.2,0.2V53.3z M125.9,53.2
		c-0.5-0.3-1-0.8-1.3-1.4c-0.6-1.3-0.6-2.8,0-4.1c0.9-1.8,3.1-2.4,4.9-1.5c0,0,0.1,0.1,0.1,0.1c0.5,0.3,1,0.8,1.3,1.4
		c0.3,0.6,0.5,1.3,0.4,2c0,0.7-0.1,1.4-0.5,2c-0.3,0.6-0.7,1-1.3,1.4c-0.6,0.3-1.2,0.5-1.9,0.5C127.2,53.7,126.5,53.5,125.9,53.2
		L125.9,53.2z M129.6,52c0.8-1.4,0.8-3.1,0-4.4c-0.4-0.5-1.1-0.8-1.7-0.8c-0.7,0-1.3,0.3-1.7,0.8c-0.9,1.3-0.9,3.1,0,4.4
		c0.4,0.5,1.1,0.8,1.8,0.8C128.5,52.8,129.2,52.5,129.6,52L129.6,52z M134.6,53.4v-7.2c0-0.1,0.1-0.2,0.2-0.2h0.9
		c0.1,0,0.1,0,0.2,0.1c0,0,0,0,0,0V47c0,0.1,0,0.1,0.1,0c0.4-0.3,0.9-0.6,1.4-0.9c0.4-0.2,0.8-0.3,1.3-0.3c0.6,0,1.2,0.2,1.7,0.6
		c0.4,0.4,0.6,1,0.6,1.6v5.3c0,0.2-0.1,0.2-0.2,0.2h-0.8c-0.1,0-0.2,0-0.2-0.1c0,0,0,0,0,0v-5.1c0-0.4-0.1-0.8-0.4-1.1
		c-0.3-0.3-0.7-0.4-1.1-0.4c-0.4,0-0.8,0.1-1.1,0.3c-0.4,0.3-0.9,0.5-1.2,0.9v5.4c0,0.1,0,0.2-0.1,0.2c0,0,0,0-0.1,0h-0.8
		C134.7,53.5,134.6,53.5,134.6,53.4L134.6,53.4z M145.4,53.3c0,0.1,0,0.1-0.1,0.2c-0.1,0-0.1,0.1-0.2,0.1h-1c-0.1,0-0.1,0-0.2,0
		c0,0-0.1-0.1,0-0.2v-1.2c0-0.1,0.1-0.2,0.2-0.2h1.2c0.1,0,0.1,0.1,0.1,0.2L145.4,53.3z M152.7,43.1c0-0.1,0.1-0.2,0.2-0.2h7.7
		c0.1,0,0.2,0.1,0.2,0.2v0.7c0,0,0,0.1,0,0.1c0,0-0.1,0-0.1,0h-2.9c0,0-0.1,0-0.1,0c0,0,0,0.1,0,0.1v9.2c0,0.1-0.1,0.2-0.2,0.2h-1
		c-0.1,0-0.2-0.1-0.2-0.2v-9.2c0,0,0-0.1,0-0.1c0,0-0.1,0-0.1,0h-3.1c0,0-0.1,0-0.1,0c0,0,0-0.1,0-0.1L152.7,43.1z M162.6,53.4v-7.2
		c0-0.1,0.1-0.2,0.2-0.2h0.8c0.1,0,0.1,0,0.2,0.1c0,0,0,0,0,0v0.9c0,0.1,0,0.1,0,0.1s0.1,0,0.1-0.1c0.5-0.7,1.3-1.2,2.2-1.3
		c0.3,0,0.5,0.1,0.5,0.2v0.9c0,0.1,0,0.1-0.1,0.1c-0.2,0-0.4,0-0.6,0c-0.3,0-0.6,0.1-0.9,0.2c-0.3,0.2-0.6,0.4-0.8,0.6
		c-0.2,0.2-0.3,0.5-0.3,0.8v4.7c0,0.1-0.1,0.2-0.2,0.2c0,0,0,0-0.1,0h-0.8C162.7,53.5,162.6,53.5,162.6,53.4L162.6,53.4z
		 M171.3,53.7c-0.6,0-1.3-0.2-1.7-0.6c-0.4-0.4-0.7-0.9-0.6-1.5c0-0.7,0.3-1.4,1-1.8c0.8-0.5,1.8-0.8,2.8-0.8l1.1-0.1
		c0.2,0,0.2-0.1,0.2-0.2v-0.4c0-0.5-0.2-0.9-0.5-1.2c-0.4-0.3-0.8-0.5-1.3-0.4c-0.8,0-1.6,0.4-2,1.1c0,0,0,0.1-0.1,0.1
		c0,0-0.1,0-0.1,0l-0.8-0.3c0,0-0.1-0.1-0.1-0.1c0,0,0-0.1,0-0.1c0.3-0.5,0.7-0.9,1.2-1.2c0.6-0.3,1.2-0.4,1.9-0.4
		c0.8-0.1,1.5,0.2,2.1,0.6c0.5,0.5,0.8,1.1,0.7,1.8v5c0,0.1,0,0.1,0,0.2c0,0-0.1,0-0.2,0h-0.7c-0.1,0-0.2-0.1-0.2-0.2l0-0.7
		c0-0.1,0-0.1-0.1-0.1c-0.1,0-0.1,0-0.1,0.1C173.2,53.3,172.3,53.7,171.3,53.7L171.3,53.7z M173.8,49.7l-0.9,0.1
		c-0.7,0-1.4,0.2-2,0.5c-0.4,0.2-0.7,0.7-0.7,1.2c0,0.4,0.1,0.7,0.4,1c0.3,0.3,0.7,0.4,1.2,0.4c0.3,0,0.6-0.1,0.9-0.2
		c0.3-0.1,0.5-0.2,0.8-0.4c0.2-0.2,0.4-0.3,0.5-0.5c0.1-0.2,0.2-0.4,0.2-0.6v-1.2C174,49.8,174,49.7,173.8,49.7L173.8,49.7z
		 M178.7,53.4v-7.2c0-0.1,0.1-0.2,0.2-0.2h0.9c0.1,0,0.1,0,0.2,0.1c0,0,0,0,0,0V47c0,0.1,0,0.1,0.1,0c0.4-0.3,0.9-0.6,1.4-0.9
		c0.4-0.2,0.8-0.3,1.3-0.3c0.6,0,1.2,0.2,1.7,0.6c0.4,0.4,0.6,1,0.6,1.6v5.3c0,0.2-0.1,0.2-0.2,0.2h-0.8c-0.1,0-0.2,0-0.2-0.1
		c0,0,0,0,0,0v-5.1c0-0.4-0.1-0.8-0.4-1.1c-0.3-0.3-0.7-0.4-1.1-0.4c-0.4,0-0.8,0.1-1.1,0.3c-0.4,0.3-0.9,0.5-1.2,0.9v5.4
		c0,0.1,0,0.1,0,0.2c0,0-0.1,0.1-0.2,0.1h-0.8C178.7,53.5,178.7,53.5,178.7,53.4L178.7,53.4z M192.1,47c-0.4-0.2-0.8-0.3-1.2-0.3
		c-0.5,0-0.9,0.1-1.3,0.3c-0.3,0.2-0.5,0.5-0.5,0.9c0,0.2,0.1,0.4,0.2,0.6c0.3,0.2,0.6,0.4,0.9,0.5l1.8,0.5c0.5,0.1,1,0.4,1.4,0.8
		c0.3,0.3,0.5,0.8,0.5,1.2c0,0.4-0.1,0.8-0.4,1.2c-0.3,0.4-0.7,0.6-1.1,0.8c-1.1,0.4-2.4,0.4-3.5-0.2c-0.5-0.2-0.9-0.6-1.2-1.1
		c0,0,0-0.1,0-0.1c0,0,0-0.1,0.1-0.1l0.6-0.3c0.1-0.1,0.2-0.1,0.2,0c0.5,0.8,1.4,1.3,2.4,1.2c0.5,0,1-0.1,1.4-0.3
		c0.3-0.2,0.5-0.5,0.5-0.9c0-0.3-0.1-0.5-0.3-0.7c-0.3-0.2-0.7-0.4-1.1-0.5l-1.5-0.4c-0.6-0.1-1.1-0.4-1.5-0.8
		c-0.3-0.3-0.5-0.7-0.4-1.2c0-0.4,0.1-0.8,0.4-1.2c0.3-0.4,0.6-0.6,1-0.8c1-0.4,2.2-0.4,3.2,0.1c0.5,0.2,0.9,0.5,1.1,1
		c0.1,0.1,0.1,0.2,0,0.2l-0.6,0.3c0,0-0.1,0-0.1,0c-0.1,0-0.1,0-0.1-0.1C192.7,47.4,192.4,47.1,192.1,47L192.1,47z M198.3,46.2v0.6
		c0,0.1,0,0.1,0.1,0.1c0,0,0.1,0,0.1-0.1c0.2-0.2,0.4-0.4,0.5-0.5c0.2-0.2,0.4-0.3,0.7-0.4c0.3-0.1,0.7-0.2,1-0.2
		c0.6,0,1.1,0.1,1.6,0.4c0.5,0.3,0.9,0.8,1.1,1.3c0.3,0.7,0.4,1.4,0.4,2.1c0,0.7-0.1,1.5-0.4,2.2c-0.5,1.2-1.6,1.9-2.9,1.9
		c-0.7,0-1.5-0.2-2-0.7c-0.1-0.1-0.1-0.1-0.2-0.1s-0.1,0.1-0.1,0.2v2.6c0,0.1-0.1,0.2-0.2,0.2h-0.9c-0.1,0-0.2-0.1-0.2-0.2v-9.5
		c0-0.1,0-0.1,0-0.2c0,0,0.1-0.1,0.2-0.1h0.8C198.2,46,198.3,46.1,198.3,46.2L198.3,46.2z M199.2,52.6c0.3,0.2,0.7,0.2,1,0.2
		c0.7,0,1.3-0.3,1.7-0.8c0.5-0.7,0.7-1.5,0.6-2.3c0.1-0.8-0.2-1.6-0.6-2.2c-0.7-0.7-1.8-0.9-2.7-0.5c-0.3,0.2-0.5,0.4-0.7,0.6
		c-0.2,0.2-0.3,0.5-0.3,0.8v3.5C198.6,52.2,198.9,52.4,199.2,52.6L199.2,52.6z M208.9,53.7c-0.6,0-1.3-0.2-1.7-0.6
		c-0.4-0.4-0.7-0.9-0.6-1.5c0-0.7,0.3-1.4,1-1.8c0.8-0.5,1.8-0.8,2.8-0.8l1.1-0.1c0.2,0,0.2-0.1,0.2-0.2v-0.4c0-0.5-0.2-0.9-0.5-1.2
		c-0.4-0.3-0.8-0.5-1.3-0.4c-0.8,0-1.6,0.4-2,1.1c0,0,0,0.1-0.1,0.1c0,0-0.1,0-0.1,0l-0.8-0.3c0,0-0.1-0.1-0.1-0.1c0,0,0-0.1,0-0.1
		c0.3-0.5,0.7-0.9,1.2-1.2c0.6-0.3,1.2-0.4,1.9-0.4c0.8-0.1,1.5,0.2,2.1,0.6c0.5,0.5,0.8,1.1,0.7,1.8v5c0,0.1,0,0.1,0,0.2
		c0,0-0.1,0-0.2,0h-0.7c-0.1,0-0.2-0.1-0.2-0.2l0-0.7c0-0.1,0-0.1-0.1-0.1c-0.1,0-0.1,0-0.1,0.1C210.7,53.3,209.8,53.7,208.9,53.7
		L208.9,53.7z M211.4,49.7l-0.9,0.1c-0.7,0-1.4,0.2-2,0.5c-0.4,0.2-0.7,0.7-0.7,1.2c0,0.4,0.1,0.7,0.4,1c0.3,0.3,0.7,0.4,1.2,0.4
		c0.3,0,0.6-0.1,0.9-0.2c0.3-0.1,0.5-0.2,0.8-0.4c0.2-0.2,0.4-0.3,0.5-0.5c0.1-0.2,0.2-0.4,0.2-0.6v-1.2
		C211.6,49.8,211.5,49.7,211.4,49.7L211.4,49.7z M216.2,53.4v-7.2c0-0.1,0.1-0.2,0.2-0.2h0.8c0.1,0,0.1,0,0.2,0.1c0,0,0,0,0,0v0.9
		c0,0.1,0,0.1,0,0.1s0.1,0,0.1-0.1c0.5-0.7,1.3-1.2,2.2-1.3c0.3,0,0.5,0.1,0.5,0.2v0.9c0,0.1,0,0.1-0.1,0.1c-0.2,0-0.4,0-0.6,0
		c-0.3,0-0.6,0.1-0.9,0.2c-0.3,0.2-0.6,0.4-0.8,0.6c-0.2,0.2-0.3,0.5-0.3,0.8v4.7c0,0.1-0.1,0.2-0.2,0.2c0,0,0,0-0.1,0h-0.8
		C216.3,53.5,216.2,53.5,216.2,53.4L216.2,53.4z M224,51.5c0.2,0.4,0.5,0.7,0.9,0.9c0.4,0.2,0.8,0.3,1.3,0.3c0.9,0,1.7-0.4,2.2-1.2
		c0,0,0.1-0.1,0.1-0.1c0,0,0.1,0,0.1,0l0.6,0.3c0.1,0,0.1,0.1,0,0.2c-0.3,0.5-0.8,1-1.3,1.2c-0.6,0.3-1.2,0.4-1.8,0.4
		c-0.7,0-1.3-0.2-1.9-0.5c-0.5-0.3-1-0.8-1.3-1.4c-0.3-0.6-0.5-1.3-0.5-2c0-0.7,0.1-1.5,0.5-2.1c0.3-0.6,0.7-1.1,1.3-1.4
		c0.6-0.3,1.2-0.5,1.8-0.5c0.6,0,1.3,0.1,1.8,0.5c0.5,0.3,0.9,0.8,1.2,1.3c0.3,0.6,0.4,1.4,0.4,2.1v0.1c0,0.1,0,0.1,0,0.2
		c0,0-0.1,0.1-0.2,0.1h-5.4c-0.1,0-0.1,0.1-0.1,0.2C223.7,50.7,223.8,51.1,224,51.5L224,51.5z M228.1,49.2c0.1,0,0.1,0,0.2,0
		c0,0,0-0.1,0-0.2c0-0.4-0.1-0.8-0.3-1.2c-0.2-0.4-0.4-0.6-0.8-0.9c-0.4-0.2-0.8-0.3-1.2-0.3c-0.4,0-0.9,0.1-1.3,0.4
		c-0.4,0.2-0.6,0.6-0.8,0.9c-0.2,0.4-0.3,0.8-0.3,1.2L228.1,49.2z M232.6,53.4v-7.2c0-0.1,0.1-0.2,0.2-0.2h0.9c0.1,0,0.1,0,0.2,0.1
		c0,0,0,0,0,0V47c0,0.1,0,0.1,0.1,0c0.4-0.3,0.9-0.6,1.4-0.9c0.4-0.2,0.8-0.3,1.3-0.3c0.6,0,1.2,0.2,1.7,0.6c0.4,0.4,0.6,1,0.6,1.6
		v5.3c0,0.2-0.1,0.2-0.2,0.2h-0.8c-0.1,0-0.2,0-0.2-0.1c0,0,0,0,0,0v-5.1c0-0.4-0.1-0.8-0.4-1.1c-0.3-0.3-0.7-0.4-1.1-0.4
		c-0.4,0-0.8,0.1-1.1,0.3c-0.4,0.3-0.9,0.5-1.2,0.9v5.4c0,0.1,0,0.2-0.1,0.2c0,0,0,0-0.1,0h-0.8C232.7,53.5,232.6,53.5,232.6,53.4
		L232.6,53.4z M247.2,46.3c0.5,0.3,0.9,0.8,1.2,1.3l0,0.1c0,0.1,0,0.1-0.1,0.1l-0.8,0.2l0,0c0,0-0.1,0-0.1-0.1
		c-0.2-0.3-0.5-0.6-0.9-0.9c-0.3-0.2-0.6-0.3-1-0.3c-0.7,0-1.3,0.3-1.8,0.8c-0.9,1.3-0.9,3.1,0,4.4c0.4,0.5,1.1,0.8,1.8,0.8
		c0.4,0,0.8-0.1,1.2-0.3c0.4-0.3,0.7-0.6,0.9-1c0,0,0.1-0.1,0.1-0.1c0,0,0.1,0,0.1,0l0.6,0.2c0.1,0,0.1,0.1,0.1,0.2
		c-0.3,0.5-0.7,1-1.2,1.3c-0.5,0.4-1.2,0.5-1.8,0.5c-0.6,0-1.3-0.2-1.8-0.5c-0.5-0.3-1-0.8-1.3-1.4c-0.3-0.6-0.5-1.3-0.5-2
		c0-0.7,0.1-1.4,0.5-2c0.3-0.6,0.7-1.1,1.3-1.4c0.6-0.3,1.2-0.5,1.8-0.5C246.1,45.8,246.7,46,247.2,46.3L247.2,46.3z M251.2,55.9
		c-0.1,0-0.2-0.1-0.2-0.2v-0.6c0-0.1,0-0.1,0.1-0.1c0.1,0,0.2-0.1,0.3,0h0.9c0.2,0,0.5-0.1,0.6-0.2c0.4-0.3,0.6-0.8,0.6-1.3
		c0-0.1,0-0.2-0.1-0.3l-2.7-6.8c0,0,0-0.1,0-0.1c0-0.1,0.1-0.2,0.2-0.2h0.9c0.1,0,0.2,0.1,0.2,0.2l2.1,5.5c0,0.1,0.1,0.1,0.1,0.1
		s0.1-0.1,0.1-0.2l2.1-5.5c0-0.1,0.1-0.2,0.2-0.2h0.7c0.1,0,0.1,0,0.1,0.1c0,0,0,0.1,0,0.1l-3.1,8c-0.2,0.5-0.5,1-1,1.3
		c-0.5,0.3-1,0.4-1.5,0.4C251.6,55.9,251.4,55.9,251.2,55.9L251.2,55.9z M260.6,53.3c0,0.1,0,0.1-0.1,0.2c-0.1,0-0.1,0.1-0.2,0.1h-1
		c-0.1,0-0.1,0-0.2,0c0,0-0.1-0.1,0-0.2v-1.2c0-0.1,0.1-0.2,0.2-0.2h1.2c0.1,0,0.1,0.1,0.1,0.2L260.6,53.3z M275.1,52.8
		c-0.8,0.6-1.8,1-2.8,0.9c-1.1,0.1-2.1-0.3-2.9-1c-0.7-0.8-1-1.9-0.9-2.9v-6.6c0-0.1,0.1-0.2,0.2-0.2h1c0.1,0,0.2,0.1,0.2,0.2v6.9
		c-0.2,1.2,0.7,2.4,1.9,2.5c0.2,0,0.4,0,0.7,0c1.2,0.2,2.4-0.7,2.6-1.9c0-0.2,0-0.4,0-0.7v-6.9c0-0.1,0.1-0.2,0.2-0.2h0.8
		c0.1,0,0.2,0.1,0.2,0.2V50C276.2,51,275.8,52,275.1,52.8L275.1,52.8z M279.9,53.4v-7.2c0-0.1,0.1-0.2,0.2-0.2h0.8
		c0.1,0,0.1,0,0.2,0.1c0,0,0,0,0,0v0.9c0,0.1,0,0.1,0,0.1s0.1,0,0.1-0.1c0.5-0.7,1.3-1.2,2.2-1.3c0.3,0,0.5,0.1,0.5,0.2v0.9
		c0,0.1,0,0.1-0.1,0.1c-0.2,0-0.4,0-0.6,0c-0.3,0-0.6,0.1-0.9,0.2c-0.3,0.2-0.6,0.4-0.8,0.6c-0.2,0.2-0.3,0.5-0.3,0.8v4.7
		c0,0.1-0.1,0.2-0.2,0.2c0,0,0,0-0.1,0h-0.8C279.9,53.5,279.9,53.5,279.9,53.4L279.9,53.4z M293.8,46.1v0.5c0,0.1,0,0.1-0.1,0.2
		c-0.1,0-0.1,0.1-0.2,0.1c-0.3,0-0.5,0-0.7,0.1c-0.2,0.1-0.3,0.2-0.3,0.3c0,0.1,0.1,0.1,0.1,0.2c0,0.1,0.1,0.2,0.1,0.3
		c0,0.1,0,0.3,0,0.4c0,0.6-0.3,1.3-0.8,1.6c-0.7,0.5-1.5,0.7-2.3,0.6c-0.5,0-1,0-1.5,0.2c-0.3,0.1-0.4,0.3-0.4,0.4
		c0,0.1,0.1,0.2,0.3,0.3c0.3,0.1,0.7,0.1,1,0.1l1.8,0.1c0.7,0,1.3,0.2,1.8,0.6c0.4,0.3,0.6,0.9,0.6,1.4c0,0.7-0.3,1.3-0.9,1.7
		c-0.8,0.5-1.8,0.7-2.7,0.6c-0.9,0.1-1.9-0.1-2.8-0.5c-0.6-0.3-1-0.8-0.9-1.5c0-0.6,0.4-1.2,1.3-1.6c0.1,0,0.1-0.1,0-0.2
		c-0.4-0.1-0.6-0.4-0.7-0.8c0-0.2,0.1-0.4,0.3-0.6c0.2-0.2,0.5-0.4,0.8-0.5c0,0,0.1,0,0.1-0.1c0,0,0-0.1-0.1-0.1
		c-0.4-0.2-0.7-0.5-0.9-0.8c-0.2-0.3-0.3-0.7-0.3-1.1c0-0.7,0.3-1.3,0.8-1.7c0.7-0.5,1.5-0.7,2.4-0.6c0.8,0,1.5,0.2,2.1,0.6
		c0,0,0.1,0.1,0.1,0.1c0.1,0,0.1,0,0.2-0.1c0.2-0.2,0.4-0.3,0.6-0.5c0.2-0.1,0.5-0.2,0.7-0.2C293.7,45.9,293.8,45.9,293.8,46.1z
		 M288.4,52.6c-0.2,0-0.4,0.1-0.6,0.1c-0.2,0.1-0.4,0.3-0.6,0.5c-0.1,0.2-0.2,0.4-0.2,0.7c0,0.5,0.3,0.9,0.7,1
		c0.7,0.3,1.4,0.4,2.1,0.4c1.6,0,2.4-0.5,2.4-1.4c0-0.3-0.1-0.6-0.3-0.8c-0.3-0.2-0.7-0.3-1.1-0.3L288.4,52.6z M291.1,49.4
		c0.3-0.3,0.5-0.7,0.5-1.2c0-0.5-0.2-0.9-0.5-1.2c-0.4-0.3-0.9-0.5-1.5-0.4c-0.5,0-1,0.1-1.5,0.4c-0.4,0.3-0.5,0.7-0.5,1.2
		c0,0.4,0.2,0.9,0.5,1.1c0.4,0.3,1,0.4,1.5,0.4C290.2,49.8,290.7,49.7,291.1,49.4L291.1,49.4z M297.7,51.5c0.2,0.4,0.5,0.7,0.9,0.9
		c0.4,0.2,0.8,0.3,1.3,0.3c0.9,0,1.7-0.4,2.2-1.2c0,0,0.1-0.1,0.1-0.1c0,0,0.1,0,0.1,0l0.6,0.3c0.1,0,0.1,0.1,0,0.2
		c-0.3,0.5-0.8,1-1.3,1.2c-0.6,0.3-1.2,0.4-1.8,0.4c-0.7,0-1.3-0.2-1.9-0.5c-0.5-0.3-1-0.8-1.3-1.4c-0.3-0.6-0.5-1.3-0.5-2
		c0-0.7,0.1-1.5,0.5-2.1c0.3-0.6,0.7-1.1,1.3-1.4c0.6-0.3,1.2-0.5,1.8-0.5c0.6,0,1.3,0.1,1.8,0.5c0.5,0.3,0.9,0.8,1.2,1.3
		c0.3,0.6,0.4,1.4,0.4,2.1v0.1c0,0.1,0,0.1,0,0.2c0,0-0.1,0.1-0.2,0.1h-5.4c-0.1,0-0.1,0.1-0.1,0.2
		C297.4,50.7,297.5,51.1,297.7,51.5L297.7,51.5z M301.8,49.2c0.1,0,0.1,0,0.2,0c0,0,0.1-0.1,0-0.2c0-0.4-0.1-0.8-0.3-1.2
		c-0.2-0.4-0.4-0.6-0.8-0.9c-0.4-0.2-0.8-0.3-1.2-0.3c-0.4,0-0.9,0.1-1.3,0.4c-0.4,0.2-0.6,0.6-0.8,0.9c-0.2,0.4-0.3,0.8-0.3,1.2
		L301.8,49.2z M306.3,53.4v-7.2c0-0.1,0.1-0.2,0.2-0.2h0.9c0.1,0,0.1,0,0.2,0.1c0,0,0,0,0,0V47c0,0.1,0,0.1,0.1,0
		c0.4-0.3,0.9-0.6,1.4-0.9c0.4-0.2,0.8-0.3,1.3-0.3c0.6,0,1.2,0.2,1.7,0.6c0.4,0.4,0.6,1,0.6,1.6v5.3c0,0.2-0.1,0.2-0.2,0.2h-0.8
		c-0.1,0-0.2,0-0.2-0.1c0,0,0,0,0,0v-5.1c0-0.4-0.1-0.8-0.4-1.1c-0.3-0.3-0.7-0.4-1.1-0.4c-0.4,0-0.8,0.1-1.1,0.3
		c-0.4,0.3-0.9,0.5-1.2,0.9v5.4c0,0.1,0,0.1,0,0.2c0,0-0.1,0.1-0.2,0.1h-0.8C306.4,53.5,306.3,53.5,306.3,53.4L306.3,53.4z
		 M320.9,46.3c0.5,0.3,0.9,0.8,1.2,1.3l0,0.1c0,0.1,0,0.1-0.1,0.1l-0.8,0.2l0,0c0,0-0.1,0-0.1-0.1c-0.2-0.3-0.5-0.6-0.9-0.9
		c-0.3-0.2-0.6-0.3-1-0.3c-0.7,0-1.3,0.3-1.8,0.8c-0.9,1.3-0.9,3.1,0,4.4c0.4,0.5,1.1,0.8,1.8,0.8c0.4,0,0.8-0.1,1.2-0.3
		c0.4-0.3,0.7-0.6,0.9-1c0,0,0.1-0.1,0.1-0.1c0,0,0.1,0,0.1,0l0.6,0.2c0.1,0,0.1,0.1,0.1,0.2c-0.3,0.5-0.7,1-1.2,1.3
		c-0.5,0.4-1.2,0.5-1.8,0.5c-0.6,0-1.3-0.2-1.8-0.5c-0.5-0.3-1-0.8-1.3-1.4c-0.3-0.6-0.5-1.3-0.5-2c0-0.7,0.1-1.4,0.5-2
		c0.3-0.6,0.7-1.1,1.3-1.4c0.6-0.3,1.2-0.5,1.8-0.5C319.8,45.8,320.4,46,320.9,46.3L320.9,46.3z M324.9,55.9c-0.1,0-0.2-0.1-0.2-0.2
		v-0.6c0-0.1,0-0.1,0.1-0.1c0.1,0,0.2-0.1,0.3,0h0.9c0.2,0,0.5-0.1,0.6-0.2c0.4-0.3,0.6-0.8,0.6-1.3c0-0.1,0-0.2-0.1-0.3l-2.7-6.8
		c0,0,0-0.1,0-0.1c0-0.1,0.1-0.2,0.2-0.2h0.9c0.1,0,0.2,0.1,0.2,0.2l2.1,5.5c0,0.1,0.1,0.1,0.1,0.1s0.1-0.1,0.1-0.2l2.1-5.5
		c0-0.1,0.1-0.2,0.2-0.2h0.7c0.1,0,0.1,0,0.1,0.1c0,0,0,0.1,0,0.1l-3.1,8c-0.2,0.5-0.5,1-1,1.3c-0.5,0.3-1,0.4-1.5,0.4
		C325.3,55.9,325.1,55.9,324.9,55.9L324.9,55.9z M334.3,53.3c0,0.1,0,0.1-0.1,0.2c-0.1,0-0.1,0.1-0.2,0.1h-1c-0.1,0-0.1,0-0.2,0
		c0,0-0.1-0.1,0-0.2v-1.2c0-0.1,0.1-0.2,0.2-0.2h1.2c0.1,0,0.1,0.1,0.1,0.2L334.3,53.3z"/>
</g>
</svg>
