<svg id="Layer_1" data-name="Layer 1" xmlns="http://www.w3.org/2000/svg" viewBox="0 0 232 230">
  <g id="Layer_2" data-name="Layer 2">
    <ellipse cx="116" cy="115" rx="116" ry="115" fill="#fff"/>
  </g>
  <g>
    <path d="M18.5,55.3l10,6c39.1-64.8,135.3-65.1,174.3,0l10.5-5.8C167.7-18,64.6-16.3,18.5,55.3Z" fill="#6f3592"/>
    <path d="M113,229l.3-11.7C37.5,216-10.9,132.9,25.8,66.6L15.5,60.3C-25.2,136.7,28,225,113,229Z" fill="#19ae69"/>
    <path d="M118.7,229l-.3-11.7c75.8-1.3,124.2-84.4,87.5-150.7l10.3-6.3C256.9,136.7,203.7,225,118.7,229Z" fill="#3c6cb5"/>
    <path d="M73.6,89.7a4.5,4.5,0,0,1,1.2,2v4.1c0,1.4.4,11-.1,11s-2.8-4.8-3.3-6.2A15.6,15.6,0,0,0,67.2,94c-2.2-1.9-3.4-2.7-6.3-2.7a9.5,9.5,0,0,0-9.3,9.5c0,5.4,4,8.4,12.3,13.6,11.3,6.9,13.5,12.7,13.5,18.3a16.3,16.3,0,0,1-8.1,13.5,27.3,27.3,0,0,1-12.8,3.3,33.8,33.8,0,0,1-13.2-2.4c-.8-.4-2.8-1.5-2.8-2-.7-3.1-.3-5.8-.3-8.5,0-.6-.1-8.2.3-8.2s3.8,6.4,5.1,9.2c2.8,5.6,6.8,8.6,11.5,8.6s9.5-3.3,9.5-9.2c0-3.8-1.9-7.5-10.3-13s-15.4-11.3-15.4-19.5a16.1,16.1,0,0,1,5.7-12.1c3-2.6,8.2-4.1,15.4-4.1C66.3,88.3,71.1,89.4,73.6,89.7Z" fill="#4d4e4e"/>
    <path d="M125.7,115.7l-3.7,2c-.4.1-.4.9-.2,1.3,1.8,3.7,8.3,13,13,18.4s7.6,8,13.4,8.7a1.9,1.9,0,0,1,1.6,1.3c0,.5-.8,1.2-1.5,1.4s-9.2.3-10.4.3c-8.5,0-11.4-4.7-13.4-7.5s-8-11.7-8-11.7a101.5,101.5,0,0,0-7-8.7A8.4,8.4,0,0,0,105,120a1.3,1.3,0,0,0-1,.9c-.2,1.8,0,14.2.3,18.6s.9,5.4,5.2,6.5c1.6.5,2.2,1.1,2.2,1.8s-1.7,1.4-2.9,1.4c-3.2,0-7.3-.6-11.9-.6s-8,.4-9,.4-3-.7-3-1.5,1.1-1.1,2.3-1.5c4.3-1.3,5.4-2.8,5.6-5.8.5-7.2.5-15.1.5-23,0-10-.2-17.9-.4-20.5s-1.1-3.6-5.5-4.6c-1.3-.4-2.3-1.1-2.3-1.8S86.2,89,87.8,89h6.8c3.5,0,11.3-.5,16.3-.5s11.8.4,16.3,4.1a15.1,15.1,0,0,1,5,11.1C132.2,108.8,129.8,112.4,125.7,115.7ZM116.6,95a10.3,10.3,0,0,0-7.6-3.3,18.3,18.3,0,0,0-3.5.6,4,4,0,0,0-1.1,2c-.3,3.2-.7,19.5-.3,22a1.5,1.5,0,0,0,1.2,1.1c4.8,0,9.1-1.4,10.1-2.1a12.5,12.5,0,0,0,5.2-10.4A14.3,14.3,0,0,0,116.6,95Z" fill="#4d4e4e"/>
    <path d="M178.9,88.9c10.8,0,14.5-.3,15.3-.3a1.1,1.1,0,0,1,1.2,1.1c-.1,2.7.3,7.2.4,10.4.1,1.2-.5,2.6-1.4,2.6s-1.5-.9-2.1-3.1-3-6.4-6.3-6.8-11.1-.3-13-.2a2,2,0,0,0-1.4,1c-.5,2.8-.6,13.8-.6,19.9,0,1.6.4,3.4,1.1,3.4,2.8,0,8.8.1,10.9-.2s3.9-1.1,5-4.3c.4-1.3,1-2.4,1.9-2.4s1.1,1.4,1.1,2.2-.3,4.3-.3,6c0,3.3.2,5.6.2,7.1s-.9,3.1-1.6,3.1-1.2-.6-1.7-2.4c-1-3.4-2.5-4.2-3.9-4.6a45.1,45.1,0,0,0-6-.5,36.3,36.3,0,0,0-5.8.3c-.4,0-.8.8-.9,1,0,6.2.4,15.5.4,17.1.2,3.8.9,4.9,5.7,5.9,1.5.2,2.7.9,2.7,1.8s-1.4,1.4-3.1,1.4l-9.4-.2c-4.8,0-10.3.5-13.4.5s-2.7-.5-2.7-1.1,1-1.6,2.7-2c4.1-1.1,5-2.7,5.1-4.9s.8-8.5.8-26.9c0-8.8,0-14.1-.2-16.5s-1.3-4.5-5-5.5c-1.9-.4-2.9-.9-2.9-1.8s1.4-1.3,2.8-1.3l12,.2Z" fill="#4d4e4e"/>
  </g>
</svg>
