<?xml version="1.0" encoding="utf-8"?>
<!-- Generator: Adobe Illustrator 27.4.0, SVG Export Plug-In . SVG Version: 6.00 Build 0)  -->
<svg version="1.1" id="Layer_1" xmlns="http://www.w3.org/2000/svg" xmlns:xlink="http://www.w3.org/1999/xlink" x="0px" y="0px"
	 viewBox="0 0 512 512" style="enable-background:new 0 0 512 512;" xml:space="preserve">
<style type="text/css">
	.st0{fill:#FFFFFF;}
	.st1{fill:#6F3592;}
	.st2{fill:#19AE69;}
	.st3{fill:#3C6CB5;}
	.st4{fill:#4D4E4E;}
</style>
<g id="Layer_2_00000001637039431004545710000002683077266971757993_">
	<ellipse class="st0" cx="256" cy="256" rx="256" ry="256"/>
</g>
<g>
	<path class="st1" d="M40.8,123.1l22.1,13.4c86.3-144.3,298.6-144.9,384.7,0l23.2-12.9C370.1-40.1,142.6-36.3,40.8,123.1z"/>
	<path class="st2" d="M249.4,509.8l0.7-26C82.8,480.8-24.1,295.8,56.9,148.3l-22.7-14C-55.6,304.3,61.8,500.9,249.4,509.8z"/>
	<path class="st3" d="M262,509.8l-0.7-26c167.3-2.9,274.1-187.9,193.1-335.5l22.7-14C567,304.3,449.5,500.9,262,509.8z"/>
	<path class="st4" d="M162.4,199.7c1.3,1.2,2.2,2.8,2.6,4.5v9.1c0,3.1,0.9,24.5-0.2,24.5c-1.1,0-6.2-10.7-7.3-13.8
		c-1.8-5.6-5-10.7-9.3-14.7c-4.9-4.2-7.5-6-13.9-6c-11.4,0.2-20.5,9.6-20.5,21.1c0,12,8.8,18.7,27.1,30.3
		c24.9,15.4,29.8,28.3,29.8,40.7c-0.4,12.4-7.2,23.8-17.9,30.1c-8.7,4.7-18.4,7.3-28.2,7.3c-10,0.2-19.9-1.6-29.1-5.3
		c-1.8-0.9-6.2-3.3-6.2-4.5c-1.5-6.9-0.7-12.9-0.7-18.9c0-1.3-0.2-18.3,0.7-18.3s8.4,14.2,11.3,20.5c6.2,12.5,15,19.1,25.4,19.1
		s21-7.3,21-20.5c0-8.5-4.2-16.7-22.7-28.9s-34-25.2-34-43.4c0.1-10.4,4.7-20.2,12.6-26.9c6.6-5.8,18.1-9.1,34-9.1
		C146.3,196.6,156.9,199,162.4,199.7z"/>
	<path class="st4" d="M277.4,257.6l-8.2,4.5c-0.9,0.2-0.9,2-0.4,2.9c4,8.2,18.3,28.9,28.7,41c10.4,12,16.8,17.8,29.6,19.4
		c1.6,0.2,3,1.3,3.5,2.9c0,1.1-1.8,2.7-3.3,3.1c-1.5,0.4-20.3,0.7-23,0.7c-18.8,0-25.2-10.5-29.6-16.7c-4.4-6.2-17.7-26-17.7-26
		c-4.8-6.7-10-13.2-15.4-19.4c-3-1.8-6.4-2.7-9.9-2.7c-1,0.2-1.9,1-2.2,2c-0.4,4,0,31.6,0.7,41.4s2,12,11.5,14.5
		c3.5,1.1,4.9,2.4,4.9,4s-3.8,3.1-6.4,3.1c-7.1,0-16.1-1.3-26.3-1.3s-17.7,0.9-19.9,0.9s-6.6-1.6-6.6-3.3c0-1.8,2.4-2.4,5.1-3.3
		c9.5-2.9,11.9-6.2,12.4-12.9c1.1-16,1.1-33.6,1.1-51.2c0-22.3-0.4-39.8-0.9-45.6c-0.4-5.8-2.4-8-12.1-10.2c-2.9-0.9-5.1-2.4-5.1-4
		s2.4-2.9,6-2.9h15c7.7,0,24.9-1.1,36-1.1s26,0.9,36,9.1c7,6.3,11,15.3,11,24.7C291.8,242.2,286.5,250.2,277.4,257.6z M257.3,211.5
		c-4.3-4.7-10.4-7.4-16.8-7.3c-2.6,0.2-5.2,0.6-7.7,1.3c-1.2,1.2-2.1,2.8-2.4,4.5c-0.7,7.1-1.5,43.4-0.7,49c0.3,1.3,1.4,2.2,2.6,2.4
		c10.6,0,20.1-3.1,22.3-4.7c7.4-5.3,11.7-14,11.5-23.2C266.1,225.3,263,217.4,257.3,211.5z"/>
	<path class="st4" d="M394.8,197.9c23.8,0,32-0.7,33.8-0.7c1.3-0.1,2.5,0.9,2.6,2.2c0,0.1,0,0.2,0,0.2c-0.2,6,0.7,16,0.9,23.2
		c0.2,2.7-1.1,5.8-3.1,5.8c-2,0-3.3-2-4.6-6.9c-1.3-4.9-6.6-14.2-13.9-15.1s-24.5-0.7-28.7-0.4c-1.3,0.2-2.4,1.1-3.1,2.2
		c-1.1,6.2-1.3,30.7-1.3,44.3c0,3.6,0.9,7.6,2.4,7.6c6.2,0,19.4,0.2,24.1-0.4s8.6-2.4,11-9.6c0.9-2.9,2.2-5.3,4.2-5.3
		c2,0,2.4,3.1,2.4,4.9c0,1.8-0.7,9.6-0.7,13.4c0,7.3,0.4,12.5,0.4,15.8c0,3.3-2,6.9-3.5,6.9c-1.5,0-2.6-1.3-3.8-5.3
		c-2.2-7.6-5.5-9.3-8.6-10.2c-4.4-0.7-8.8-1-13.2-1.1c-4.3-0.1-8.6,0.1-12.8,0.7c-0.9,0-1.8,1.8-2,2.2c0,13.8,0.9,34.5,0.9,38.1
		c0.4,8.5,2,10.9,12.6,13.1c3.3,0.4,6,2,6,4c0,2-3.1,3.1-6.8,3.1l-20.7-0.4c-10.6,0-22.7,1.1-29.6,1.1c-6.8,0-6-1.1-6-2.4
		s2.2-3.6,6-4.5c9-2.4,11-6,11.3-10.9c0.2-4.9,1.8-18.9,1.8-59.9c0-19.6,0-31.4-0.4-36.7s-2.9-10-11-12.2c-4.2-0.9-6.4-2-6.4-4
		s3.1-2.9,6.2-2.9l26.5,0.4L394.8,197.9z"/>
</g>
</svg>
